Playwrite-Rg18LongFast.ufo
<glyph name="percent" format="2">
  <advance width="1275"/>
  <unicode hex="0025"/>
  <outline>
    <contour>
      <point x="541" y="870" type="curve" smooth="yes"/>
      <point x="751" y="870"/>
      <point x="870" y="1134"/>
      <point x="870" y="1296" type="curve" smooth="yes"/>
      <point x="870" y="1430"/>
      <point x="794" y="1515"/>
      <point x="664" y="1515" type="curve" smooth="yes"/>
      <point x="463" y="1515"/>
      <point x="335" y="1280"/>
      <point x="335" y="1091" type="curve" smooth="yes"/>
      <point x="335" y="960"/>
      <point x="411" y="870"/>
    </contour>
    <contour>
      <point x="551" y="946" type="curve" smooth="yes"/>
      <point x="465" y="946"/>
      <point x="420" y="998"/>
      <point x="420" y="1091" type="curve" smooth="yes"/>
      <point x="420" y="1230"/>
      <point x="515" y="1439"/>
      <point x="655" y="1439" type="curve" smooth="yes"/>
      <point x="741" y="1439"/>
      <point x="785" y="1390"/>
      <point x="785" y="1296" type="curve" smooth="yes"/>
      <point x="785" y="1159"/>
      <point x="691" y="946"/>
    </contour>
    <contour>
      <point x="195" y="-9" type="curve" smooth="yes"/>
      <point x="1454" y="1463" type="line" smooth="yes"/>
      <point x="1468" y="1479"/>
      <point x="1468" y="1489"/>
      <point x="1448" y="1505" type="curve" smooth="yes"/>
      <point x="1429" y="1520"/>
      <point x="1415" y="1521"/>
      <point x="1401" y="1505" type="curve" smooth="yes"/>
      <point x="143" y="34" type="line" smooth="yes"/>
      <point x="129" y="18"/>
      <point x="128" y="9"/>
      <point x="149" y="-9" type="curve" smooth="yes"/>
      <point x="170" y="-26"/>
      <point x="181" y="-24"/>
    </contour>
    <contour>
      <point x="938" y="-19" type="curve" smooth="yes"/>
      <point x="1148" y="-19"/>
      <point x="1266" y="245"/>
      <point x="1266" y="408" type="curve" smooth="yes"/>
      <point x="1266" y="541"/>
      <point x="1190" y="626"/>
      <point x="1060" y="626" type="curve" smooth="yes"/>
      <point x="859" y="626"/>
      <point x="731" y="391"/>
      <point x="731" y="203" type="curve" smooth="yes"/>
      <point x="731" y="71"/>
      <point x="808" y="-19"/>
    </contour>
    <contour>
      <point x="948" y="58" type="curve" smooth="yes"/>
      <point x="861" y="58"/>
      <point x="816" y="109"/>
      <point x="816" y="203" type="curve" smooth="yes"/>
      <point x="816" y="341"/>
      <point x="911" y="550"/>
      <point x="1051" y="550" type="curve" smooth="yes"/>
      <point x="1138" y="550"/>
      <point x="1181" y="501"/>
      <point x="1181" y="408" type="curve" smooth="yes"/>
      <point x="1181" y="270"/>
      <point x="1088" y="58"/>
    </contour>
  </outline>
</glyph>
<glyph name="ampersand" format="2">
  <advance width="1321"/>
  <unicode hex="0026"/>
  <outline>
    <contour>
      <point x="531" y="-19" type="curve" smooth="yes"/>
      <point x="689" y="-19"/>
      <point x="835" y="56"/>
      <point x="961" y="184" type="curve"/>
      <point x="1064" y="3" type="line" smooth="yes"/>
      <point x="1075" y="-19"/>
      <point x="1093" y="-19"/>
      <point x="1115" y="-6" type="curve" smooth="yes"/>
      <point x="1141" y="9"/>
      <point x="1146" y="26"/>
      <point x="1136" y="44" type="curve" smooth="yes"/>
      <point x="1019" y="249" type="line"/>
      <point x="1128" y="381"/>
      <point x="1219" y="554"/>
      <point x="1284" y="751" type="curve" smooth="yes"/>
      <point x="1293" y="778"/>
      <point x="1284" y="790"/>
      <point x="1243" y="790" type="curve" smooth="yes"/>
      <point x="1216" y="790"/>
      <point x="1206" y="785"/>
      <point x="1198" y="758" type="curve" smooth="yes"/>
      <point x="1144" y="591"/>
      <point x="1066" y="443"/>
      <point x="975" y="327" type="curve"/>
      <point x="711" y="792" type="line"/>
      <point x="932" y="899"/>
      <point x="1150" y="1009"/>
      <point x="1150" y="1258" type="curve" smooth="yes"/>
      <point x="1150" y="1411"/>
      <point x="1038" y="1515"/>
      <point x="891" y="1515" type="curve" smooth="yes"/>
      <point x="671" y="1515"/>
      <point x="524" y="1324"/>
      <point x="524" y="1099" type="curve" smooth="yes"/>
      <point x="524" y="1002"/>
      <point x="543" y="928"/>
      <point x="596" y="826" type="curve"/>
      <point x="377" y="720"/>
      <point x="164" y="594"/>
      <point x="164" y="325" type="curve" smooth="yes"/>
      <point x="164" y="126"/>
      <point x="318" y="-19"/>
    </contour>
    <contour>
      <point x="543" y="66" type="curve" smooth="yes"/>
      <point x="378" y="66"/>
      <point x="258" y="178"/>
      <point x="258" y="333" type="curve" smooth="yes"/>
      <point x="258" y="551"/>
      <point x="438" y="658"/>
      <point x="636" y="756" type="curve"/>
      <point x="918" y="260" type="line"/>
      <point x="804" y="138"/>
      <point x="674" y="66"/>
    </contour>
    <contour>
      <point x="671" y="862" type="curve"/>
      <point x="628" y="943"/>
      <point x="613" y="1008"/>
      <point x="613" y="1104" type="curve" smooth="yes"/>
      <point x="613" y="1290"/>
      <point x="711" y="1431"/>
      <point x="880" y="1431" type="curve" smooth="yes"/>
      <point x="990" y="1431"/>
      <point x="1063" y="1361"/>
      <point x="1063" y="1250" type="curve" smooth="yes"/>
      <point x="1063" y="1055"/>
      <point x="875" y="960"/>
    </contour>
  </outline>
</glyph>
<glyph name="quotesingle" format="2">
  <advance width="169"/>
  <unicode hex="0027"/>
  <outline>
    <contour>
      <point x="315" y="963" type="curve" smooth="yes"/>
      <point x="339" y="963"/>
      <point x="350" y="978"/>
      <point x="356" y="994" type="curve" smooth="yes"/>
      <point x="473" y="1305" type="line" smooth="yes"/>
      <point x="481" y="1326"/>
      <point x="473" y="1345"/>
      <point x="436" y="1345" type="curve" smooth="yes"/>
      <point x="403" y="1345"/>
      <point x="386" y="1326"/>
      <point x="380" y="1305" type="curve" smooth="yes"/>
      <point x="294" y="994" type="line" smooth="yes"/>
      <point x="290" y="978"/>
      <point x="285" y="963"/>
    </contour>
  </outline>
</glyph>
<glyph name="comma" format="2">
  <advance width="313"/>
  <unicode hex="002C"/>
  <outline>
    <contour>
      <point x="93" y="90" type="curve" smooth="yes"/>
      <point x="62" y="90"/>
      <point x="42" y="71"/>
      <point x="42" y="46" type="curve" smooth="yes"/>
      <point x="42" y="-37"/>
      <point x="-11" y="-147"/>
      <point x="-84" y="-234" type="curve" smooth="yes"/>
      <point x="-90" y="-241"/>
      <point x="-91" y="-248"/>
      <point x="-91" y="-254" type="curve" smooth="yes"/>
      <point x="-91" y="-268"/>
      <point x="-71" y="-284"/>
      <point x="-58" y="-284" type="curve" smooth="yes"/>
      <point x="-50" y="-284"/>
      <point x="-40" y="-281"/>
      <point x="-29" y="-272" type="curve" smooth="yes"/>
      <point x="56" y="-204"/>
      <point x="141" y="-69"/>
      <point x="141" y="50" type="curve" smooth="yes"/>
      <point x="141" y="72"/>
      <point x="126" y="90"/>
    </contour>
  </outline>
</glyph>
<glyph name="period" format="2">
  <advance width="313"/>
  <unicode hex="002E"/>
  <outline>
    <contour>
      <point x="80" y="-34" type="curve" smooth="yes"/>
      <point x="126" y="-34"/>
      <point x="149" y="-5"/>
      <point x="149" y="44" type="curve" smooth="yes"/>
      <point x="149" y="76"/>
      <point x="130" y="96"/>
      <point x="90" y="96" type="curve" smooth="yes"/>
      <point x="45" y="96"/>
      <point x="23" y="68"/>
      <point x="23" y="19" type="curve" smooth="yes"/>
      <point x="23" y="-14"/>
      <point x="41" y="-34"/>
    </contour>
  </outline>
</glyph>
<glyph name="one" format="2">
  <advance width="696"/>
  <unicode hex="0031"/>
  <outline>
    <contour>
      <point x="299" y="-14" type="curve" smooth="yes"/>
      <point x="328" y="-14"/>
      <point x="346" y="-7"/>
      <point x="353" y="14" type="curve" smooth="yes"/>
      <point x="823" y="1485" type="line" smooth="yes"/>
      <point x="829" y="1505"/>
      <point x="815" y="1515"/>
      <point x="788" y="1515" type="curve" smooth="yes"/>
      <point x="745" y="1515"/>
      <point x="731" y="1506"/>
      <point x="699" y="1479" type="curve" smooth="yes"/>
      <point x="603" y="1396"/>
      <point x="471" y="1306"/>
      <point x="365" y="1248" type="curve" smooth="yes"/>
      <point x="345" y="1236"/>
      <point x="340" y="1221"/>
      <point x="351" y="1199" type="curve" smooth="yes"/>
      <point x="363" y="1175"/>
      <point x="379" y="1171"/>
      <point x="401" y="1183" type="curve" smooth="yes"/>
      <point x="495" y="1231"/>
      <point x="605" y="1305"/>
      <point x="701" y="1381" type="curve"/>
      <point x="264" y="16" type="line" smooth="yes"/>
      <point x="258" y="-4"/>
      <point x="273" y="-14"/>
    </contour>
  </outline>
</glyph>
<glyph name="three" format="2">
  <advance width="1126"/>
  <unicode hex="0033"/>
  <outline>
    <contour>
      <point x="544" y="-19" type="curve" smooth="yes"/>
      <point x="858" y="-19"/>
      <point x="1060" y="171"/>
      <point x="1060" y="445" type="curve" smooth="yes"/>
      <point x="1060" y="623"/>
      <point x="965" y="754"/>
      <point x="830" y="790" type="curve"/>
      <point x="1074" y="834"/>
      <point x="1199" y="970"/>
      <point x="1199" y="1179" type="curve" smooth="yes"/>
      <point x="1199" y="1408"/>
      <point x="1039" y="1515"/>
      <point x="846" y="1515" type="curve" smooth="yes"/>
      <point x="704" y="1515"/>
      <point x="541" y="1461"/>
      <point x="440" y="1353" type="curve" smooth="yes"/>
      <point x="414" y="1324"/>
      <point x="408" y="1310"/>
      <point x="430" y="1289" type="curve" smooth="yes"/>
      <point x="455" y="1266"/>
      <point x="465" y="1266"/>
      <point x="489" y="1290" type="curve" smooth="yes"/>
      <point x="599" y="1401"/>
      <point x="721" y="1435"/>
      <point x="846" y="1435" type="curve" smooth="yes"/>
      <point x="989" y="1435"/>
      <point x="1108" y="1356"/>
      <point x="1108" y="1179" type="curve" smooth="yes"/>
      <point x="1108" y="946"/>
      <point x="920" y="839"/>
      <point x="678" y="839" type="curve" smooth="yes"/>
      <point x="571" y="839" type="line" smooth="yes"/>
      <point x="556" y="839"/>
      <point x="543" y="825"/>
      <point x="535" y="799" type="curve" smooth="yes"/>
      <point x="528" y="771"/>
      <point x="534" y="759"/>
      <point x="549" y="759" type="curve" smooth="yes"/>
      <point x="655" y="759" type="line" smooth="yes"/>
      <point x="846" y="759"/>
      <point x="968" y="645"/>
      <point x="968" y="445" type="curve" smooth="yes"/>
      <point x="968" y="218"/>
      <point x="808" y="61"/>
      <point x="544" y="61" type="curve" smooth="yes"/>
      <point x="384" y="61"/>
      <point x="245" y="149"/>
      <point x="179" y="306" type="curve" smooth="yes"/>
      <point x="166" y="336"/>
      <point x="158" y="343"/>
      <point x="128" y="331" type="curve" smooth="yes"/>
      <point x="95" y="319"/>
      <point x="95" y="304"/>
      <point x="110" y="266" type="curve" smooth="yes"/>
      <point x="179" y="99"/>
      <point x="349" y="-19"/>
    </contour>
  </outline>
</glyph>
<glyph name="five" format="2">
  <advance width="1126"/>
  <unicode hex="0035"/>
  <outline>
    <contour>
      <point x="564" y="-19" type="curve" smooth="yes"/>
      <point x="868" y="-19"/>
      <point x="1101" y="200"/>
      <point x="1101" y="561" type="curve" smooth="yes"/>
      <point x="1101" y="809"/>
      <point x="950" y="931"/>
      <point x="731" y="931" type="curve" smooth="yes"/>
      <point x="628" y="931"/>
      <point x="500" y="885"/>
      <point x="411" y="819" type="curve"/>
      <point x="613" y="1408" type="line"/>
      <point x="1266" y="1408" type="line" smooth="yes"/>
      <point x="1286" y="1408"/>
      <point x="1306" y="1431"/>
      <point x="1306" y="1468" type="curve" smooth="yes"/>
      <point x="1306" y="1480"/>
      <point x="1300" y="1488"/>
      <point x="1288" y="1488" type="curve" smooth="yes"/>
      <point x="584" y="1488" type="line" smooth="yes"/>
      <point x="565" y="1488"/>
      <point x="554" y="1476"/>
      <point x="550" y="1465" type="curve" smooth="yes"/>
      <point x="299" y="736" type="line" smooth="yes"/>
      <point x="281" y="686"/>
      <point x="340" y="684"/>
      <point x="371" y="709" type="curve" smooth="yes"/>
      <point x="473" y="790"/>
      <point x="591" y="851"/>
      <point x="731" y="851" type="curve" smooth="yes"/>
      <point x="900" y="851"/>
      <point x="1010" y="759"/>
      <point x="1010" y="561" type="curve" smooth="yes"/>
      <point x="1010" y="275"/>
      <point x="836" y="61"/>
      <point x="564" y="61" type="curve" smooth="yes"/>
      <point x="403" y="61"/>
      <point x="283" y="131"/>
      <point x="184" y="278" type="curve" smooth="yes"/>
      <point x="166" y="303"/>
      <point x="154" y="314"/>
      <point x="124" y="295" type="curve" smooth="yes"/>
      <point x="93" y="275"/>
      <point x="98" y="256"/>
      <point x="116" y="225" type="curve" smooth="yes"/>
      <point x="220" y="56"/>
      <point x="394" y="-19"/>
    </contour>
  </outline>
</glyph>
<glyph name="six" format="2">
  <advance width="1210"/>
  <unicode hex="0036"/>
  <outline>
    <contour>
      <point x="656" y="-19" type="curve" smooth="yes"/>
      <point x="961" y="-19"/>
      <point x="1185" y="199"/>
      <point x="1185" y="548" type="curve" smooth="yes"/>
      <point x="1185" y="773"/>
      <point x="1034" y="906"/>
      <point x="826" y="906" type="curve" smooth="yes"/>
      <point x="624" y="906"/>
      <point x="424" y="755"/>
      <point x="310" y="569" type="curve"/>
      <point x="330" y="491" type="line"/>
      <point x="415" y="625"/>
      <point x="614" y="829"/>
      <point x="826" y="826" type="curve" smooth="yes"/>
      <point x="969" y="824"/>
      <point x="1094" y="730"/>
      <point x="1094" y="548" type="curve" smooth="yes"/>
      <point x="1094" y="259"/>
      <point x="919" y="61"/>
      <point x="656" y="61" type="curve" smooth="yes"/>
      <point x="484" y="61"/>
      <point x="345" y="169"/>
      <point x="345" y="506" type="curve" smooth="yes"/>
      <point x="345" y="1016"/>
      <point x="705" y="1376"/>
      <point x="1223" y="1439" type="curve" smooth="yes"/>
      <point x="1254" y="1443"/>
      <point x="1269" y="1449"/>
      <point x="1265" y="1483" type="curve" smooth="yes"/>
      <point x="1263" y="1514"/>
      <point x="1250" y="1518"/>
      <point x="1214" y="1514" type="curve" smooth="yes"/>
      <point x="666" y="1451"/>
      <point x="254" y="1064"/>
      <point x="254" y="506" type="curve" smooth="yes"/>
      <point x="254" y="129"/>
      <point x="416" y="-19"/>
    </contour>
  </outline>
</glyph>
<glyph name="seven" format="2">
  <advance width="914"/>
  <unicode hex="0037"/>
  <outline>
    <contour>
      <point x="165" y="-12" type="curve" smooth="yes"/>
      <point x="196" y="-12"/>
      <point x="213" y="3"/>
      <point x="233" y="30" type="curve" smooth="yes"/>
      <point x="1250" y="1434" type="line" smooth="yes"/>
      <point x="1271" y="1464"/>
      <point x="1248" y="1488"/>
      <point x="1230" y="1488" type="curve" smooth="yes"/>
      <point x="468" y="1488" type="line" smooth="yes"/>
      <point x="448" y="1488"/>
      <point x="428" y="1464"/>
      <point x="428" y="1428" type="curve" smooth="yes"/>
      <point x="428" y="1415"/>
      <point x="434" y="1408"/>
      <point x="448" y="1408" type="curve" smooth="yes"/>
      <point x="1130" y="1408" type="line"/>
      <point x="139" y="40" type="line" smooth="yes"/>
      <point x="115" y="8"/>
      <point x="118" y="-12"/>
    </contour>
  </outline>
</glyph>
<glyph name="eight" format="2">
  <advance width="1126"/>
  <unicode hex="0038"/>
  <outline>
    <contour>
      <point x="574" y="-19" type="curve" smooth="yes"/>
      <point x="886" y="-19"/>
      <point x="1113" y="156"/>
      <point x="1113" y="399" type="curve" smooth="yes"/>
      <point x="1113" y="550"/>
      <point x="1016" y="676"/>
      <point x="841" y="799" type="curve"/>
      <point x="1110" y="904"/>
      <point x="1248" y="1039"/>
      <point x="1248" y="1201" type="curve" smooth="yes"/>
      <point x="1248" y="1384"/>
      <point x="1094" y="1515"/>
      <point x="883" y="1515" type="curve" smooth="yes"/>
      <point x="619" y="1515"/>
      <point x="428" y="1368"/>
      <point x="428" y="1164" type="curve" smooth="yes"/>
      <point x="428" y="1050"/>
      <point x="506" y="906"/>
      <point x="651" y="813" type="curve"/>
      <point x="330" y="693"/>
      <point x="166" y="531"/>
      <point x="166" y="334" type="curve" smooth="yes"/>
      <point x="166" y="129"/>
      <point x="338" y="-19"/>
    </contour>
    <contour>
      <point x="581" y="66" type="curve" smooth="yes"/>
      <point x="395" y="66"/>
      <point x="260" y="179"/>
      <point x="260" y="334" type="curve" smooth="yes"/>
      <point x="260" y="508"/>
      <point x="420" y="651"/>
      <point x="735" y="760" type="curve"/>
      <point x="919" y="649"/>
      <point x="1019" y="536"/>
      <point x="1019" y="399" type="curve" smooth="yes"/>
      <point x="1019" y="206"/>
      <point x="835" y="66"/>
    </contour>
    <contour>
      <point x="759" y="845" type="curve"/>
      <point x="606" y="935"/>
      <point x="521" y="1068"/>
      <point x="521" y="1164" type="curve" smooth="yes"/>
      <point x="521" y="1319"/>
      <point x="666" y="1430"/>
      <point x="869" y="1430" type="curve" smooth="yes"/>
      <point x="1033" y="1430"/>
      <point x="1154" y="1334"/>
      <point x="1154" y="1201" type="curve" smooth="yes"/>
      <point x="1154" y="1063"/>
      <point x="1020" y="941"/>
    </contour>
  </outline>
</glyph>
<glyph name="question" format="2">
  <advance width="846"/>
  <unicode hex="003F"/>
  <outline>
    <contour>
      <point x="313" y="216" type="curve" smooth="yes"/>
      <point x="341" y="216"/>
      <point x="359" y="225"/>
      <point x="365" y="244" type="curve" smooth="yes"/>
      <point x="483" y="605" type="line"/>
      <point x="851" y="698"/>
      <point x="1116" y="959"/>
      <point x="1116" y="1240" type="curve" smooth="yes"/>
      <point x="1116" y="1411"/>
      <point x="995" y="1515"/>
      <point x="798" y="1515" type="curve" smooth="yes"/>
      <point x="671" y="1515"/>
      <point x="496" y="1450"/>
      <point x="381" y="1360" type="curve" smooth="yes"/>
      <point x="369" y="1351"/>
      <point x="370" y="1336"/>
      <point x="381" y="1319" type="curve" smooth="yes"/>
      <point x="395" y="1298"/>
      <point x="410" y="1291"/>
      <point x="423" y="1300" type="curve" smooth="yes"/>
      <point x="539" y="1379"/>
      <point x="693" y="1435"/>
      <point x="790" y="1435" type="curve" smooth="yes"/>
      <point x="936" y="1435"/>
      <point x="1025" y="1361"/>
      <point x="1025" y="1240" type="curve" smooth="yes"/>
      <point x="1025" y="990"/>
      <point x="785" y="760"/>
      <point x="454" y="681" type="curve" smooth="yes"/>
      <point x="431" y="676"/>
      <point x="416" y="669"/>
      <point x="410" y="649" type="curve" smooth="yes"/>
      <point x="278" y="244" type="line" smooth="yes"/>
      <point x="271" y="225"/>
      <point x="284" y="216"/>
    </contour>
    <contour>
      <point x="258" y="-14" type="curve" smooth="yes"/>
      <point x="308" y="-14"/>
      <point x="329" y="25"/>
      <point x="329" y="61" type="curve" smooth="yes"/>
      <point x="329" y="95"/>
      <point x="308" y="113"/>
      <point x="280" y="113" type="curve" smooth="yes"/>
      <point x="230" y="113"/>
      <point x="209" y="74"/>
      <point x="209" y="38" type="curve" smooth="yes"/>
      <point x="209" y="4"/>
      <point x="230" y="-14"/>
    </contour>
  </outline>
</glyph>
<glyph name="at" format="2">
  <advance width="958"/>
  <unicode hex="0040"/>
  <outline>
    <contour>
      <point x="284" y="168" type="curve" smooth="yes"/>
      <point x="284" y="98"/>
      <point x="319" y="54"/>
      <point x="370" y="54" type="curve" smooth="yes"/>
      <point x="420" y="54"/>
      <point x="478" y="92"/>
      <point x="541" y="166" type="curve"/>
      <point x="537" y="152"/>
      <point x="535" y="137"/>
      <point x="535" y="123" type="curve" smooth="yes"/>
      <point x="535" y="77"/>
      <point x="575" y="55"/>
      <point x="630" y="55" type="curve" smooth="yes"/>
      <point x="748" y="55"/>
      <point x="935" y="160"/>
      <point x="935" y="365" type="curve" smooth="yes"/>
      <point x="935" y="574"/>
      <point x="776" y="698"/>
      <point x="563" y="698" type="curve" smooth="yes"/>
      <point x="241" y="698"/>
      <point x="50" y="443"/>
      <point x="50" y="181" type="curve" smooth="yes"/>
      <point x="50" y="-30"/>
      <point x="191" y="-187"/>
      <point x="416" y="-187" type="curve" smooth="yes"/>
      <point x="490" y="-187"/>
      <point x="559" y="-177"/>
      <point x="639" y="-150" type="curve" smooth="yes"/>
      <point x="655" y="-145"/>
      <point x="661" y="-131"/>
      <point x="655" y="-111" type="curve" smooth="yes"/>
      <point x="649" y="-92"/>
      <point x="635" y="-84"/>
      <point x="620" y="-89" type="curve" smooth="yes"/>
      <point x="549" y="-112"/>
      <point x="488" y="-125"/>
      <point x="424" y="-125" type="curve" smooth="yes"/>
      <point x="228" y="-125"/>
      <point x="116" y="7"/>
      <point x="116" y="185" type="curve" smooth="yes"/>
      <point x="116" y="406"/>
      <point x="266" y="635"/>
      <point x="555" y="635" type="curve" smooth="yes"/>
      <point x="743" y="635"/>
      <point x="869" y="543"/>
      <point x="869" y="364" type="curve" smooth="yes"/>
      <point x="869" y="249"/>
      <point x="775" y="125"/>
      <point x="645" y="125" type="curve" smooth="yes"/>
      <point x="615" y="125"/>
      <point x="609" y="143"/>
      <point x="624" y="186" type="curve" smooth="yes"/>
      <point x="706" y="430" type="line" smooth="yes"/>
      <point x="714" y="453"/>
      <point x="705" y="464"/>
      <point x="671" y="464" type="curve" smooth="yes"/>
      <point x="654" y="464"/>
      <point x="643" y="459"/>
      <point x="634" y="450" type="curve"/>
      <point x="631" y="448" type="line"/>
      <point x="601" y="460"/>
      <point x="568" y="468"/>
      <point x="540" y="468" type="curve" smooth="yes"/>
      <point x="376" y="468"/>
      <point x="284" y="284"/>
    </contour>
    <contour>
      <point x="368" y="184" type="curve" smooth="yes"/>
      <point x="368" y="256"/>
      <point x="424" y="395"/>
      <point x="528" y="395" type="curve" smooth="yes"/>
      <point x="558" y="395"/>
      <point x="584" y="391"/>
      <point x="610" y="383" type="curve"/>
      <point x="603" y="363" type="line"/>
      <point x="524" y="213"/>
      <point x="448" y="128"/>
      <point x="399" y="128" type="curve" smooth="yes"/>
      <point x="380" y="128"/>
      <point x="368" y="149"/>
    </contour>
  </outline>
</glyph>
<glyph name="C" format="2">
  <advance width="1200"/>
  <unicode hex="0043"/>
  <anchor x="592" y="0" name="bottom"/>
  <anchor x="1034" y="1424" name="top"/>
  <outline>
    <contour>
      <point x="658" y="-19" type="curve" smooth="yes"/>
      <point x="829" y="-19"/>
      <point x="1012" y="96"/>
      <point x="1192" y="331" type="curve" smooth="yes"/>
      <point x="1207" y="351"/>
      <point x="1204" y="361"/>
      <point x="1187" y="379" type="curve" smooth="yes"/>
      <point x="1172" y="394"/>
      <point x="1157" y="404"/>
      <point x="1142" y="388" type="curve" smooth="yes"/>
      <point x="989" y="214"/>
      <point x="844" y="66"/>
      <point x="670" y="66" type="curve" smooth="yes"/>
      <point x="459" y="66"/>
      <point x="345" y="213"/>
      <point x="345" y="488" type="curve" smooth="yes"/>
      <point x="345" y="903"/>
      <point x="642" y="1430"/>
      <point x="1057" y="1430" type="curve" smooth="yes"/>
      <point x="1214" y="1430"/>
      <point x="1287" y="1389"/>
      <point x="1372" y="1296" type="curve" smooth="yes"/>
      <point x="1389" y="1280"/>
      <point x="1400" y="1284"/>
      <point x="1418" y="1298" type="curve" smooth="yes"/>
      <point x="1437" y="1313"/>
      <point x="1443" y="1321"/>
      <point x="1433" y="1336" type="curve" smooth="yes"/>
      <point x="1354" y="1454"/>
      <point x="1238" y="1515"/>
      <point x="1069" y="1515" type="curve" smooth="yes"/>
      <point x="559" y="1515"/>
      <point x="252" y="925"/>
      <point x="252" y="480" type="curve" smooth="yes"/>
      <point x="252" y="159"/>
      <point x="405" y="-19"/>
    </contour>
  </outline>
</glyph>
<glyph name="D" format="2">
  <advance width="1346"/>
  <unicode hex="0044"/>
  <anchor x="584" y="0" name="bottom"/>
  <anchor x="459" y="748" name="center"/>
  <anchor x="985" y="1424" name="top"/>
  <outline>
    <contour>
      <point x="180" y="0" type="curve" smooth="yes"/>
      <point x="440" y="0" type="line" smooth="yes"/>
      <point x="1023" y="0"/>
      <point x="1418" y="438"/>
      <point x="1418" y="1041" type="curve" smooth="yes"/>
      <point x="1418" y="1321"/>
      <point x="1240" y="1488"/>
      <point x="915" y="1488" type="curve" smooth="yes"/>
      <point x="661" y="1488" type="line" smooth="yes"/>
      <point x="633" y="1488"/>
      <point x="615" y="1479"/>
      <point x="609" y="1460" type="curve" smooth="yes"/>
      <point x="145" y="28" type="line" smooth="yes"/>
      <point x="139" y="9"/>
      <point x="151" y="0"/>
    </contour>
    <contour>
      <point x="251" y="85" type="line"/>
      <point x="678" y="1403" type="line"/>
      <point x="913" y="1403" type="line" smooth="yes"/>
      <point x="1176" y="1403"/>
      <point x="1318" y="1268"/>
      <point x="1318" y="1039" type="curve" smooth="yes"/>
      <point x="1318" y="485"/>
      <point x="965" y="85"/>
      <point x="440" y="85" type="curve" smooth="yes"/>
    </contour>
  </outline>
</glyph>
<glyph name="F" format="2">
  <advance width="968"/>
  <unicode hex="0046"/>
  <outline>
    <contour>
      <point x="174" y="-14" type="curve"/>
      <point x="203" y="-14"/>
      <point x="223" y="-5"/>
      <point x="229" y="14" type="curve" smooth="yes"/>
      <point x="451" y="704" type="line"/>
      <point x="969" y="704" type="line" smooth="yes"/>
      <point x="984" y="704"/>
      <point x="998" y="716"/>
      <point x="1006" y="743" type="curve" smooth="yes"/>
      <point x="1015" y="769"/>
      <point x="1010" y="784"/>
      <point x="995" y="784" type="curve" smooth="yes"/>
      <point x="478" y="784" type="line"/>
      <point x="680" y="1408" type="line"/>
      <point x="1291" y="1408" type="line" smooth="yes"/>
      <point x="1306" y="1408"/>
      <point x="1320" y="1421"/>
      <point x="1328" y="1448" type="curve" smooth="yes"/>
      <point x="1335" y="1475"/>
      <point x="1329" y="1488"/>
      <point x="1314" y="1488" type="curve" smooth="yes"/>
      <point x="663" y="1488" type="line" smooth="yes"/>
      <point x="634" y="1488"/>
      <point x="615" y="1479"/>
      <point x="609" y="1460" type="curve" smooth="yes"/>
      <point x="140" y="14" type="line" smooth="yes"/>
      <point x="134" y="-5"/>
      <point x="145" y="-14"/>
    </contour>
  </outline>
</glyph>
<glyph name="J" format="2">
  <advance width="1006"/>
  <unicode hex="004A"/>
  <anchor x="423" y="0" name="bottom"/>
  <anchor x="1143" y="1424" name="top"/>
  <outline>
    <contour>
      <point x="426" y="-19" type="curve" smooth="yes"/>
      <point x="639" y="-19"/>
      <point x="774" y="118"/>
      <point x="878" y="438" type="curve" smooth="yes"/>
      <point x="1218" y="1488" type="line" smooth="yes"/>
      <point x="1224" y="1506"/>
      <point x="1211" y="1515"/>
      <point x="1183" y="1515" type="curve" smooth="yes"/>
      <point x="1154" y="1515"/>
      <point x="1136" y="1506"/>
      <point x="1130" y="1488" type="curve" smooth="yes"/>
      <point x="796" y="463" type="line" smooth="yes"/>
      <point x="703" y="175"/>
      <point x="601" y="66"/>
      <point x="430" y="66" type="curve" smooth="yes"/>
      <point x="310" y="66"/>
      <point x="228" y="145"/>
      <point x="181" y="279" type="curve" smooth="yes"/>
      <point x="173" y="305"/>
      <point x="166" y="321"/>
      <point x="130" y="311" type="curve" smooth="yes"/>
      <point x="104" y="304"/>
      <point x="89" y="295"/>
      <point x="98" y="264" type="curve" smooth="yes"/>
      <point x="141" y="100"/>
      <point x="269" y="-19"/>
    </contour>
  </outline>
</glyph>
<glyph name="K" format="2">
  <advance width="1067"/>
  <unicode hex="004B"/>
  <anchor x="512" y="0" name="bottom"/>
  <anchor x="977" y="1424" name="top"/>
  <outline>
    <contour>
      <point x="173" y="-24" type="curve" smooth="yes"/>
      <point x="202" y="-24"/>
      <point x="223" y="-15"/>
      <point x="231" y="9" type="curve" smooth="yes"/>
      <point x="475" y="761" type="line"/>
      <point x="587" y="468"/>
      <point x="730" y="229"/>
      <point x="900" y="-2" type="curve" smooth="yes"/>
      <point x="917" y="-26"/>
      <point x="936" y="-36"/>
      <point x="960" y="-19" type="curve" smooth="yes"/>
      <point x="988" y="3"/>
      <point x="992" y="16"/>
      <point x="971" y="45" type="curve" smooth="yes"/>
      <point x="806" y="268"/>
      <point x="671" y="493"/>
      <point x="556" y="774" type="curve"/>
      <point x="1353" y="1431" type="line" smooth="yes"/>
      <point x="1380" y="1451"/>
      <point x="1381" y="1465"/>
      <point x="1363" y="1489" type="curve" smooth="yes"/>
      <point x="1343" y="1516"/>
      <point x="1328" y="1514"/>
      <point x="1300" y="1490" type="curve" smooth="yes"/>
      <point x="493" y="821" type="line"/>
      <point x="708" y="1481" type="line" smooth="yes"/>
      <point x="716" y="1504"/>
      <point x="703" y="1513"/>
      <point x="672" y="1513" type="curve" smooth="yes"/>
      <point x="641" y="1513"/>
      <point x="625" y="1504"/>
      <point x="617" y="1481" type="curve" smooth="yes"/>
      <point x="138" y="9" type="line" smooth="yes"/>
      <point x="130" y="-16"/>
      <point x="146" y="-24"/>
    </contour>
  </outline>
</glyph>
<glyph name="R" format="2">
  <advance width="1075"/>
  <unicode hex="0052"/>
  <anchor x="514" y="0" name="bottom"/>
  <anchor x="918" y="1424" name="top"/>
  <outline>
    <contour>
      <point x="180" y="-14" type="curve" smooth="yes"/>
      <point x="210" y="-14"/>
      <point x="223" y="-5"/>
      <point x="229" y="14" type="curve" smooth="yes"/>
      <point x="444" y="681" type="line"/>
      <point x="550" y="449"/>
      <point x="671" y="193"/>
      <point x="864" y="0" type="curve" smooth="yes"/>
      <point x="880" y="-16"/>
      <point x="900" y="-21"/>
      <point x="920" y="-4" type="curve" smooth="yes"/>
      <point x="950" y="23"/>
      <point x="939" y="40"/>
      <point x="928" y="51" type="curve" smooth="yes"/>
      <point x="741" y="238"/>
      <point x="636" y="459"/>
      <point x="535" y="686" type="curve"/>
      <point x="999" y="709"/>
      <point x="1270" y="901"/>
      <point x="1270" y="1208" type="curve" smooth="yes"/>
      <point x="1270" y="1418"/>
      <point x="1145" y="1488"/>
      <point x="884" y="1488" type="curve" smooth="yes"/>
      <point x="660" y="1488" type="line" smooth="yes"/>
      <point x="630" y="1488"/>
      <point x="615" y="1479"/>
      <point x="609" y="1460" type="curve" smooth="yes"/>
      <point x="141" y="16" type="line" smooth="yes"/>
      <point x="135" y="-5"/>
      <point x="150" y="-14"/>
    </contour>
    <contour>
      <point x="470" y="760" type="curve"/>
      <point x="680" y="1408" type="line"/>
      <point x="875" y="1408" type="line" smooth="yes"/>
      <point x="1089" y="1408"/>
      <point x="1180" y="1359"/>
      <point x="1180" y="1204" type="curve" smooth="yes"/>
      <point x="1180" y="925"/>
      <point x="913" y="760"/>
    </contour>
  </outline>
</glyph>
<glyph name="V" format="2">
  <advance width="1124"/>
  <unicode hex="0056"/>
  <outline>
    <contour>
      <point x="500" y="-14" type="curve" smooth="yes"/>
      <point x="533" y="-14"/>
      <point x="550" y="-4"/>
      <point x="569" y="26" type="curve" smooth="yes"/>
      <point x="1476" y="1463" type="line" smooth="yes"/>
      <point x="1495" y="1491"/>
      <point x="1484" y="1515"/>
      <point x="1449" y="1515" type="curve" smooth="yes"/>
      <point x="1415" y="1515"/>
      <point x="1406" y="1510"/>
      <point x="1384" y="1475" type="curve" smooth="yes"/>
      <point x="539" y="128" type="line"/>
      <point x="525" y="1479" type="line" smooth="yes"/>
      <point x="525" y="1505"/>
      <point x="518" y="1515"/>
      <point x="488" y="1515" type="curve" smooth="yes"/>
      <point x="453" y="1515"/>
      <point x="439" y="1498"/>
      <point x="439" y="1470" type="curve" smooth="yes"/>
      <point x="458" y="38" type="line" smooth="yes"/>
      <point x="458" y="-1"/>
      <point x="475" y="-14"/>
    </contour>
  </outline>
</glyph>
<glyph name="X" format="2">
  <advance width="1063"/>
  <unicode hex="0058"/>
  <outline>
    <contour>
      <point x="905" y="-14" type="curve"/>
      <point x="934" y="-14"/>
      <point x="949" y="9"/>
      <point x="939" y="45" type="curve" smooth="yes"/>
      <point x="743" y="745" type="line"/>
      <point x="1385" y="1455" type="line" smooth="yes"/>
      <point x="1419" y="1491"/>
      <point x="1393" y="1514"/>
      <point x="1366" y="1514" type="curve" smooth="yes"/>
      <point x="1341" y="1514"/>
      <point x="1325" y="1509"/>
      <point x="1299" y="1480" type="curve" smooth="yes"/>
      <point x="718" y="834" type="line"/>
      <point x="538" y="1480" type="line" smooth="yes"/>
      <point x="530" y="1509"/>
      <point x="518" y="1514"/>
      <point x="491" y="1514" type="curve" smooth="yes"/>
      <point x="463" y="1514"/>
      <point x="448" y="1491"/>
      <point x="458" y="1455" type="curve" smooth="yes"/>
      <point x="646" y="778" type="line"/>
      <point x="-15" y="45" type="line" smooth="yes"/>
      <point x="-47" y="9"/>
      <point x="-22" y="-14"/>
      <point x="4" y="-14" type="curve" smooth="yes"/>
      <point x="29" y="-14"/>
      <point x="48" y="-7"/>
      <point x="73" y="20" type="curve" smooth="yes"/>
      <point x="671" y="686" type="line"/>
      <point x="859" y="20" type="line" smooth="yes"/>
      <point x="866" y="-9"/>
      <point x="879" y="-14"/>
    </contour>
  </outline>
</glyph>
<glyph name="b" format="2">
  <advance width="598"/>
  <unicode hex="0062"/>
  <anchor x="250" y="0" name="bottom"/>
  <anchor x="331" y="250" name="center"/>
  <anchor x="413" y="500" name="top"/>
  <outline>
    <contour>
      <point x="63" y="-15" type="curve" smooth="yes"/>
      <point x="93" y="-15"/>
      <point x="104" y="-7"/>
      <point x="110" y="11" type="curve" smooth="yes"/>
      <point x="111" y="16" type="line"/>
      <point x="151" y="-4"/>
      <point x="195" y="-17"/>
      <point x="236" y="-17" type="curve" smooth="yes"/>
      <point x="438" y="-17"/>
      <point x="563" y="219"/>
      <point x="563" y="371" type="curve" smooth="yes"/>
      <point x="563" y="463"/>
      <point x="518" y="519"/>
      <point x="450" y="519" type="curve" smooth="yes"/>
      <point x="380" y="519"/>
      <point x="303" y="465"/>
      <point x="221" y="353" type="curve"/>
      <point x="589" y="1476" type="line" smooth="yes"/>
      <point x="598" y="1503"/>
      <point x="589" y="1515"/>
      <point x="548" y="1515" type="curve" smooth="yes"/>
      <point x="521" y="1515"/>
      <point x="511" y="1509"/>
      <point x="503" y="1483" type="curve" smooth="yes"/>
      <point x="25" y="18" type="line" smooth="yes"/>
      <point x="18" y="-6"/>
      <point x="41" y="-15"/>
    </contour>
    <contour>
      <point x="134" y="84" type="curve"/>
      <point x="151" y="139" type="line"/>
      <point x="254" y="333"/>
      <point x="349" y="439"/>
      <point x="421" y="439" type="curve" smooth="yes"/>
      <point x="453" y="439"/>
      <point x="471" y="406"/>
      <point x="471" y="355" type="curve" smooth="yes"/>
      <point x="471" y="250"/>
      <point x="386" y="61"/>
      <point x="246" y="61" type="curve" smooth="yes"/>
      <point x="213" y="61"/>
      <point x="176" y="66"/>
    </contour>
  </outline>
</glyph>
<glyph name="h" format="2">
  <advance width="651"/>
  <unicode hex="0068"/>
  <anchor x="260" y="0" name="bottom"/>
  <anchor x="401" y="948" name="center"/>
  <anchor x="526" y="1424" name="top"/>
  <outline>
    <contour>
      <point x="463" y="-15" type="curve" smooth="yes"/>
      <point x="535" y="-15"/>
      <point x="588" y="50"/>
      <point x="606" y="81" type="curve" smooth="yes"/>
      <point x="614" y="94"/>
      <point x="610" y="108"/>
      <point x="589" y="121" type="curve" smooth="yes"/>
      <point x="574" y="131"/>
      <point x="564" y="129"/>
      <point x="554" y="116" type="curve" smooth="yes"/>
      <point x="526" y="83"/>
      <point x="501" y="61"/>
      <point x="483" y="61" type="curve" smooth="yes"/>
      <point x="471" y="61"/>
      <point x="464" y="66"/>
      <point x="476" y="104" type="curve" smooth="yes"/>
      <point x="551" y="321" type="line" smooth="yes"/>
      <point x="595" y="450"/>
      <point x="564" y="519"/>
      <point x="474" y="519" type="curve" smooth="yes"/>
      <point x="384" y="519"/>
      <point x="293" y="448"/>
      <point x="211" y="320" type="curve"/>
      <point x="588" y="1476" type="line" smooth="yes"/>
      <point x="596" y="1503"/>
      <point x="588" y="1515"/>
      <point x="546" y="1515" type="curve" smooth="yes"/>
      <point x="520" y="1515"/>
      <point x="510" y="1509"/>
      <point x="501" y="1483" type="curve" smooth="yes"/>
      <point x="25" y="18" type="line" smooth="yes"/>
      <point x="18" y="-6"/>
      <point x="41" y="-15"/>
      <point x="63" y="-15" type="curve" smooth="yes"/>
      <point x="93" y="-15"/>
      <point x="104" y="-7"/>
      <point x="110" y="11" type="curve" smooth="yes"/>
      <point x="120" y="44" type="line"/>
      <point x="216" y="274"/>
      <point x="351" y="439"/>
      <point x="441" y="439" type="curve" smooth="yes"/>
      <point x="490" y="439"/>
      <point x="488" y="395"/>
      <point x="470" y="344" type="curve" smooth="yes"/>
      <point x="403" y="148" type="line" smooth="yes"/>
      <point x="381" y="85"/>
      <point x="359" y="-15"/>
    </contour>
  </outline>
</glyph>
<glyph name="p" format="2">
  <advance width="599"/>
  <unicode hex="0070"/>
  <outline>
    <contour>
      <point x="-261" y="-1015" type="curve" smooth="yes"/>
      <point x="-231" y="-1015"/>
      <point x="-220" y="-1007"/>
      <point x="-214" y="-989" type="curve" smooth="yes"/>
      <point x="112" y="16" type="line"/>
      <point x="151" y="-2"/>
      <point x="196" y="-17"/>
      <point x="237" y="-17" type="curve" smooth="yes"/>
      <point x="439" y="-17"/>
      <point x="564" y="219"/>
      <point x="564" y="371" type="curve" smooth="yes"/>
      <point x="564" y="463"/>
      <point x="519" y="519"/>
      <point x="451" y="519" type="curve" smooth="yes"/>
      <point x="381" y="519"/>
      <point x="304" y="464"/>
      <point x="221" y="351" type="curve"/>
      <point x="262" y="476" type="line" smooth="yes"/>
      <point x="271" y="503"/>
      <point x="262" y="515"/>
      <point x="221" y="515" type="curve" smooth="yes"/>
      <point x="195" y="515"/>
      <point x="185" y="510"/>
      <point x="176" y="483" type="curve" smooth="yes"/>
      <point x="-299" y="-982" type="line" smooth="yes"/>
      <point x="-308" y="-1007"/>
      <point x="-283" y="-1015"/>
    </contour>
    <contour>
      <point x="135" y="84" type="curve"/>
      <point x="151" y="136" type="line"/>
      <point x="255" y="333"/>
      <point x="350" y="439"/>
      <point x="422" y="439" type="curve" smooth="yes"/>
      <point x="454" y="439"/>
      <point x="472" y="406"/>
      <point x="472" y="355" type="curve" smooth="yes"/>
      <point x="472" y="250"/>
      <point x="387" y="61"/>
      <point x="247" y="61" type="curve" smooth="yes"/>
      <point x="214" y="61"/>
      <point x="177" y="66"/>
    </contour>
  </outline>
</glyph>
<glyph name="y" format="2">
  <advance width="615"/>
  <unicode hex="0079"/>
  <guideline y="-815"/>
  <anchor x="226" y="0" name="bottom"/>
  <anchor x="371" y="500" name="top"/>
  <outline>
    <contour>
      <point x="149" y="-15" type="curve" smooth="yes"/>
      <point x="240" y="-15"/>
      <point x="333" y="58"/>
      <point x="414" y="188" type="curve"/>
      <point x="104" y="-770" type="line" smooth="yes"/>
      <point x="64" y="-894"/>
      <point x="25" y="-939"/>
      <point x="-59" y="-939" type="curve" smooth="yes"/>
      <point x="-111" y="-939"/>
      <point x="-154" y="-917"/>
      <point x="-187" y="-890" type="curve" smooth="yes"/>
      <point x="-210" y="-870"/>
      <point x="-220" y="-872"/>
      <point x="-244" y="-892" type="curve" smooth="yes"/>
      <point x="-271" y="-916"/>
      <point x="-260" y="-934"/>
      <point x="-237" y="-952" type="curve" smooth="yes"/>
      <point x="-195" y="-987"/>
      <point x="-136" y="-1016"/>
      <point x="-64" y="-1016" type="curve" smooth="yes"/>
      <point x="74" y="-1016"/>
      <point x="128" y="-960"/>
      <point x="189" y="-772" type="curve" smooth="yes"/>
      <point x="596" y="476" type="line" smooth="yes"/>
      <point x="605" y="503"/>
      <point x="596" y="515"/>
      <point x="555" y="515" type="curve" smooth="yes"/>
      <point x="529" y="515"/>
      <point x="519" y="510"/>
      <point x="510" y="483" type="curve" smooth="yes"/>
      <point x="505" y="468" type="line" smooth="yes"/>
      <point x="409" y="234"/>
      <point x="273" y="65"/>
      <point x="181" y="65" type="curve" smooth="yes"/>
      <point x="126" y="65"/>
      <point x="131" y="109"/>
      <point x="149" y="160" type="curve" smooth="yes"/>
      <point x="255" y="476" type="line" smooth="yes"/>
      <point x="264" y="503"/>
      <point x="255" y="515"/>
      <point x="214" y="515" type="curve" smooth="yes"/>
      <point x="188" y="515"/>
      <point x="178" y="510"/>
      <point x="169" y="483" type="curve" smooth="yes"/>
      <point x="69" y="183" type="line" smooth="yes"/>
      <point x="26" y="54"/>
      <point x="56" y="-15"/>
    </contour>
  </outline>
</glyph>
<glyph name="sterling" format="2">
  <advance width="1046"/>
  <unicode hex="00A3"/>
  <outline>
    <contour>
      <point x="14" y="0" type="curve" smooth="yes"/>
      <point x="899" y="0" type="line" smooth="yes"/>
      <point x="921" y="0"/>
      <point x="931" y="14"/>
      <point x="940" y="43" type="curve" smooth="yes"/>
      <point x="949" y="71"/>
      <point x="944" y="80"/>
      <point x="925" y="80" type="curve" smooth="yes"/>
      <point x="333" y="80" type="line"/>
      <point x="503" y="603" type="line"/>
      <point x="845" y="603" type="line" smooth="yes"/>
      <point x="868" y="603"/>
      <point x="878" y="616"/>
      <point x="886" y="645" type="curve" smooth="yes"/>
      <point x="895" y="674"/>
      <point x="890" y="683"/>
      <point x="871" y="683" type="curve" smooth="yes"/>
      <point x="529" y="683" type="line"/>
      <point x="704" y="1220" type="line" smooth="yes"/>
      <point x="749" y="1356"/>
      <point x="823" y="1434"/>
      <point x="940" y="1434" type="curve" smooth="yes"/>
      <point x="1020" y="1434"/>
      <point x="1124" y="1385"/>
      <point x="1214" y="1306" type="curve" smooth="yes"/>
      <point x="1234" y="1289"/>
      <point x="1250" y="1288"/>
      <point x="1270" y="1308" type="curve" smooth="yes"/>
      <point x="1291" y="1329"/>
      <point x="1291" y="1343"/>
      <point x="1274" y="1360" type="curve" smooth="yes"/>
      <point x="1175" y="1456"/>
      <point x="1050" y="1515"/>
      <point x="945" y="1515" type="curve" smooth="yes"/>
      <point x="783" y="1515"/>
      <point x="681" y="1415"/>
      <point x="619" y="1226" type="curve" smooth="yes"/>
      <point x="441" y="683" type="line"/>
      <point x="270" y="683" type="line" smooth="yes"/>
      <point x="251" y="683"/>
      <point x="240" y="675"/>
      <point x="230" y="645" type="curve" smooth="yes"/>
      <point x="221" y="618"/>
      <point x="221" y="603"/>
      <point x="244" y="603" type="curve" smooth="yes"/>
      <point x="415" y="603" type="line"/>
      <point x="245" y="80" type="line"/>
      <point x="40" y="80" type="line" smooth="yes"/>
      <point x="21" y="80"/>
      <point x="10" y="73"/>
      <point x="0" y="43" type="curve" smooth="yes"/>
      <point x="-9" y="15"/>
      <point x="-9" y="0"/>
    </contour>
  </outline>
</glyph>
<glyph name="section" format="2">
  <advance width="1033"/>
  <unicode hex="00A7"/>
  <outline>
    <contour>
      <point x="339" y="-670" type="curve" smooth="yes"/>
      <point x="585" y="-670"/>
      <point x="764" y="-489"/>
      <point x="764" y="-237" type="curve" smooth="yes"/>
      <point x="764" y="-133"/>
      <point x="730" y="-53"/>
      <point x="680" y="15" type="curve"/>
      <point x="870" y="88"/>
      <point x="1023" y="215"/>
      <point x="1023" y="429" type="curve" smooth="yes"/>
      <point x="1023" y="756"/>
      <point x="555" y="826"/>
      <point x="555" y="1153" type="curve" smooth="yes"/>
      <point x="555" y="1314"/>
      <point x="665" y="1430"/>
      <point x="818" y="1430" type="curve" smooth="yes"/>
      <point x="934" y="1430"/>
      <point x="1044" y="1365"/>
      <point x="1131" y="1264" type="curve" smooth="yes"/>
      <point x="1141" y="1251"/>
      <point x="1160" y="1253"/>
      <point x="1176" y="1266" type="curve" smooth="yes"/>
      <point x="1196" y="1284"/>
      <point x="1200" y="1295"/>
      <point x="1188" y="1311" type="curve" smooth="yes"/>
      <point x="1110" y="1421"/>
      <point x="961" y="1515"/>
      <point x="823" y="1515" type="curve" smooth="yes"/>
      <point x="614" y="1515"/>
      <point x="463" y="1361"/>
      <point x="463" y="1148" type="curve" smooth="yes"/>
      <point x="463" y="1044"/>
      <point x="499" y="964"/>
      <point x="551" y="896" type="curve"/>
      <point x="362" y="822"/>
      <point x="213" y="698"/>
      <point x="213" y="481" type="curve" smooth="yes"/>
      <point x="213" y="158"/>
      <point x="671" y="88"/>
      <point x="671" y="-244" type="curve" smooth="yes"/>
      <point x="671" y="-441"/>
      <point x="534" y="-585"/>
      <point x="344" y="-585" type="curve" smooth="yes"/>
      <point x="205" y="-585"/>
      <point x="83" y="-509"/>
      <point x="15" y="-412" type="curve" smooth="yes"/>
      <point x="5" y="-397"/>
      <point x="-11" y="-397"/>
      <point x="-31" y="-414" type="curve" smooth="yes"/>
      <point x="-51" y="-430"/>
      <point x="-56" y="-441"/>
      <point x="-47" y="-456" type="curve" smooth="yes"/>
      <point x="9" y="-547"/>
      <point x="153" y="-670"/>
    </contour>
    <contour>
      <point x="633" y="71" type="curve"/>
      <point x="498" y="216"/>
      <point x="305" y="307"/>
      <point x="305" y="488" type="curve" smooth="yes"/>
      <point x="305" y="649"/>
      <point x="403" y="768"/>
      <point x="598" y="841" type="curve"/>
      <point x="736" y="697"/>
      <point x="930" y="604"/>
      <point x="930" y="423" type="curve" smooth="yes"/>
      <point x="930" y="252"/>
      <point x="814" y="140"/>
    </contour>
  </outline>
</glyph>
<glyph name="paragraph" format="2">
  <advance width="1230"/>
  <unicode hex="00B6"/>
  <outline>
    <contour>
      <point x="423" y="-390" type="curve" smooth="yes"/>
      <point x="451" y="-390"/>
      <point x="469" y="-381"/>
      <point x="475" y="-362" type="curve" smooth="yes"/>
      <point x="1051" y="1408" type="line"/>
      <point x="1258" y="1408" type="line"/>
      <point x="681" y="-362" type="line" smooth="yes"/>
      <point x="675" y="-381"/>
      <point x="688" y="-390"/>
      <point x="716" y="-390" type="curve" smooth="yes"/>
      <point x="745" y="-390"/>
      <point x="763" y="-381"/>
      <point x="769" y="-362" type="curve" smooth="yes"/>
      <point x="1345" y="1408" type="line"/>
      <point x="1508" y="1408" type="line" smooth="yes"/>
      <point x="1528" y="1408"/>
      <point x="1538" y="1418"/>
      <point x="1548" y="1448" type="curve" smooth="yes"/>
      <point x="1558" y="1478"/>
      <point x="1553" y="1488"/>
      <point x="1533" y="1488" type="curve" smooth="yes"/>
      <point x="928" y="1488" type="line" smooth="yes"/>
      <point x="566" y="1488"/>
      <point x="304" y="1241"/>
      <point x="304" y="899" type="curve" smooth="yes"/>
      <point x="304" y="704"/>
      <point x="449" y="574"/>
      <point x="690" y="574" type="curve" smooth="yes"/>
      <point x="692" y="574" type="line"/>
      <point x="388" y="-362" type="line" smooth="yes"/>
      <point x="382" y="-381"/>
      <point x="394" y="-390"/>
    </contour>
  </outline>
</glyph>
<glyph name="Thorn" format="2">
  <advance width="1113"/>
  <unicode hex="00DE"/>
  <outline>
    <contour>
      <point x="180" y="-14" type="curve" smooth="yes"/>
      <point x="210" y="-14"/>
      <point x="223" y="-4"/>
      <point x="229" y="14" type="curve" smooth="yes"/>
      <point x="343" y="365" type="line"/>
      <point x="441" y="369"/>
      <point x="529" y="374"/>
      <point x="620" y="386" type="curve" smooth="yes"/>
      <point x="1010" y="440"/>
      <point x="1225" y="635"/>
      <point x="1225" y="943" type="curve" smooth="yes"/>
      <point x="1225" y="1153"/>
      <point x="1091" y="1238"/>
      <point x="836" y="1238" type="curve" smooth="yes"/>
      <point x="626" y="1238" type="line"/>
      <point x="706" y="1485" type="line" smooth="yes"/>
      <point x="714" y="1506"/>
      <point x="698" y="1515"/>
      <point x="669" y="1515" type="curve" smooth="yes"/>
      <point x="640" y="1515"/>
      <point x="625" y="1506"/>
      <point x="619" y="1488" type="curve" smooth="yes"/>
      <point x="141" y="16" type="line" smooth="yes"/>
      <point x="134" y="-5"/>
      <point x="150" y="-14"/>
    </contour>
    <contour>
      <point x="368" y="445" type="curve"/>
      <point x="600" y="1158" type="line"/>
      <point x="826" y="1158" type="line" smooth="yes"/>
      <point x="1033" y="1158"/>
      <point x="1131" y="1095"/>
      <point x="1131" y="934" type="curve" smooth="yes"/>
      <point x="1131" y="679"/>
      <point x="958" y="516"/>
      <point x="631" y="466" type="curve" smooth="yes"/>
      <point x="550" y="454"/>
      <point x="451" y="446"/>
    </contour>
  </outline>
</glyph>
<glyph name="oe" format="2">
  <advance width="901"/>
  <unicode hex="0153"/>
  <anchor x="538" y="500" name="top"/>
  <outline>
    <contour>
      <point x="240" y="-19" type="curve" smooth="yes"/>
      <point x="434" y="-19"/>
      <point x="525" y="196"/>
      <point x="525" y="331" type="curve" smooth="yes"/>
      <point x="525" y="443"/>
      <point x="464" y="519"/>
      <point x="350" y="519" type="curve" smooth="yes"/>
      <point x="151" y="519"/>
      <point x="50" y="318"/>
      <point x="50" y="176" type="curve" smooth="yes"/>
      <point x="50" y="63"/>
      <point x="116" y="-19"/>
    </contour>
    <contour>
      <point x="250" y="61" type="curve" smooth="yes"/>
      <point x="183" y="61"/>
      <point x="140" y="105"/>
      <point x="140" y="183" type="curve" smooth="yes"/>
      <point x="140" y="281"/>
      <point x="210" y="439"/>
      <point x="341" y="439" type="curve" smooth="yes"/>
      <point x="406" y="439"/>
      <point x="446" y="399"/>
      <point x="446" y="321" type="curve" smooth="yes"/>
      <point x="446" y="220"/>
      <point x="379" y="61"/>
    </contour>
    <contour>
      <point x="596" y="-19" type="curve" smooth="yes"/>
      <point x="669" y="-19"/>
      <point x="748" y="10"/>
      <point x="824" y="105" type="curve" smooth="yes"/>
      <point x="840" y="125"/>
      <point x="836" y="140"/>
      <point x="823" y="155" type="curve" smooth="yes"/>
      <point x="809" y="170"/>
      <point x="785" y="179"/>
      <point x="769" y="160" type="curve" smooth="yes"/>
      <point x="721" y="106"/>
      <point x="673" y="61"/>
      <point x="608" y="61" type="curve" smooth="yes"/>
      <point x="543" y="61"/>
      <point x="516" y="105"/>
      <point x="516" y="170" type="curve" smooth="yes"/>
      <point x="516" y="288"/>
      <point x="596" y="440"/>
      <point x="728" y="440" type="curve" smooth="yes"/>
      <point x="765" y="440"/>
      <point x="790" y="426"/>
      <point x="790" y="393" type="curve" smooth="yes"/>
      <point x="790" y="295"/>
      <point x="589" y="258"/>
      <point x="475" y="240" type="curve"/>
      <point x="469" y="169" type="line"/>
      <point x="643" y="194"/>
      <point x="881" y="259"/>
      <point x="881" y="400" type="curve" smooth="yes"/>
      <point x="881" y="471"/>
      <point x="835" y="519"/>
      <point x="738" y="519" type="curve" smooth="yes"/>
      <point x="546" y="519"/>
      <point x="439" y="324"/>
      <point x="439" y="164" type="curve" smooth="yes"/>
      <point x="439" y="63"/>
      <point x="485" y="-19"/>
    </contour>
  </outline>
</glyph>
<glyph name="Uhorn" format="2">
  <advance width="1336"/>
  <unicode hex="01AF"/>
  <anchor x="588" y="0" name="bottom"/>
  <anchor x="844" y="21" name="ogonek"/>
  <anchor x="1018" y="1424" name="top"/>
  <anchor x="1503" y="1509" name="topright"/>
  <outline>
    <contour>
      <point x="1721" y="1681" type="curve" smooth="yes"/>
      <point x="1718" y="1717"/>
      <point x="1643" y="1713"/>
      <point x="1644" y="1677" type="curve" smooth="yes"/>
      <point x="1649" y="1552"/>
      <point x="1623" y="1514"/>
      <point x="1503" y="1509" type="curve"/>
      <point x="1486" y="1452" type="line"/>
      <point x="1692" y="1454"/>
      <point x="1732" y="1542"/>
    </contour>
    <component base="U"/>
  </outline>
</glyph>
<glyph name="jdotless" format="2">
  <advance width="268"/>
  <unicode hex="0237"/>
  <anchor x="211" y="500" name="top"/>
  <outline>
    <contour>
      <point x="-336" y="-1017" type="curve" smooth="yes"/>
      <point x="-274" y="-1017"/>
      <point x="-231" y="-1000"/>
      <point x="-189" y="-871" type="curve" smooth="yes"/>
      <point x="251" y="476" type="line" smooth="yes"/>
      <point x="260" y="503"/>
      <point x="251" y="515"/>
      <point x="210" y="515" type="curve" smooth="yes"/>
      <point x="184" y="515"/>
      <point x="174" y="510"/>
      <point x="165" y="483" type="curve" smooth="yes"/>
      <point x="-270" y="-850" type="line" smooth="yes"/>
      <point x="-292" y="-920"/>
      <point x="-302" y="-942"/>
      <point x="-329" y="-942" type="curve" smooth="yes"/>
      <point x="-346" y="-942"/>
      <point x="-360" y="-932"/>
      <point x="-384" y="-904" type="curve" smooth="yes"/>
      <point x="-396" y="-887"/>
      <point x="-412" y="-887"/>
      <point x="-432" y="-902" type="curve" smooth="yes"/>
      <point x="-457" y="-921"/>
      <point x="-454" y="-935"/>
      <point x="-440" y="-955" type="curve" smooth="yes"/>
      <point x="-412" y="-995"/>
      <point x="-375" y="-1017"/>
    </contour>
  </outline>
</glyph>
<glyph name="dieresiscomb" format="2">
  <unicode hex="0308"/>
  <anchor x="81" y="500" name="_top"/>
  <anchor x="139" y="706" name="top"/>
  <outline>
    <contour>
      <point x="21" y="669" type="curve" smooth="yes"/>
      <point x="71" y="669"/>
      <point x="94" y="708"/>
      <point x="94" y="744" type="curve" smooth="yes"/>
      <point x="94" y="778"/>
      <point x="73" y="795"/>
      <point x="45" y="795" type="curve" smooth="yes"/>
      <point x="-5" y="795"/>
      <point x="-27" y="756"/>
      <point x="-27" y="720" type="curve" smooth="yes"/>
      <point x="-27" y="686"/>
      <point x="-6" y="669"/>
    </contour>
    <contour>
      <point x="268" y="669" type="curve" smooth="yes"/>
      <point x="318" y="669"/>
      <point x="340" y="708"/>
      <point x="340" y="744" type="curve" smooth="yes"/>
      <point x="340" y="778"/>
      <point x="319" y="795"/>
      <point x="291" y="795" type="curve" smooth="yes"/>
      <point x="241" y="795"/>
      <point x="219" y="756"/>
      <point x="219" y="720" type="curve" smooth="yes"/>
      <point x="219" y="686"/>
      <point x="240" y="669"/>
    </contour>
  </outline>
</glyph>
<glyph name="hookabovecomb" format="2">
  <unicode hex="0309"/>
  <anchor x="81" y="500" name="_top"/>
  <anchor x="170" y="774" name="top"/>
  <outline>
    <contour>
      <point x="155" y="860" type="curve" smooth="yes"/>
      <point x="116" y="860"/>
      <point x="85" y="853"/>
      <point x="53" y="838" type="curve" smooth="yes"/>
      <point x="33" y="828"/>
      <point x="28" y="815"/>
      <point x="36" y="794" type="curve" smooth="yes"/>
      <point x="45" y="774"/>
      <point x="59" y="768"/>
      <point x="76" y="775" type="curve" smooth="yes"/>
      <point x="98" y="783"/>
      <point x="116" y="788"/>
      <point x="129" y="788" type="curve" smooth="yes"/>
      <point x="145" y="788"/>
      <point x="153" y="783"/>
      <point x="153" y="771" type="curve" smooth="yes"/>
      <point x="153" y="761"/>
      <point x="141" y="748"/>
      <point x="119" y="731" type="curve" smooth="yes"/>
      <point x="93" y="713"/>
      <point x="83" y="693"/>
      <point x="83" y="660" type="curve" smooth="yes"/>
      <point x="83" y="633" type="line" smooth="yes"/>
      <point x="83" y="599"/>
      <point x="148" y="596"/>
      <point x="154" y="630" type="curve" smooth="yes"/>
      <point x="158" y="651" type="line" smooth="yes"/>
      <point x="160" y="665"/>
      <point x="169" y="675"/>
      <point x="190" y="690" type="curve" smooth="yes"/>
      <point x="231" y="719"/>
      <point x="250" y="749"/>
      <point x="250" y="785" type="curve" smooth="yes"/>
      <point x="250" y="833"/>
      <point x="215" y="860"/>
    </contour>
  </outline>
</glyph>
<glyph name="ogonekcomb" format="2">
  <unicode hex="0328"/>
  <anchor x="28" y="0" name="_ogonek"/>
  <outline>
    <contour>
      <point x="-150" y="-257" type="curve" smooth="yes"/>
      <point x="-92" y="-257"/>
      <point x="-16" y="-221"/>
      <point x="23" y="-171" type="curve" smooth="yes"/>
      <point x="31" y="-159"/>
      <point x="29" y="-146"/>
      <point x="18" y="-135" type="curve" smooth="yes"/>
      <point x="3" y="-120"/>
      <point x="-14" y="-126"/>
      <point x="-20" y="-132" type="curve" smooth="yes"/>
      <point x="-56" y="-164"/>
      <point x="-77" y="-181"/>
      <point x="-101" y="-181" type="curve" smooth="yes"/>
      <point x="-111" y="-181"/>
      <point x="-117" y="-176"/>
      <point x="-117" y="-164" type="curve" smooth="yes"/>
      <point x="-117" y="-130"/>
      <point x="-50" y="-65"/>
      <point x="50" y="13" type="curve"/>
      <point x="50" y="18" type="line"/>
      <point x="-10" y="20" type="line"/>
      <point x="-136" y="-67"/>
      <point x="-211" y="-132"/>
      <point x="-211" y="-199" type="curve" smooth="yes"/>
      <point x="-211" y="-236"/>
      <point x="-187" y="-257"/>
    </contour>
  </outline>
</glyph>
<glyph name="quoteleft" format="2">
  <advance width="212"/>
  <unicode hex="2018"/>
  <outline>
    <contour>
      <point x="358" y="965" type="curve" smooth="yes"/>
      <point x="389" y="965"/>
      <point x="408" y="984"/>
      <point x="409" y="1009" type="curve" smooth="yes"/>
      <point x="413" y="1118"/>
      <point x="435" y="1200"/>
      <point x="509" y="1295" type="curve" smooth="yes"/>
      <point x="515" y="1302"/>
      <point x="516" y="1309"/>
      <point x="516" y="1315" type="curve" smooth="yes"/>
      <point x="516" y="1329"/>
      <point x="496" y="1345"/>
      <point x="483" y="1345" type="curve" smooth="yes"/>
      <point x="475" y="1345"/>
      <point x="465" y="1342"/>
      <point x="454" y="1333" type="curve" smooth="yes"/>
      <point x="369" y="1265"/>
      <point x="310" y="1116"/>
      <point x="310" y="1005" type="curve" smooth="yes"/>
      <point x="310" y="983"/>
      <point x="325" y="965"/>
    </contour>
  </outline>
</glyph>
<glyph name="quoteright" format="2">
  <advance width="211"/>
  <unicode hex="2019"/>
  <outline>
    <contour>
      <point x="452" y="1345" type="curve" smooth="yes"/>
      <point x="421" y="1345"/>
      <point x="402" y="1326"/>
      <point x="401" y="1301" type="curve" smooth="yes"/>
      <point x="397" y="1192"/>
      <point x="375" y="1110"/>
      <point x="301" y="1015" type="curve" smooth="yes"/>
      <point x="295" y="1008"/>
      <point x="294" y="1001"/>
      <point x="294" y="995" type="curve" smooth="yes"/>
      <point x="294" y="981"/>
      <point x="314" y="965"/>
      <point x="327" y="965" type="curve" smooth="yes"/>
      <point x="335" y="965"/>
      <point x="345" y="968"/>
      <point x="356" y="977" type="curve" smooth="yes"/>
      <point x="441" y="1045"/>
      <point x="500" y="1194"/>
      <point x="500" y="1305" type="curve" smooth="yes"/>
      <point x="500" y="1327"/>
      <point x="485" y="1345"/>
    </contour>
  </outline>
</glyph>
<glyph name="product" format="2">
  <advance width="1130"/>
  <unicode hex="220F"/>
  <outline>
    <contour>
      <point x="146" y="-82" type="curve" smooth="yes"/>
      <point x="173" y="-82"/>
      <point x="182" y="-77"/>
      <point x="191" y="-50" type="curve" smooth="yes"/>
      <point x="659" y="1408" type="line"/>
      <point x="1223" y="1408" type="line"/>
      <point x="757" y="-44" type="line" smooth="yes"/>
      <point x="749" y="-70"/>
      <point x="757" y="-82"/>
      <point x="798" y="-82" type="curve" smooth="yes"/>
      <point x="824" y="-82"/>
      <point x="834" y="-77"/>
      <point x="843" y="-50" type="curve" smooth="yes"/>
      <point x="1310" y="1408" type="line"/>
      <point x="1473" y="1408" type="line" smooth="yes"/>
      <point x="1488" y="1408"/>
      <point x="1501" y="1421"/>
      <point x="1509" y="1446" type="curve" smooth="yes"/>
      <point x="1518" y="1476"/>
      <point x="1511" y="1488"/>
      <point x="1496" y="1488" type="curve" smooth="yes"/>
      <point x="436" y="1488" type="line" smooth="yes"/>
      <point x="421" y="1488"/>
      <point x="407" y="1476"/>
      <point x="400" y="1451" type="curve" smooth="yes"/>
      <point x="391" y="1421"/>
      <point x="397" y="1408"/>
      <point x="412" y="1408" type="curve" smooth="yes"/>
      <point x="571" y="1408" type="line"/>
      <point x="105" y="-44" type="line" smooth="yes"/>
      <point x="97" y="-70"/>
      <point x="105" y="-82"/>
    </contour>
  </outline>
</glyph>
<glyph name="dottedCircle" format="2">
  <advance width="775"/>
  <unicode hex="25CC"/>
  <anchor x="304" y="-50" name="bottom"/>
  <anchor x="474" y="563" name="top"/>
  <outline>
    <contour>
      <point x="390" y="-75" type="curve" smooth="yes"/>
      <point x="417" y="-75"/>
      <point x="430" y="-60"/>
      <point x="430" y="-30" type="curve" smooth="yes"/>
      <point x="430" y="0"/>
      <point x="417" y="15"/>
      <point x="390" y="15" type="curve" smooth="yes"/>
      <point x="364" y="15"/>
      <point x="350" y="0"/>
      <point x="350" y="-30" type="curve" smooth="yes"/>
      <point x="350" y="-60"/>
      <point x="364" y="-75"/>
    </contour>
    <contour>
      <point x="390" y="506" type="curve" smooth="yes"/>
      <point x="417" y="506"/>
      <point x="430" y="521"/>
      <point x="430" y="551" type="curve" smooth="yes"/>
      <point x="430" y="581"/>
      <point x="417" y="596"/>
      <point x="390" y="596" type="curve" smooth="yes"/>
      <point x="364" y="596"/>
      <point x="350" y="581"/>
      <point x="350" y="551" type="curve" smooth="yes"/>
      <point x="350" y="521"/>
      <point x="364" y="506"/>
    </contour>
    <contour>
      <point x="689" y="216" type="curve" smooth="yes"/>
      <point x="716" y="216"/>
      <point x="729" y="231"/>
      <point x="729" y="261" type="curve" smooth="yes"/>
      <point x="729" y="291"/>
      <point x="716" y="306"/>
      <point x="689" y="306" type="curve" smooth="yes"/>
      <point x="663" y="306"/>
      <point x="649" y="291"/>
      <point x="649" y="261" type="curve" smooth="yes"/>
      <point x="649" y="231"/>
      <point x="663" y="216"/>
    </contour>
    <contour>
      <point x="641" y="364" type="curve" smooth="yes"/>
      <point x="668" y="364"/>
      <point x="681" y="379"/>
      <point x="681" y="409" type="curve" smooth="yes"/>
      <point x="681" y="439"/>
      <point x="668" y="454"/>
      <point x="641" y="454" type="curve" smooth="yes"/>
      <point x="615" y="454"/>
      <point x="601" y="439"/>
      <point x="601" y="409" type="curve" smooth="yes"/>
      <point x="601" y="379"/>
      <point x="615" y="364"/>
    </contour>
    <contour>
      <point x="539" y="467" type="curve" smooth="yes"/>
      <point x="566" y="467"/>
      <point x="579" y="482"/>
      <point x="579" y="512" type="curve" smooth="yes"/>
      <point x="579" y="542"/>
      <point x="566" y="557"/>
      <point x="539" y="557" type="curve" smooth="yes"/>
      <point x="513" y="557"/>
      <point x="499" y="542"/>
      <point x="499" y="512" type="curve" smooth="yes"/>
      <point x="499" y="482"/>
      <point x="513" y="467"/>
    </contour>
    <contour>
      <point x="641" y="66" type="curve" smooth="yes"/>
      <point x="668" y="66"/>
      <point x="681" y="81"/>
      <point x="681" y="111" type="curve" smooth="yes"/>
      <point x="681" y="141"/>
      <point x="668" y="156"/>
      <point x="641" y="156" type="curve" smooth="yes"/>
      <point x="615" y="156"/>
      <point x="601" y="141"/>
      <point x="601" y="111" type="curve" smooth="yes"/>
      <point x="601" y="81"/>
      <point x="615" y="66"/>
    </contour>
    <contour>
      <point x="539" y="-38" type="curve" smooth="yes"/>
      <point x="566" y="-38"/>
      <point x="579" y="-23"/>
      <point x="579" y="7" type="curve" smooth="yes"/>
      <point x="579" y="37"/>
      <point x="566" y="52"/>
      <point x="539" y="52" type="curve" smooth="yes"/>
      <point x="513" y="52"/>
      <point x="499" y="37"/>
      <point x="499" y="7" type="curve" smooth="yes"/>
      <point x="499" y="-23"/>
      <point x="513" y="-38"/>
    </contour>
    <contour>
      <point x="94" y="217" type="curve" smooth="yes"/>
      <point x="120" y="217"/>
      <point x="134" y="232"/>
      <point x="134" y="262" type="curve" smooth="yes"/>
      <point x="134" y="292"/>
      <point x="120" y="307"/>
      <point x="94" y="307" type="curve" smooth="yes"/>
      <point x="67" y="307"/>
      <point x="54" y="292"/>
      <point x="54" y="262" type="curve" smooth="yes"/>
      <point x="54" y="232"/>
      <point x="67" y="217"/>
    </contour>
    <contour>
      <point x="142" y="365" type="curve" smooth="yes"/>
      <point x="168" y="365"/>
      <point x="182" y="380"/>
      <point x="182" y="410" type="curve" smooth="yes"/>
      <point x="182" y="440"/>
      <point x="168" y="455"/>
      <point x="142" y="455" type="curve" smooth="yes"/>
      <point x="115" y="455"/>
      <point x="102" y="440"/>
      <point x="102" y="410" type="curve" smooth="yes"/>
      <point x="102" y="380"/>
      <point x="115" y="365"/>
    </contour>
    <contour>
      <point x="244" y="468" type="curve" smooth="yes"/>
      <point x="270" y="468"/>
      <point x="284" y="483"/>
      <point x="284" y="513" type="curve" smooth="yes"/>
      <point x="284" y="543"/>
      <point x="270" y="558"/>
      <point x="244" y="558" type="curve" smooth="yes"/>
      <point x="217" y="558"/>
      <point x="204" y="543"/>
      <point x="204" y="513" type="curve" smooth="yes"/>
      <point x="204" y="483"/>
      <point x="217" y="468"/>
    </contour>
    <contour>
      <point x="142" y="67" type="curve" smooth="yes"/>
      <point x="168" y="67"/>
      <point x="182" y="82"/>
      <point x="182" y="112" type="curve" smooth="yes"/>
      <point x="182" y="142"/>
      <point x="168" y="157"/>
      <point x="142" y="157" type="curve" smooth="yes"/>
      <point x="115" y="157"/>
      <point x="102" y="142"/>
      <point x="102" y="112" type="curve" smooth="yes"/>
      <point x="102" y="82"/>
      <point x="115" y="67"/>
    </contour>
    <contour>
      <point x="244" y="-37" type="curve" smooth="yes"/>
      <point x="270" y="-37"/>
      <point x="284" y="-22"/>
      <point x="284" y="8" type="curve" smooth="yes"/>
      <point x="284" y="38"/>
      <point x="270" y="53"/>
      <point x="244" y="53" type="curve" smooth="yes"/>
      <point x="217" y="53"/>
      <point x="204" y="38"/>
      <point x="204" y="8" type="curve" smooth="yes"/>
      <point x="204" y="-22"/>
      <point x="217" y="-37"/>
    </contour>
  </outline>
</glyph>
<glyph name="A.cur_locl" format="2">
  <advance width="1518"/>
  <anchor x="523" y="0" name="bottom"/>
  <anchor x="1293" y="21" name="ogonek"/>
  <anchor x="1100" y="1424" name="top"/>
  <outline>
    <contour>
      <point x="525" y="-17" type="curve" smooth="yes"/>
      <point x="741" y="-17"/>
      <point x="979" y="191"/>
      <point x="1216" y="589" type="curve"/>
      <point x="1108" y="253" type="line" smooth="yes"/>
      <point x="1050" y="74"/>
      <point x="1080" y="-19"/>
      <point x="1195" y="-19" type="curve" smooth="yes"/>
      <point x="1276" y="-19"/>
      <point x="1356" y="50"/>
      <point x="1463" y="210" type="curve" smooth="yes"/>
      <point x="1475" y="229"/>
      <point x="1474" y="246"/>
      <point x="1451" y="263" type="curve" smooth="yes"/>
      <point x="1431" y="278"/>
      <point x="1411" y="276"/>
      <point x="1396" y="254" type="curve" smooth="yes"/>
      <point x="1316" y="126"/>
      <point x="1254" y="66"/>
      <point x="1211" y="66" type="curve" smooth="yes"/>
      <point x="1158" y="66"/>
      <point x="1154" y="116"/>
      <point x="1193" y="236" type="curve" smooth="yes"/>
      <point x="1599" y="1485" type="line" smooth="yes"/>
      <point x="1605" y="1505"/>
      <point x="1590" y="1515"/>
      <point x="1560" y="1515" type="curve" smooth="yes"/>
      <point x="1530" y="1515"/>
      <point x="1514" y="1505"/>
      <point x="1509" y="1488" type="curve" smooth="yes"/>
      <point x="1470" y="1366" type="line"/>
      <point x="1398" y="1459"/>
      <point x="1270" y="1515"/>
      <point x="1134" y="1515" type="curve" smooth="yes"/>
      <point x="685" y="1515"/>
      <point x="235" y="953"/>
      <point x="235" y="389" type="curve" smooth="yes"/>
      <point x="235" y="134"/>
      <point x="343" y="-17"/>
    </contour>
    <contour>
      <point x="329" y="386" type="curve" smooth="yes"/>
      <point x="329" y="891"/>
      <point x="736" y="1430"/>
      <point x="1119" y="1430" type="curve" smooth="yes"/>
      <point x="1270" y="1430"/>
      <point x="1378" y="1375"/>
      <point x="1438" y="1268" type="curve"/>
      <point x="1331" y="941" type="line"/>
      <point x="1044" y="370"/>
      <point x="769" y="68"/>
      <point x="541" y="68" type="curve" smooth="yes"/>
      <point x="408" y="68"/>
      <point x="329" y="186"/>
    </contour>
  </outline>
</glyph>
<glyph name="A.dec_locl" format="2">
  <advance width="1594"/>
  <anchor x="763" y="0" name="bottom"/>
  <anchor x="1381" y="0" name="ogonek"/>
  <anchor x="1240" y="1424" name="top"/>
  <outline>
    <contour>
      <point x="235" y="-17" type="curve" smooth="yes"/>
      <point x="342" y="-17"/>
      <point x="458" y="30"/>
      <point x="722" y="444" type="curve"/>
      <point x="1137" y="444" type="line"/>
      <point x="1136" y="402"/>
      <point x="1135" y="360"/>
      <point x="1135" y="319" type="curve" smooth="yes"/>
      <point x="1135" y="83"/>
      <point x="1184" y="-17"/>
      <point x="1301" y="-17" type="curve" smooth="yes"/>
      <point x="1415" y="-17"/>
      <point x="1516" y="78"/>
      <point x="1665" y="380" type="curve" smooth="yes"/>
      <point x="1674" y="399"/>
      <point x="1663" y="413"/>
      <point x="1639" y="421" type="curve" smooth="yes"/>
      <point x="1614" y="430"/>
      <point x="1600" y="425"/>
      <point x="1591" y="408" type="curve" smooth="yes"/>
      <point x="1458" y="146"/>
      <point x="1383" y="63"/>
      <point x="1308" y="63" type="curve" smooth="yes"/>
      <point x="1246" y="63"/>
      <point x="1221" y="139"/>
      <point x="1221" y="319" type="curve" smooth="yes"/>
      <point x="1221" y="679"/>
      <point x="1271" y="1060"/>
      <point x="1330" y="1474" type="curve" smooth="yes"/>
      <point x="1334" y="1503"/>
      <point x="1311" y="1515"/>
      <point x="1274" y="1515" type="curve" smooth="yes"/>
      <point x="1246" y="1515"/>
      <point x="1226" y="1505"/>
      <point x="1215" y="1483" type="curve" smooth="yes"/>
      <point x="544" y="201"/>
      <point x="370" y="64"/>
      <point x="240" y="64" type="curve" smooth="yes"/>
      <point x="190" y="64"/>
      <point x="149" y="99"/>
      <point x="116" y="135" type="curve" smooth="yes"/>
      <point x="104" y="149"/>
      <point x="88" y="150"/>
      <point x="69" y="133" type="curve" smooth="yes"/>
      <point x="49" y="114"/>
      <point x="45" y="99"/>
      <point x="59" y="81" type="curve" smooth="yes"/>
      <point x="95" y="33"/>
      <point x="156" y="-17"/>
    </contour>
    <contour>
      <point x="771" y="521" type="line"/>
      <point x="891" y="716"/>
      <point x="1040" y="982"/>
      <point x="1228" y="1342" type="curve"/>
      <point x="1187" y="1063"/>
      <point x="1152" y="786"/>
      <point x="1140" y="521" type="curve"/>
    </contour>
  </outline>
</glyph>
<glyph name="A.dec_locl.ini" format="2">
  <advance width="1444"/>
  <anchor x="763" y="0" name="bottom"/>
  <anchor x="1363" y="0" name="cnct"/>
  <anchor x="1284" y="0" name="ogonek"/>
  <anchor x="1240" y="1424" name="top"/>
  <outline>
    <contour>
      <point x="235" y="-17" type="curve" smooth="yes"/>
      <point x="342" y="-17"/>
      <point x="458" y="30"/>
      <point x="722" y="444" type="curve"/>
      <point x="1137" y="444" type="line"/>
      <point x="1136" y="402"/>
      <point x="1135" y="360"/>
      <point x="1135" y="319" type="curve" smooth="yes"/>
      <point x="1135" y="83"/>
      <point x="1176" y="-17"/>
      <point x="1276" y="-17" type="curve" smooth="yes"/>
      <point x="1326" y="-17"/>
      <point x="1345" y="58"/>
      <point x="1295" y="58" type="curve" smooth="yes"/>
      <point x="1243" y="58"/>
      <point x="1221" y="135"/>
      <point x="1221" y="319" type="curve" smooth="yes"/>
      <point x="1221" y="679"/>
      <point x="1271" y="1060"/>
      <point x="1330" y="1474" type="curve" smooth="yes"/>
      <point x="1334" y="1503"/>
      <point x="1311" y="1515"/>
      <point x="1274" y="1515" type="curve" smooth="yes"/>
      <point x="1246" y="1515"/>
      <point x="1226" y="1505"/>
      <point x="1215" y="1483" type="curve" smooth="yes"/>
      <point x="544" y="201"/>
      <point x="370" y="64"/>
      <point x="240" y="64" type="curve" smooth="yes"/>
      <point x="190" y="64"/>
      <point x="149" y="99"/>
      <point x="116" y="135" type="curve" smooth="yes"/>
      <point x="104" y="149"/>
      <point x="88" y="150"/>
      <point x="69" y="133" type="curve" smooth="yes"/>
      <point x="49" y="114"/>
      <point x="45" y="99"/>
      <point x="59" y="81" type="curve" smooth="yes"/>
      <point x="95" y="33"/>
      <point x="156" y="-17"/>
    </contour>
    <contour>
      <point x="771" y="521" type="line"/>
      <point x="891" y="716"/>
      <point x="1040" y="982"/>
      <point x="1228" y="1342" type="curve"/>
      <point x="1187" y="1063"/>
      <point x="1152" y="786"/>
      <point x="1140" y="521" type="curve"/>
    </contour>
  </outline>
</glyph>
<glyph name="C.cur" format="2">
  <advance width="1200"/>
  <anchor x="596" y="0" name="bottom"/>
  <anchor x="1039" y="1424" name="top"/>
  <outline>
    <contour>
      <point x="663" y="-19" type="curve" smooth="yes"/>
      <point x="838" y="-19"/>
      <point x="1020" y="85"/>
      <point x="1195" y="323" type="curve" smooth="yes"/>
      <point x="1213" y="346"/>
      <point x="1210" y="363"/>
      <point x="1191" y="379" type="curve" smooth="yes"/>
      <point x="1171" y="398"/>
      <point x="1155" y="400"/>
      <point x="1139" y="379" type="curve" smooth="yes"/>
      <point x="980" y="166"/>
      <point x="831" y="66"/>
      <point x="674" y="66" type="curve" smooth="yes"/>
      <point x="460" y="66"/>
      <point x="350" y="219"/>
      <point x="350" y="488" type="curve" smooth="yes"/>
      <point x="350" y="959"/>
      <point x="686" y="1430"/>
      <point x="1061" y="1430" type="curve" smooth="yes"/>
      <point x="1201" y="1430"/>
      <point x="1296" y="1389"/>
      <point x="1361" y="1310" type="curve" smooth="yes"/>
      <point x="1383" y="1284"/>
      <point x="1394" y="1280"/>
      <point x="1414" y="1293" type="curve" smooth="yes"/>
      <point x="1441" y="1310"/>
      <point x="1449" y="1323"/>
      <point x="1436" y="1343" type="curve" smooth="yes"/>
      <point x="1361" y="1456"/>
      <point x="1245" y="1515"/>
      <point x="1074" y="1515" type="curve" smooth="yes"/>
      <point x="609" y="1515"/>
      <point x="256" y="984"/>
      <point x="256" y="481" type="curve" smooth="yes"/>
      <point x="256" y="166"/>
      <point x="406" y="-19"/>
    </contour>
  </outline>
</glyph>
<glyph name="C.cur.ini" format="2">
  <advance width="1160"/>
  <anchor x="596" y="0" name="bottom"/>
  <anchor x="1079" y="0" name="cnct"/>
  <anchor x="1039" y="1424" name="top"/>
  <outline>
    <contour>
      <point x="698" y="-17" type="curve" smooth="yes"/>
      <point x="738" y="-17"/>
      <point x="748" y="60"/>
      <point x="708" y="60" type="curve" smooth="yes"/>
      <point x="473" y="60"/>
      <point x="350" y="215"/>
      <point x="350" y="488" type="curve" smooth="yes"/>
      <point x="350" y="959"/>
      <point x="686" y="1430"/>
      <point x="1061" y="1430" type="curve" smooth="yes"/>
      <point x="1201" y="1430"/>
      <point x="1296" y="1389"/>
      <point x="1361" y="1310" type="curve" smooth="yes"/>
      <point x="1383" y="1284"/>
      <point x="1394" y="1280"/>
      <point x="1414" y="1293" type="curve" smooth="yes"/>
      <point x="1441" y="1310"/>
      <point x="1449" y="1323"/>
      <point x="1436" y="1343" type="curve" smooth="yes"/>
      <point x="1361" y="1456"/>
      <point x="1245" y="1515"/>
      <point x="1074" y="1515" type="curve" smooth="yes"/>
      <point x="609" y="1515"/>
      <point x="256" y="984"/>
      <point x="256" y="481" type="curve" smooth="yes"/>
      <point x="256" y="167"/>
      <point x="420" y="-17"/>
    </contour>
  </outline>
</glyph>
<glyph name="D.dec" format="2">
  <advance width="1590"/>
  <anchor x="778" y="0" name="bottom"/>
  <anchor x="715" y="744" name="center"/>
  <anchor x="1179" y="1424" name="top"/>
  <outline>
    <contour>
      <point x="298" y="-21" type="curve" smooth="yes"/>
      <point x="420" y="-21"/>
      <point x="490" y="48"/>
      <point x="559" y="261" type="curve" smooth="yes"/>
      <point x="868" y="1219" type="line" smooth="yes"/>
      <point x="875" y="1240"/>
      <point x="859" y="1249"/>
      <point x="829" y="1249" type="curve" smooth="yes"/>
      <point x="799" y="1249"/>
      <point x="784" y="1240"/>
      <point x="778" y="1221" type="curve" smooth="yes"/>
      <point x="473" y="276" type="line" smooth="yes"/>
      <point x="420" y="114"/>
      <point x="389" y="60"/>
      <point x="306" y="60" type="curve" smooth="yes"/>
      <point x="256" y="60"/>
      <point x="220" y="93"/>
      <point x="220" y="138" type="curve" smooth="yes"/>
      <point x="220" y="175"/>
      <point x="248" y="203"/>
      <point x="285" y="203" type="curve" smooth="yes"/>
      <point x="419" y="203"/>
      <point x="663" y="-11"/>
      <point x="891" y="-11" type="curve" smooth="yes"/>
      <point x="1268" y="-11"/>
      <point x="1633" y="441"/>
      <point x="1633" y="904" type="curve" smooth="yes"/>
      <point x="1633" y="1295"/>
      <point x="1391" y="1515"/>
      <point x="1049" y="1515" type="curve" smooth="yes"/>
      <point x="754" y="1515"/>
      <point x="523" y="1388"/>
      <point x="400" y="1150" type="curve" smooth="yes"/>
      <point x="388" y="1126"/>
      <point x="396" y="1108"/>
      <point x="415" y="1099" type="curve" smooth="yes"/>
      <point x="439" y="1088"/>
      <point x="456" y="1086"/>
      <point x="471" y="1114" type="curve" smooth="yes"/>
      <point x="584" y="1325"/>
      <point x="771" y="1430"/>
      <point x="1035" y="1430" type="curve" smooth="yes"/>
      <point x="1330" y="1430"/>
      <point x="1539" y="1246"/>
      <point x="1539" y="896" type="curve" smooth="yes"/>
      <point x="1539" y="486"/>
      <point x="1199" y="74"/>
      <point x="898" y="74" type="curve" smooth="yes"/>
      <point x="675" y="74"/>
      <point x="463" y="284"/>
      <point x="276" y="284" type="curve" smooth="yes"/>
      <point x="188" y="284"/>
      <point x="124" y="221"/>
      <point x="124" y="135" type="curve" smooth="yes"/>
      <point x="124" y="45"/>
      <point x="196" y="-21"/>
    </contour>
  </outline>
</glyph>
<glyph name="E.cur.ini" format="2">
  <advance width="1020"/>
  <anchor x="535" y="0" name="bottom"/>
  <anchor x="939" y="0" name="cnct"/>
  <anchor x="665" y="0" name="ogonek"/>
  <anchor x="911" y="1424" name="top"/>
  <outline>
    <contour>
      <point x="557" y="-17" type="curve" smooth="yes"/>
      <point x="598" y="-17"/>
      <point x="607" y="60"/>
      <point x="567" y="60" type="curve" smooth="yes"/>
      <point x="381" y="60"/>
      <point x="268" y="164"/>
      <point x="268" y="334" type="curve" smooth="yes"/>
      <point x="268" y="573"/>
      <point x="468" y="746"/>
      <point x="743" y="746" type="curve" smooth="yes"/>
      <point x="914" y="746" type="line" smooth="yes"/>
      <point x="929" y="746"/>
      <point x="943" y="760"/>
      <point x="950" y="786" type="curve" smooth="yes"/>
      <point x="958" y="814"/>
      <point x="951" y="826"/>
      <point x="936" y="826" type="curve" smooth="yes"/>
      <point x="755" y="826" type="line" smooth="yes"/>
      <point x="614" y="826"/>
      <point x="521" y="913"/>
      <point x="521" y="1058" type="curve" smooth="yes"/>
      <point x="521" y="1249"/>
      <point x="671" y="1430"/>
      <point x="878" y="1430" type="curve" smooth="yes"/>
      <point x="1005" y="1430"/>
      <point x="1119" y="1376"/>
      <point x="1185" y="1280" type="curve" smooth="yes"/>
      <point x="1198" y="1261"/>
      <point x="1215" y="1260"/>
      <point x="1238" y="1276" type="curve" smooth="yes"/>
      <point x="1258" y="1291"/>
      <point x="1261" y="1308"/>
      <point x="1249" y="1326" type="curve"/>
      <point x="1181" y="1448"/>
      <point x="1043" y="1515"/>
      <point x="894" y="1515" type="curve" smooth="yes"/>
      <point x="624" y="1515"/>
      <point x="428" y="1298"/>
      <point x="428" y="1058" type="curve" smooth="yes"/>
      <point x="428" y="943"/>
      <point x="495" y="833"/>
      <point x="589" y="796" type="curve"/>
      <point x="348" y="753"/>
      <point x="174" y="558"/>
      <point x="174" y="334" type="curve" smooth="yes"/>
      <point x="174" y="116"/>
      <point x="319" y="-17"/>
    </contour>
  </outline>
</glyph>
<glyph name="F.cur" format="2">
  <advance width="1150"/>
  <outline>
    <contour>
      <point x="251" y="-19" type="curve" smooth="yes"/>
      <point x="361" y="-19"/>
      <point x="439" y="69"/>
      <point x="504" y="273" type="curve" smooth="yes"/>
      <point x="643" y="705" type="line"/>
      <point x="1158" y="705" type="line" smooth="yes"/>
      <point x="1173" y="705"/>
      <point x="1186" y="719"/>
      <point x="1194" y="745" type="curve" smooth="yes"/>
      <point x="1201" y="773"/>
      <point x="1195" y="785"/>
      <point x="1180" y="785" type="curve" smooth="yes"/>
      <point x="669" y="785" type="line"/>
      <point x="870" y="1408" type="line"/>
      <point x="1469" y="1408" type="line" smooth="yes"/>
      <point x="1484" y="1408"/>
      <point x="1498" y="1421"/>
      <point x="1505" y="1448" type="curve" smooth="yes"/>
      <point x="1513" y="1475"/>
      <point x="1506" y="1488"/>
      <point x="1491" y="1488" type="curve" smooth="yes"/>
      <point x="748" y="1488" type="line" smooth="yes"/>
      <point x="529" y="1488"/>
      <point x="386" y="1406"/>
      <point x="314" y="1213" type="curve" smooth="yes"/>
      <point x="304" y="1186"/>
      <point x="313" y="1171"/>
      <point x="336" y="1168" type="curve" smooth="yes"/>
      <point x="360" y="1164"/>
      <point x="376" y="1166"/>
      <point x="389" y="1193" type="curve" smooth="yes"/>
      <point x="463" y="1344"/>
      <point x="560" y="1408"/>
      <point x="720" y="1408" type="curve" smooth="yes"/>
      <point x="783" y="1408" type="line"/>
      <point x="421" y="291" type="line" smooth="yes"/>
      <point x="369" y="128"/>
      <point x="324" y="66"/>
      <point x="255" y="66" type="curve" smooth="yes"/>
      <point x="195" y="66"/>
      <point x="148" y="128"/>
      <point x="120" y="243" type="curve" smooth="yes"/>
      <point x="114" y="269"/>
      <point x="104" y="280"/>
      <point x="71" y="273" type="curve" smooth="yes"/>
      <point x="44" y="266"/>
      <point x="36" y="250"/>
      <point x="43" y="220" type="curve" smooth="yes"/>
      <point x="73" y="70"/>
      <point x="150" y="-19"/>
    </contour>
  </outline>
</glyph>
<glyph name="F.cur_locl" format="2">
  <advance width="1274"/>
  <outline>
    <contour>
      <point x="383" y="-17" type="curve" smooth="yes"/>
      <point x="763" y="-17"/>
      <point x="1258" y="661"/>
      <point x="1258" y="1183" type="curve" smooth="yes"/>
      <point x="1258" y="1403"/>
      <point x="1158" y="1515"/>
      <point x="960" y="1515" type="curve" smooth="yes"/>
      <point x="819" y="1515"/>
      <point x="636" y="1441"/>
      <point x="479" y="1319" type="curve" smooth="yes"/>
      <point x="453" y="1299"/>
      <point x="450" y="1279"/>
      <point x="464" y="1259" type="curve" smooth="yes"/>
      <point x="483" y="1231"/>
      <point x="495" y="1226"/>
      <point x="524" y="1249" type="curve" smooth="yes"/>
      <point x="669" y="1361"/>
      <point x="831" y="1430"/>
      <point x="955" y="1430" type="curve" smooth="yes"/>
      <point x="1094" y="1430"/>
      <point x="1164" y="1345"/>
      <point x="1164" y="1179" type="curve" smooth="yes"/>
      <point x="1164" y="709"/>
      <point x="706" y="68"/>
      <point x="394" y="68" type="curve" smooth="yes"/>
      <point x="309" y="68"/>
      <point x="250" y="139"/>
      <point x="250" y="238" type="curve" smooth="yes"/>
      <point x="250" y="590"/>
      <point x="591" y="866"/>
      <point x="1382" y="945" type="curve"/>
      <point x="1329" y="784" type="line" smooth="yes"/>
      <point x="1320" y="759"/>
      <point x="1331" y="748"/>
      <point x="1366" y="748" type="curve" smooth="yes"/>
      <point x="1393" y="748"/>
      <point x="1409" y="759"/>
      <point x="1416" y="784" type="curve" smooth="yes"/>
      <point x="1480" y="980" type="line" smooth="yes"/>
      <point x="1493" y="1019"/>
      <point x="1480" y="1039"/>
      <point x="1438" y="1035" type="curve" smooth="yes"/>
      <point x="520" y="951"/>
      <point x="156" y="623"/>
      <point x="156" y="236" type="curve" smooth="yes"/>
      <point x="156" y="89"/>
      <point x="251" y="-17"/>
    </contour>
  </outline>
</glyph>
<glyph name="F.dec" format="2">
  <advance width="1439"/>
  <outline>
    <contour>
      <point x="618" y="-17" type="curve" smooth="yes"/>
      <point x="889" y="-17"/>
      <point x="1061" y="285"/>
      <point x="1190" y="713" type="curve" smooth="yes"/>
      <point x="1193" y="721" type="line"/>
      <point x="1413" y="721" type="line" smooth="yes"/>
      <point x="1428" y="721"/>
      <point x="1441" y="731"/>
      <point x="1449" y="761" type="curve" smooth="yes"/>
      <point x="1456" y="790"/>
      <point x="1448" y="805"/>
      <point x="1429" y="805" type="curve" smooth="yes"/>
      <point x="1220" y="805" type="line"/>
      <point x="1389" y="1338" type="line"/>
      <point x="1399" y="1336"/>
      <point x="1409" y="1336"/>
      <point x="1420" y="1336" type="curve" smooth="yes"/>
      <point x="1548" y="1336"/>
      <point x="1635" y="1368"/>
      <point x="1753" y="1419" type="curve" smooth="yes"/>
      <point x="1775" y="1429"/>
      <point x="1780" y="1448"/>
      <point x="1773" y="1470" type="curve" smooth="yes"/>
      <point x="1763" y="1500"/>
      <point x="1744" y="1504"/>
      <point x="1725" y="1495" type="curve" smooth="yes"/>
      <point x="1626" y="1445"/>
      <point x="1530" y="1420"/>
      <point x="1449" y="1420" type="curve" smooth="yes"/>
      <point x="1281" y="1420"/>
      <point x="1204" y="1513"/>
      <point x="1011" y="1513" type="curve" smooth="yes"/>
      <point x="831" y="1513"/>
      <point x="668" y="1433"/>
      <point x="509" y="1278" type="curve" smooth="yes"/>
      <point x="493" y="1261"/>
      <point x="493" y="1243"/>
      <point x="509" y="1224" type="curve" smooth="yes"/>
      <point x="529" y="1201"/>
      <point x="548" y="1200"/>
      <point x="569" y="1221" type="curve" smooth="yes"/>
      <point x="708" y="1360"/>
      <point x="858" y="1430"/>
      <point x="1006" y="1430" type="curve" smooth="yes"/>
      <point x="1136" y="1430"/>
      <point x="1210" y="1380"/>
      <point x="1304" y="1353" type="curve"/>
      <point x="1130" y="805" type="line"/>
      <point x="876" y="805" type="line" smooth="yes"/>
      <point x="859" y="805"/>
      <point x="848" y="794"/>
      <point x="841" y="770" type="curve" smooth="yes"/>
      <point x="833" y="736"/>
      <point x="840" y="721"/>
      <point x="859" y="721" type="curve" smooth="yes"/>
      <point x="1103" y="721" type="line"/>
      <point x="1100" y="713" type="line" smooth="yes"/>
      <point x="991" y="351"/>
      <point x="836" y="65"/>
      <point x="625" y="65" type="curve" smooth="yes"/>
      <point x="461" y="65"/>
      <point x="333" y="200"/>
      <point x="263" y="433" type="curve"/>
      <point x="378" y="395"/>
      <point x="504" y="381"/>
      <point x="630" y="381" type="curve" smooth="yes"/>
      <point x="653" y="381"/>
      <point x="666" y="393"/>
      <point x="673" y="414" type="curve" smooth="yes"/>
      <point x="681" y="441"/>
      <point x="673" y="455"/>
      <point x="646" y="455" type="curve" smooth="yes"/>
      <point x="505" y="455"/>
      <point x="363" y="474"/>
      <point x="246" y="519" type="curve" smooth="yes"/>
      <point x="219" y="529"/>
      <point x="201" y="530"/>
      <point x="185" y="520" type="curve" smooth="yes"/>
      <point x="164" y="508"/>
      <point x="159" y="491"/>
      <point x="165" y="468" type="curve" smooth="yes"/>
      <point x="243" y="171"/>
      <point x="408" y="-17"/>
    </contour>
  </outline>
</glyph>
<glyph name="G.cur.ini" format="2">
  <advance width="1329"/>
  <anchor x="550" y="-1000" name="bottom"/>
  <anchor x="1248" y="0" name="cnct"/>
  <anchor x="1044" y="1424" name="top"/>
  <outline>
    <contour>
      <point x="564" y="-1020" type="curve" smooth="yes"/>
      <point x="713" y="-1020"/>
      <point x="830" y="-894"/>
      <point x="913" y="-641" type="curve" smooth="yes"/>
      <point x="1360" y="736" type="line" smooth="yes"/>
      <point x="1366" y="755"/>
      <point x="1354" y="764"/>
      <point x="1324" y="764" type="curve" smooth="yes"/>
      <point x="1295" y="764"/>
      <point x="1278" y="755"/>
      <point x="1271" y="736" type="curve"/>
      <point x="1058" y="310"/>
      <point x="849" y="106"/>
      <point x="626" y="106" type="curve" smooth="yes"/>
      <point x="450" y="106"/>
      <point x="334" y="256"/>
      <point x="334" y="484" type="curve" smooth="yes"/>
      <point x="334" y="958"/>
      <point x="694" y="1430"/>
      <point x="1073" y="1430" type="curve" smooth="yes"/>
      <point x="1219" y="1430"/>
      <point x="1330" y="1385"/>
      <point x="1419" y="1293" type="curve" smooth="yes"/>
      <point x="1431" y="1280"/>
      <point x="1450" y="1283"/>
      <point x="1466" y="1299" type="curve" smooth="yes"/>
      <point x="1483" y="1315"/>
      <point x="1483" y="1331"/>
      <point x="1473" y="1344" type="curve" smooth="yes"/>
      <point x="1374" y="1455"/>
      <point x="1239" y="1515"/>
      <point x="1083" y="1515" type="curve" smooth="yes"/>
      <point x="645" y="1515"/>
      <point x="241" y="1008"/>
      <point x="241" y="485" type="curve" smooth="yes"/>
      <point x="241" y="205"/>
      <point x="390" y="21"/>
      <point x="619" y="21" type="curve" smooth="yes"/>
      <point x="818" y="21"/>
      <point x="996" y="148"/>
      <point x="1165" y="409" type="curve"/>
      <point x="830" y="-616" type="line" smooth="yes"/>
      <point x="761" y="-827"/>
      <point x="676" y="-935"/>
      <point x="571" y="-935" type="curve" smooth="yes"/>
      <point x="523" y="-935"/>
      <point x="488" y="-892"/>
      <point x="488" y="-835" type="curve" smooth="yes"/>
      <point x="488" y="-785"/>
      <point x="396" y="-790"/>
      <point x="396" y="-840" type="curve" smooth="yes"/>
      <point x="396" y="-945"/>
      <point x="466" y="-1020"/>
    </contour>
  </outline>
</glyph>
<glyph name="G.cur_ro" format="2">
  <advance width="1115"/>
  <outline>
    <contour>
      <point x="500" y="-20" type="curve" smooth="yes"/>
      <point x="761" y="-20"/>
      <point x="966" y="286"/>
      <point x="1166" y="888" type="curve" smooth="yes"/>
      <point x="1173" y="909"/>
      <point x="1162" y="926"/>
      <point x="1128" y="926" type="curve" smooth="yes"/>
      <point x="1109" y="926"/>
      <point x="1096" y="921"/>
      <point x="1077" y="905" type="curve" smooth="yes"/>
      <point x="928" y="779"/>
      <point x="778" y="674"/>
      <point x="623" y="674" type="curve" smooth="yes"/>
      <point x="528" y="674"/>
      <point x="479" y="730"/>
      <point x="479" y="822" type="curve" smooth="yes"/>
      <point x="479" y="1044"/>
      <point x="742" y="1435"/>
      <point x="1003" y="1435" type="curve" smooth="yes"/>
      <point x="1061" y="1435"/>
      <point x="1086" y="1412"/>
      <point x="1086" y="1376" type="curve" smooth="yes"/>
      <point x="1086" y="1191"/>
      <point x="750" y="937"/>
      <point x="535" y="937" type="curve" smooth="yes"/>
      <point x="362" y="937"/>
      <point x="379" y="1115"/>
      <point x="485" y="1448" type="curve" smooth="yes"/>
      <point x="492" y="1470"/>
      <point x="477" y="1481"/>
      <point x="446" y="1481" type="curve" smooth="yes"/>
      <point x="420" y="1481"/>
      <point x="407" y="1471"/>
      <point x="400" y="1450" type="curve" smooth="yes"/>
      <point x="294" y="1141"/>
      <point x="262" y="850"/>
      <point x="524" y="850" type="curve" smooth="yes"/>
      <point x="799" y="850"/>
      <point x="1177" y="1148"/>
      <point x="1177" y="1394" type="curve" smooth="yes"/>
      <point x="1177" y="1464"/>
      <point x="1125" y="1519"/>
      <point x="1020" y="1519" type="curve" smooth="yes"/>
      <point x="681" y="1519"/>
      <point x="387" y="1095"/>
      <point x="387" y="819" type="curve" smooth="yes"/>
      <point x="387" y="675"/>
      <point x="469" y="587"/>
      <point x="611" y="587" type="curve" smooth="yes"/>
      <point x="730" y="587"/>
      <point x="886" y="648"/>
      <point x="1044" y="788" type="curve"/>
      <point x="874" y="310"/>
      <point x="693" y="67"/>
      <point x="509" y="67" type="curve" smooth="yes"/>
      <point x="391" y="67"/>
      <point x="328" y="146"/>
      <point x="280" y="320" type="curve" smooth="yes"/>
      <point x="274" y="342"/>
      <point x="258" y="350"/>
      <point x="234" y="344" type="curve" smooth="yes"/>
      <point x="207" y="338"/>
      <point x="196" y="323"/>
      <point x="201" y="300" type="curve" smooth="yes"/>
      <point x="249" y="88"/>
      <point x="350" y="-20"/>
    </contour>
  </outline>
</glyph>
<glyph name="G.dec" format="2">
  <advance width="1596"/>
  <anchor x="866" y="0" name="bottom"/>
  <anchor x="1269" y="1424" name="top"/>
  <outline>
    <contour>
      <point x="74" y="-12" type="curve" smooth="yes"/>
      <point x="590" y="-12"/>
      <point x="1048" y="979"/>
      <point x="1048" y="1339" type="curve" smooth="yes"/>
      <point x="1048" y="1444"/>
      <point x="1005" y="1513"/>
      <point x="904" y="1513" type="curve" smooth="yes"/>
      <point x="764" y="1513"/>
      <point x="619" y="1309"/>
      <point x="619" y="1116" type="curve" smooth="yes"/>
      <point x="619" y="973"/>
      <point x="714" y="885"/>
      <point x="871" y="885" type="curve" smooth="yes"/>
      <point x="1103" y="885"/>
      <point x="1394" y="1024"/>
      <point x="1639" y="1254" type="curve"/>
      <point x="1595" y="1279" type="line"/>
      <point x="1570" y="1203"/>
      <point x="1544" y="1119"/>
      <point x="1521" y="1050" type="curve" smooth="yes"/>
      <point x="1284" y="323"/>
      <point x="1131" y="75"/>
      <point x="923" y="75" type="curve" smooth="yes"/>
      <point x="694" y="75"/>
      <point x="500" y="284"/>
      <point x="354" y="693" type="curve"/>
      <point x="305" y="680" type="line"/>
      <point x="703" y="473"/>
      <point x="1084" y="386"/>
      <point x="1591" y="386" type="curve" smooth="yes"/>
      <point x="1611" y="386"/>
      <point x="1624" y="395"/>
      <point x="1631" y="421" type="curve" smooth="yes"/>
      <point x="1639" y="449"/>
      <point x="1633" y="463"/>
      <point x="1613" y="463" type="curve" smooth="yes"/>
      <point x="1100" y="463"/>
      <point x="728" y="545"/>
      <point x="351" y="743" type="curve" smooth="yes"/>
      <point x="319" y="760"/>
      <point x="301" y="750"/>
      <point x="285" y="736" type="curve" smooth="yes"/>
      <point x="264" y="718"/>
      <point x="259" y="698"/>
      <point x="270" y="669" type="curve" smooth="yes"/>
      <point x="444" y="210"/>
      <point x="661" y="-12"/>
      <point x="918" y="-12" type="curve" smooth="yes"/>
      <point x="1189" y="-12"/>
      <point x="1361" y="255"/>
      <point x="1609" y="1038" type="curve" smooth="yes"/>
      <point x="1638" y="1128"/>
      <point x="1661" y="1199"/>
      <point x="1683" y="1268" type="curve" smooth="yes"/>
      <point x="1693" y="1301"/>
      <point x="1680" y="1323"/>
      <point x="1648" y="1334" type="curve" smooth="yes"/>
      <point x="1610" y="1346"/>
      <point x="1596" y="1328"/>
      <point x="1576" y="1309" type="curve" smooth="yes"/>
      <point x="1354" y="1095"/>
      <point x="1090" y="965"/>
      <point x="880" y="965" type="curve" smooth="yes"/>
      <point x="773" y="965"/>
      <point x="706" y="1013"/>
      <point x="706" y="1116" type="curve" smooth="yes"/>
      <point x="706" y="1263"/>
      <point x="811" y="1433"/>
      <point x="896" y="1433" type="curve" smooth="yes"/>
      <point x="941" y="1433"/>
      <point x="960" y="1399"/>
      <point x="960" y="1338" type="curve" smooth="yes"/>
      <point x="960" y="980"/>
      <point x="515" y="68"/>
      <point x="88" y="68" type="curve" smooth="yes"/>
      <point x="64" y="68"/>
      <point x="49" y="59"/>
      <point x="41" y="31" type="curve" smooth="yes"/>
      <point x="34" y="1"/>
      <point x="43" y="-12"/>
    </contour>
  </outline>
</glyph>
<glyph name="H.cur" format="2">
  <advance width="1600"/>
  <anchor x="743" y="0" name="bottom"/>
  <anchor x="1119" y="1080" name="center"/>
  <anchor x="1179" y="1424" name="top"/>
  <outline>
    <contour>
      <point x="291" y="-19" type="curve" smooth="yes"/>
      <point x="414" y="-19"/>
      <point x="496" y="88"/>
      <point x="554" y="266" type="curve" smooth="yes"/>
      <point x="648" y="553" type="line"/>
      <point x="831" y="631"/>
      <point x="1038" y="719"/>
      <point x="1281" y="831" type="curve"/>
      <point x="1089" y="236" type="line" smooth="yes"/>
      <point x="1038" y="78"/>
      <point x="1083" y="-19"/>
      <point x="1203" y="-19" type="curve" smooth="yes"/>
      <point x="1296" y="-19"/>
      <point x="1406" y="66"/>
      <point x="1501" y="210" type="curve" smooth="yes"/>
      <point x="1513" y="228"/>
      <point x="1513" y="246"/>
      <point x="1490" y="263" type="curve" smooth="yes"/>
      <point x="1471" y="276"/>
      <point x="1451" y="274"/>
      <point x="1438" y="254" type="curve" smooth="yes"/>
      <point x="1360" y="134"/>
      <point x="1279" y="64"/>
      <point x="1216" y="64" type="curve" smooth="yes"/>
      <point x="1149" y="64"/>
      <point x="1138" y="116"/>
      <point x="1178" y="240" type="curve" smooth="yes"/>
      <point x="1383" y="871" type="line"/>
      <point x="1653" y="1014"/>
      <point x="1809" y="1208"/>
      <point x="1809" y="1375" type="curve" smooth="yes"/>
      <point x="1809" y="1463"/>
      <point x="1755" y="1520"/>
      <point x="1673" y="1520" type="curve" smooth="yes"/>
      <point x="1563" y="1520"/>
      <point x="1471" y="1418"/>
      <point x="1409" y="1224" type="curve" smooth="yes"/>
      <point x="1316" y="936" type="line"/>
      <point x="1104" y="839"/>
      <point x="868" y="733"/>
      <point x="681" y="656" type="curve"/>
      <point x="866" y="1226" type="line" smooth="yes"/>
      <point x="928" y="1418"/>
      <point x="895" y="1521"/>
      <point x="766" y="1521" type="curve" smooth="yes"/>
      <point x="669" y="1521"/>
      <point x="563" y="1450"/>
      <point x="425" y="1305" type="curve" smooth="yes"/>
      <point x="408" y="1286"/>
      <point x="410" y="1269"/>
      <point x="430" y="1253" type="curve" smooth="yes"/>
      <point x="449" y="1238"/>
      <point x="465" y="1238"/>
      <point x="481" y="1254" type="curve" smooth="yes"/>
      <point x="610" y="1386"/>
      <point x="695" y="1441"/>
      <point x="753" y="1441" type="curve" smooth="yes"/>
      <point x="819" y="1441"/>
      <point x="828" y="1381"/>
      <point x="781" y="1238" type="curve" smooth="yes"/>
      <point x="581" y="621" type="line"/>
      <point x="331" y="508"/>
      <point x="154" y="311"/>
      <point x="154" y="135" type="curve" smooth="yes"/>
      <point x="154" y="43"/>
      <point x="210" y="-19"/>
    </contour>
    <contour>
      <point x="301" y="64" type="curve" smooth="yes"/>
      <point x="264" y="64"/>
      <point x="240" y="90"/>
      <point x="240" y="135" type="curve" smooth="yes"/>
      <point x="240" y="268"/>
      <point x="366" y="420"/>
      <point x="546" y="515" type="curve"/>
      <point x="473" y="289" type="line" smooth="yes"/>
      <point x="426" y="148"/>
      <point x="376" y="64"/>
    </contour>
    <contour>
      <point x="1419" y="983" type="curve"/>
      <point x="1493" y="1211" type="line" smooth="yes"/>
      <point x="1540" y="1358"/>
      <point x="1600" y="1435"/>
      <point x="1664" y="1435" type="curve" smooth="yes"/>
      <point x="1699" y="1435"/>
      <point x="1723" y="1409"/>
      <point x="1723" y="1369" type="curve" smooth="yes"/>
      <point x="1723" y="1239"/>
      <point x="1606" y="1091"/>
    </contour>
  </outline>
</glyph>
<glyph name="H.dec" format="2">
  <advance width="1666"/>
  <anchor x="841" y="0" name="bottom"/>
  <anchor x="1218" y="1150" name="center"/>
  <anchor x="1278" y="1424" name="top"/>
  <outline>
    <contour>
      <point x="446" y="-14" type="curve" smooth="yes"/>
      <point x="476" y="-14"/>
      <point x="491" y="-5"/>
      <point x="498" y="14" type="curve" smooth="yes"/>
      <point x="973" y="1485" type="line" smooth="yes"/>
      <point x="980" y="1506"/>
      <point x="964" y="1515"/>
      <point x="934" y="1515" type="curve" smooth="yes"/>
      <point x="919" y="1515"/>
      <point x="900" y="1510"/>
      <point x="885" y="1495" type="curve" smooth="yes"/>
      <point x="851" y="1463"/>
      <point x="819" y="1446"/>
      <point x="788" y="1446" type="curve" smooth="yes"/>
      <point x="734" y="1446"/>
      <point x="720" y="1500"/>
      <point x="634" y="1500" type="curve" smooth="yes"/>
      <point x="565" y="1500"/>
      <point x="489" y="1456"/>
      <point x="390" y="1354" type="curve" smooth="yes"/>
      <point x="373" y="1336"/>
      <point x="374" y="1319"/>
      <point x="390" y="1300" type="curve" smooth="yes"/>
      <point x="409" y="1278"/>
      <point x="430" y="1280"/>
      <point x="446" y="1295" type="curve" smooth="yes"/>
      <point x="534" y="1379"/>
      <point x="581" y="1416"/>
      <point x="633" y="1416" type="curve" smooth="yes"/>
      <point x="684" y="1416"/>
      <point x="700" y="1363"/>
      <point x="768" y="1363" type="curve" smooth="yes"/>
      <point x="795" y="1363"/>
      <point x="828" y="1374"/>
      <point x="851" y="1391" type="curve"/>
      <point x="408" y="16" type="line" smooth="yes"/>
      <point x="400" y="-5"/>
      <point x="416" y="-14"/>
    </contour>
    <contour>
      <point x="1254" y="199" type="curve"/>
      <point x="1328" y="213" type="line"/>
      <point x="1495" y="696"/>
      <point x="1289" y="858"/>
      <point x="995" y="858" type="curve" smooth="yes"/>
      <point x="776" y="858"/>
      <point x="630" y="760"/>
      <point x="630" y="614" type="curve" smooth="yes"/>
      <point x="630" y="489"/>
      <point x="765" y="426"/>
      <point x="978" y="426" type="curve" smooth="yes"/>
      <point x="1194" y="426"/>
      <point x="1363" y="471"/>
      <point x="1679" y="568" type="curve" smooth="yes"/>
      <point x="1703" y="575"/>
      <point x="1711" y="590"/>
      <point x="1704" y="619" type="curve" smooth="yes"/>
      <point x="1698" y="641"/>
      <point x="1685" y="651"/>
      <point x="1659" y="644" type="curve" smooth="yes"/>
      <point x="1368" y="551"/>
      <point x="1191" y="506"/>
      <point x="991" y="506" type="curve" smooth="yes"/>
      <point x="821" y="506"/>
      <point x="704" y="548"/>
      <point x="704" y="629" type="curve" smooth="yes"/>
      <point x="704" y="733"/>
      <point x="843" y="778"/>
      <point x="973" y="778" type="curve" smooth="yes"/>
      <point x="1229" y="778"/>
      <point x="1415" y="683"/>
    </contour>
    <contour>
      <point x="1234" y="-14" type="curve" smooth="yes"/>
      <point x="1264" y="-14"/>
      <point x="1279" y="-5"/>
      <point x="1285" y="14" type="curve" smooth="yes"/>
      <point x="1760" y="1485" type="line" smooth="yes"/>
      <point x="1768" y="1506"/>
      <point x="1751" y="1515"/>
      <point x="1721" y="1515" type="curve" smooth="yes"/>
      <point x="1691" y="1515"/>
      <point x="1676" y="1506"/>
      <point x="1670" y="1488" type="curve" smooth="yes"/>
      <point x="1195" y="16" type="line" smooth="yes"/>
      <point x="1189" y="-5"/>
      <point x="1204" y="-14"/>
    </contour>
  </outline>
</glyph>
<glyph name="I.cur.ini" format="2">
  <advance width="1450"/>
  <anchor x="944" y="0" name="bottom"/>
  <anchor x="1369" y="0" name="cnct"/>
  <anchor x="735" y="-11" name="ogonek"/>
  <anchor x="1183" y="1424" name="top"/>
  <outline>
    <contour>
      <point x="625" y="-17" type="curve" smooth="yes"/>
      <point x="1115" y="-17"/>
      <point x="1498" y="670"/>
      <point x="1498" y="1148" type="curve" smooth="yes"/>
      <point x="1498" y="1376"/>
      <point x="1399" y="1515"/>
      <point x="1230" y="1515" type="curve" smooth="yes"/>
      <point x="1020" y="1515"/>
      <point x="888" y="1291"/>
      <point x="888" y="884" type="curve" smooth="yes"/>
      <point x="888" y="386"/>
      <point x="1055" y="-17"/>
      <point x="1283" y="-17" type="curve" smooth="yes"/>
      <point x="1323" y="-17"/>
      <point x="1341" y="58"/>
      <point x="1301" y="58" type="curve" smooth="yes"/>
      <point x="1116" y="58"/>
      <point x="981" y="431"/>
      <point x="981" y="890" type="curve" smooth="yes"/>
      <point x="981" y="1240"/>
      <point x="1078" y="1430"/>
      <point x="1226" y="1430" type="curve" smooth="yes"/>
      <point x="1340" y="1430"/>
      <point x="1404" y="1323"/>
      <point x="1404" y="1146" type="curve" smooth="yes"/>
      <point x="1404" y="533"/>
      <point x="953" y="68"/>
      <point x="628" y="68" type="curve" smooth="yes"/>
      <point x="469" y="68"/>
      <point x="350" y="175"/>
      <point x="294" y="429" type="curve"/>
      <point x="398" y="396"/>
      <point x="513" y="380"/>
      <point x="641" y="380" type="curve" smooth="yes"/>
      <point x="666" y="380"/>
      <point x="681" y="393"/>
      <point x="685" y="416" type="curve" smooth="yes"/>
      <point x="690" y="443"/>
      <point x="679" y="455"/>
      <point x="653" y="455" type="curve" smooth="yes"/>
      <point x="523" y="455"/>
      <point x="380" y="473"/>
      <point x="276" y="514" type="curve" smooth="yes"/>
      <point x="254" y="523"/>
      <point x="234" y="521"/>
      <point x="219" y="513" type="curve" smooth="yes"/>
      <point x="196" y="498"/>
      <point x="190" y="479"/>
      <point x="195" y="455" type="curve" smooth="yes"/>
      <point x="263" y="123"/>
      <point x="411" y="-17"/>
    </contour>
  </outline>
</glyph>
<glyph name="I.dec" format="2">
  <advance width="833"/>
  <anchor x="338" y="0" name="bottom"/>
  <anchor x="437" y="-5" name="ogonek"/>
  <anchor x="770" y="1424" name="top"/>
  <outline>
    <contour>
      <point x="346" y="-19" type="curve" smooth="yes"/>
      <point x="491" y="-19"/>
      <point x="585" y="85"/>
      <point x="665" y="333" type="curve" smooth="yes"/>
      <point x="1039" y="1485" type="line" smooth="yes"/>
      <point x="1046" y="1506"/>
      <point x="1030" y="1515"/>
      <point x="1000" y="1515" type="curve" smooth="yes"/>
      <point x="978" y="1515"/>
      <point x="965" y="1511"/>
      <point x="948" y="1495" type="curve" smooth="yes"/>
      <point x="916" y="1465"/>
      <point x="883" y="1446"/>
      <point x="854" y="1446" type="curve" smooth="yes"/>
      <point x="791" y="1446"/>
      <point x="765" y="1500"/>
      <point x="681" y="1500" type="curve" smooth="yes"/>
      <point x="611" y="1500"/>
      <point x="528" y="1456"/>
      <point x="426" y="1351" type="curve" smooth="yes"/>
      <point x="411" y="1336"/>
      <point x="411" y="1320"/>
      <point x="430" y="1300" type="curve" smooth="yes"/>
      <point x="449" y="1280"/>
      <point x="465" y="1279"/>
      <point x="483" y="1294" type="curve" smooth="yes"/>
      <point x="573" y="1379"/>
      <point x="620" y="1415"/>
      <point x="676" y="1415" type="curve" smooth="yes"/>
      <point x="734" y="1415"/>
      <point x="776" y="1361"/>
      <point x="840" y="1361" type="curve" smooth="yes"/>
      <point x="865" y="1361"/>
      <point x="893" y="1369"/>
      <point x="915" y="1384" type="curve"/>
      <point x="578" y="344" type="line" smooth="yes"/>
      <point x="514" y="149"/>
      <point x="448" y="66"/>
      <point x="353" y="66" type="curve" smooth="yes"/>
      <point x="276" y="66"/>
      <point x="219" y="123"/>
      <point x="158" y="256" type="curve" smooth="yes"/>
      <point x="150" y="274"/>
      <point x="135" y="279"/>
      <point x="113" y="271" type="curve" smooth="yes"/>
      <point x="88" y="263"/>
      <point x="76" y="249"/>
      <point x="84" y="230" type="curve" smooth="yes"/>
      <point x="144" y="65"/>
      <point x="233" y="-19"/>
    </contour>
  </outline>
</glyph>
<glyph name="IJ.cur" format="2">
  <advance width="1200"/>
  <anchor x="416" y="0" name="bottom"/>
  <anchor x="968" y="1424" name="top"/>
  <outline>
    <contour>
      <point x="341" y="-1020" type="curve" smooth="yes"/>
      <point x="495" y="-1020"/>
      <point x="613" y="-892"/>
      <point x="694" y="-641" type="curve" smooth="yes"/>
      <point x="1385" y="1485" type="line" smooth="yes"/>
      <point x="1393" y="1506"/>
      <point x="1376" y="1515"/>
      <point x="1346" y="1515" type="curve" smooth="yes"/>
      <point x="1316" y="1515"/>
      <point x="1301" y="1506"/>
      <point x="1295" y="1488" type="curve" smooth="yes"/>
      <point x="1105" y="905" type="line"/>
      <point x="913" y="386"/>
      <point x="666" y="176"/>
      <point x="460" y="176" type="curve" smooth="yes"/>
      <point x="336" y="176"/>
      <point x="286" y="246"/>
      <point x="351" y="445" type="curve" smooth="yes"/>
      <point x="690" y="1485" type="line" smooth="yes"/>
      <point x="698" y="1506"/>
      <point x="681" y="1515"/>
      <point x="651" y="1515" type="curve" smooth="yes"/>
      <point x="621" y="1515"/>
      <point x="606" y="1506"/>
      <point x="600" y="1488" type="curve" smooth="yes"/>
      <point x="260" y="441" type="line" smooth="yes"/>
      <point x="183" y="203"/>
      <point x="271" y="88"/>
      <point x="438" y="88" type="curve" smooth="yes"/>
      <point x="618" y="88"/>
      <point x="806" y="195"/>
      <point x="971" y="490" type="curve"/>
      <point x="611" y="-616" type="line" smooth="yes"/>
      <point x="543" y="-827"/>
      <point x="458" y="-935"/>
      <point x="349" y="-935" type="curve" smooth="yes"/>
      <point x="300" y="-935"/>
      <point x="265" y="-892"/>
      <point x="265" y="-835" type="curve" smooth="yes"/>
      <point x="265" y="-661"/>
      <point x="454" y="-432"/>
      <point x="765" y="-234" type="curve" smooth="yes"/>
      <point x="883" y="-157"/>
      <point x="1011" y="-71"/>
      <point x="1159" y="9" type="curve" smooth="yes"/>
      <point x="1179" y="20"/>
      <point x="1186" y="34"/>
      <point x="1173" y="61" type="curve" smooth="yes"/>
      <point x="1159" y="88"/>
      <point x="1141" y="90"/>
      <point x="1121" y="79" type="curve" smooth="yes"/>
      <point x="1006" y="16"/>
      <point x="900" y="-47"/>
      <point x="804" y="-110" type="curve" smooth="yes"/>
      <point x="413" y="-349"/>
      <point x="174" y="-625"/>
      <point x="174" y="-840" type="curve" smooth="yes"/>
      <point x="174" y="-945"/>
      <point x="244" y="-1020"/>
    </contour>
  </outline>
</glyph>
<glyph name="K.cur.ini" format="2">
  <advance width="1276"/>
  <anchor x="733" y="0" name="bottom"/>
  <anchor x="1195" y="0" name="cnct"/>
  <anchor x="1198" y="1424" name="top"/>
  <outline>
    <contour>
      <point x="1109" y="-17" type="curve" smooth="yes"/>
      <point x="1159" y="-17"/>
      <point x="1178" y="58"/>
      <point x="1128" y="58" type="curve" smooth="yes"/>
      <point x="1038" y="58"/>
      <point x="976" y="110"/>
      <point x="864" y="411" type="curve" smooth="yes"/>
      <point x="736" y="754" type="line"/>
      <point x="1530" y="1429" type="line" smooth="yes"/>
      <point x="1553" y="1448"/>
      <point x="1551" y="1461"/>
      <point x="1535" y="1485" type="curve" smooth="yes"/>
      <point x="1519" y="1509"/>
      <point x="1498" y="1509"/>
      <point x="1476" y="1491" type="curve" smooth="yes"/>
      <point x="676" y="809" type="line"/>
      <point x="811" y="1226" type="line" smooth="yes"/>
      <point x="873" y="1418"/>
      <point x="840" y="1521"/>
      <point x="711" y="1521" type="curve" smooth="yes"/>
      <point x="614" y="1521"/>
      <point x="508" y="1450"/>
      <point x="370" y="1305" type="curve" smooth="yes"/>
      <point x="353" y="1286"/>
      <point x="355" y="1269"/>
      <point x="375" y="1253" type="curve" smooth="yes"/>
      <point x="394" y="1238"/>
      <point x="410" y="1238"/>
      <point x="426" y="1254" type="curve" smooth="yes"/>
      <point x="555" y="1386"/>
      <point x="640" y="1441"/>
      <point x="698" y="1441" type="curve" smooth="yes"/>
      <point x="764" y="1441"/>
      <point x="773" y="1381"/>
      <point x="726" y="1238" type="curve" smooth="yes"/>
      <point x="421" y="291" type="line" smooth="yes"/>
      <point x="369" y="128"/>
      <point x="324" y="66"/>
      <point x="255" y="66" type="curve" smooth="yes"/>
      <point x="195" y="66"/>
      <point x="148" y="128"/>
      <point x="120" y="243" type="curve" smooth="yes"/>
      <point x="114" y="269"/>
      <point x="104" y="280"/>
      <point x="71" y="273" type="curve" smooth="yes"/>
      <point x="44" y="266"/>
      <point x="36" y="250"/>
      <point x="43" y="220" type="curve" smooth="yes"/>
      <point x="73" y="70"/>
      <point x="150" y="-19"/>
      <point x="251" y="-19" type="curve" smooth="yes"/>
      <point x="361" y="-19"/>
      <point x="438" y="69"/>
      <point x="504" y="273" type="curve" smooth="yes"/>
      <point x="654" y="736" type="line"/>
      <point x="785" y="384" type="line" smooth="yes"/>
      <point x="898" y="83"/>
      <point x="991" y="-17"/>
    </contour>
  </outline>
</glyph>
<glyph name="L.cur.ini" format="2">
  <advance width="1135"/>
  <anchor x="1044" y="764" name="CAT"/>
  <anchor x="598" y="0" name="bottom"/>
  <anchor x="566" y="765" name="center"/>
  <anchor x="1055" y="0" name="cnct"/>
  <anchor x="1006" y="1424" name="top"/>
  <anchor x="1325" y="1488" name="topright"/>
  <outline>
    <contour>
      <point x="141" y="-21" type="curve" smooth="yes"/>
      <point x="284" y="-21"/>
      <point x="395" y="94"/>
      <point x="483" y="363" type="curve" smooth="yes"/>
      <point x="718" y="1089" type="line" smooth="yes"/>
      <point x="793" y="1320"/>
      <point x="886" y="1435"/>
      <point x="1015" y="1435" type="curve" smooth="yes"/>
      <point x="1096" y="1435"/>
      <point x="1171" y="1369"/>
      <point x="1213" y="1230" type="curve" smooth="yes"/>
      <point x="1221" y="1201"/>
      <point x="1239" y="1196"/>
      <point x="1265" y="1206" type="curve" smooth="yes"/>
      <point x="1290" y="1215"/>
      <point x="1295" y="1231"/>
      <point x="1288" y="1256" type="curve" smooth="yes"/>
      <point x="1239" y="1425"/>
      <point x="1141" y="1515"/>
      <point x="1029" y="1515" type="curve" smooth="yes"/>
      <point x="853" y="1515"/>
      <point x="726" y="1388"/>
      <point x="631" y="1094" type="curve" smooth="yes"/>
      <point x="401" y="385" type="line" smooth="yes"/>
      <point x="328" y="158"/>
      <point x="245" y="61"/>
      <point x="156" y="61" type="curve" smooth="yes"/>
      <point x="124" y="61"/>
      <point x="101" y="83"/>
      <point x="101" y="111" type="curve" smooth="yes"/>
      <point x="101" y="164"/>
      <point x="154" y="203"/>
      <point x="251" y="203" type="curve" smooth="yes"/>
      <point x="549" y="203"/>
      <point x="816" y="-17"/>
      <point x="968" y="-17" type="curve" smooth="yes"/>
      <point x="1018" y="-17"/>
      <point x="1036" y="58"/>
      <point x="986" y="58" type="curve" smooth="yes"/>
      <point x="864" y="58"/>
      <point x="571" y="285"/>
      <point x="258" y="285" type="curve" smooth="yes"/>
      <point x="103" y="285"/>
      <point x="9" y="210"/>
      <point x="9" y="105" type="curve" smooth="yes"/>
      <point x="9" y="31"/>
      <point x="65" y="-21"/>
    </contour>
  </outline>
</glyph>
<glyph name="L.dec" format="2">
  <advance width="1260"/>
  <anchor x="1088" y="715" name="CAT"/>
  <anchor x="641" y="0" name="bottom"/>
  <anchor x="573" y="650" name="center"/>
  <anchor x="1050" y="1424" name="top"/>
  <anchor x="1388" y="1488" name="topright"/>
  <outline>
    <contour>
      <point x="799" y="-11" type="curve" smooth="yes"/>
      <point x="991" y="-11"/>
      <point x="1128" y="88"/>
      <point x="1258" y="321" type="curve" smooth="yes"/>
      <point x="1268" y="340"/>
      <point x="1260" y="358"/>
      <point x="1239" y="369" type="curve" smooth="yes"/>
      <point x="1216" y="383"/>
      <point x="1196" y="381"/>
      <point x="1185" y="363" type="curve" smooth="yes"/>
      <point x="1066" y="159"/>
      <point x="954" y="73"/>
      <point x="809" y="73" type="curve" smooth="yes"/>
      <point x="594" y="73"/>
      <point x="380" y="288"/>
      <point x="209" y="288" type="curve" smooth="yes"/>
      <point x="120" y="288"/>
      <point x="56" y="229"/>
      <point x="56" y="141" type="curve" smooth="yes"/>
      <point x="56" y="58"/>
      <point x="138" y="-17"/>
      <point x="245" y="-17" type="curve" smooth="yes"/>
      <point x="350" y="-17"/>
      <point x="423" y="66"/>
      <point x="489" y="264" type="curve" smooth="yes"/>
      <point x="706" y="911" type="line" smooth="yes"/>
      <point x="814" y="1233"/>
      <point x="965" y="1430"/>
      <point x="1131" y="1430" type="curve" smooth="yes"/>
      <point x="1199" y="1430"/>
      <point x="1248" y="1393"/>
      <point x="1248" y="1316" type="curve" smooth="yes"/>
      <point x="1248" y="1160"/>
      <point x="1085" y="1035"/>
      <point x="891" y="1035" type="curve" smooth="yes"/>
      <point x="701" y="1035"/>
      <point x="569" y="1080"/>
      <point x="429" y="1171" type="curve" smooth="yes"/>
      <point x="409" y="1185"/>
      <point x="393" y="1181"/>
      <point x="379" y="1161" type="curve" smooth="yes"/>
      <point x="363" y="1138"/>
      <point x="366" y="1118"/>
      <point x="389" y="1104" type="curve" smooth="yes"/>
      <point x="544" y="1004"/>
      <point x="679" y="953"/>
      <point x="889" y="953" type="curve" smooth="yes"/>
      <point x="1138" y="953"/>
      <point x="1339" y="1113"/>
      <point x="1339" y="1320" type="curve" smooth="yes"/>
      <point x="1339" y="1438"/>
      <point x="1251" y="1515"/>
      <point x="1138" y="1515" type="curve" smooth="yes"/>
      <point x="928" y="1515"/>
      <point x="746" y="1296"/>
      <point x="625" y="934" type="curve" smooth="yes"/>
      <point x="406" y="283" type="line" smooth="yes"/>
      <point x="354" y="128"/>
      <point x="306" y="63"/>
      <point x="244" y="63" type="curve" smooth="yes"/>
      <point x="188" y="63"/>
      <point x="148" y="101"/>
      <point x="148" y="149" type="curve" smooth="yes"/>
      <point x="148" y="186"/>
      <point x="176" y="208"/>
      <point x="215" y="208" type="curve" smooth="yes"/>
      <point x="348" y="208"/>
      <point x="563" y="-11"/>
    </contour>
  </outline>
</glyph>
<glyph name="L.dec.ini" format="2">
  <advance width="1174"/>
  <anchor x="1088" y="715" name="CAT"/>
  <anchor x="641" y="0" name="bottom"/>
  <anchor x="573" y="650" name="center"/>
  <anchor x="1093" y="0" name="cnct"/>
  <anchor x="1050" y="1424" name="top"/>
  <anchor x="1388" y="1488" name="topright"/>
  <outline>
    <contour>
      <point x="180" y="-21" type="curve" smooth="yes"/>
      <point x="323" y="-21"/>
      <point x="431" y="95"/>
      <point x="521" y="363" type="curve" smooth="yes"/>
      <point x="706" y="911" type="line" smooth="yes"/>
      <point x="815" y="1233"/>
      <point x="965" y="1430"/>
      <point x="1131" y="1430" type="curve" smooth="yes"/>
      <point x="1199" y="1430"/>
      <point x="1248" y="1393"/>
      <point x="1248" y="1316" type="curve" smooth="yes"/>
      <point x="1248" y="1160"/>
      <point x="1085" y="1035"/>
      <point x="891" y="1035" type="curve" smooth="yes"/>
      <point x="701" y="1035"/>
      <point x="569" y="1080"/>
      <point x="429" y="1171" type="curve" smooth="yes"/>
      <point x="409" y="1185"/>
      <point x="393" y="1181"/>
      <point x="379" y="1161" type="curve" smooth="yes"/>
      <point x="363" y="1138"/>
      <point x="366" y="1118"/>
      <point x="389" y="1104" type="curve" smooth="yes"/>
      <point x="544" y="1004"/>
      <point x="679" y="953"/>
      <point x="889" y="953" type="curve" smooth="yes"/>
      <point x="1138" y="953"/>
      <point x="1339" y="1113"/>
      <point x="1339" y="1320" type="curve" smooth="yes"/>
      <point x="1339" y="1438"/>
      <point x="1251" y="1515"/>
      <point x="1138" y="1515" type="curve" smooth="yes"/>
      <point x="928" y="1515"/>
      <point x="748" y="1296"/>
      <point x="625" y="934" type="curve" smooth="yes"/>
      <point x="440" y="385" type="line" smooth="yes"/>
      <point x="364" y="159"/>
      <point x="284" y="61"/>
      <point x="195" y="61" type="curve" smooth="yes"/>
      <point x="163" y="61"/>
      <point x="140" y="83"/>
      <point x="140" y="111" type="curve" smooth="yes"/>
      <point x="140" y="164"/>
      <point x="193" y="203"/>
      <point x="290" y="203" type="curve" smooth="yes"/>
      <point x="588" y="203"/>
      <point x="855" y="-17"/>
      <point x="1006" y="-17" type="curve" smooth="yes"/>
      <point x="1056" y="-17"/>
      <point x="1075" y="58"/>
      <point x="1025" y="58" type="curve" smooth="yes"/>
      <point x="903" y="58"/>
      <point x="610" y="285"/>
      <point x="296" y="285" type="curve" smooth="yes"/>
      <point x="141" y="285"/>
      <point x="48" y="210"/>
      <point x="48" y="105" type="curve" smooth="yes"/>
      <point x="48" y="31"/>
      <point x="104" y="-21"/>
    </contour>
  </outline>
</glyph>
<glyph name="M.cur.ini" format="2">
  <advance width="1949"/>
  <anchor x="928" y="0" name="bottom"/>
  <anchor x="1868" y="0" name="cnct"/>
  <anchor x="1448" y="1424" name="top"/>
  <outline>
    <contour>
      <point x="1781" y="-17" type="curve" smooth="yes"/>
      <point x="1831" y="-17"/>
      <point x="1850" y="58"/>
      <point x="1800" y="58" type="curve" smooth="yes"/>
      <point x="1684" y="58"/>
      <point x="1673" y="210"/>
      <point x="1766" y="495" type="curve" smooth="yes"/>
      <point x="1985" y="1161" type="line" smooth="yes"/>
      <point x="2058" y="1384"/>
      <point x="2005" y="1515"/>
      <point x="1849" y="1515" type="curve" smooth="yes"/>
      <point x="1711" y="1515"/>
      <point x="1425" y="1369"/>
      <point x="1221" y="834" type="curve"/>
      <point x="1199" y="654" type="line"/>
      <point x="1420" y="1275"/>
      <point x="1714" y="1430"/>
      <point x="1830" y="1430" type="curve" smooth="yes"/>
      <point x="1921" y="1430"/>
      <point x="1955" y="1348"/>
      <point x="1900" y="1180" type="curve" smooth="yes"/>
      <point x="1681" y="511" type="line" smooth="yes"/>
      <point x="1569" y="166"/>
      <point x="1603" y="-17"/>
    </contour>
    <contour>
      <point x="328" y="-14" type="curve" smooth="yes"/>
      <point x="358" y="-14"/>
      <point x="373" y="-5"/>
      <point x="379" y="14" type="curve" smooth="yes"/>
      <point x="798" y="1309" type="line" smooth="yes"/>
      <point x="840" y="1441"/>
      <point x="810" y="1513"/>
      <point x="709" y="1513" type="curve" smooth="yes"/>
      <point x="611" y="1513"/>
      <point x="505" y="1423"/>
      <point x="380" y="1235" type="curve" smooth="yes"/>
      <point x="363" y="1209"/>
      <point x="364" y="1193"/>
      <point x="388" y="1178" type="curve" smooth="yes"/>
      <point x="411" y="1163"/>
      <point x="429" y="1166"/>
      <point x="449" y="1195" type="curve" smooth="yes"/>
      <point x="564" y="1360"/>
      <point x="635" y="1430"/>
      <point x="691" y="1430" type="curve" smooth="yes"/>
      <point x="730" y="1430"/>
      <point x="735" y="1395"/>
      <point x="711" y="1321" type="curve" smooth="yes"/>
      <point x="289" y="16" type="line" smooth="yes"/>
      <point x="283" y="-5"/>
      <point x="298" y="-14"/>
    </contour>
    <contour>
      <point x="943" y="-14" type="curve" smooth="yes"/>
      <point x="973" y="-14"/>
      <point x="988" y="-5"/>
      <point x="994" y="14" type="curve" smooth="yes"/>
      <point x="1366" y="1161" type="line" smooth="yes"/>
      <point x="1439" y="1383"/>
      <point x="1386" y="1515"/>
      <point x="1234" y="1515" type="curve" smooth="yes"/>
      <point x="1096" y="1515"/>
      <point x="810" y="1369"/>
      <point x="606" y="834" type="curve"/>
      <point x="584" y="654" type="line"/>
      <point x="805" y="1275"/>
      <point x="1099" y="1430"/>
      <point x="1215" y="1430" type="curve" smooth="yes"/>
      <point x="1301" y="1430"/>
      <point x="1335" y="1346"/>
      <point x="1281" y="1180" type="curve" smooth="yes"/>
      <point x="904" y="16" type="line" smooth="yes"/>
      <point x="896" y="-5"/>
      <point x="913" y="-14"/>
    </contour>
  </outline>
</glyph>
<glyph name="M_locl" format="2">
  <advance width="1676"/>
  <anchor x="758" y="0" name="bottom"/>
  <anchor x="1159" y="1425" name="top"/>
  <outline>
    <contour>
      <point x="54" y="-14" type="curve" smooth="yes"/>
      <point x="88" y="-14"/>
      <point x="98" y="-7"/>
      <point x="114" y="26" type="curve" smooth="yes"/>
      <point x="730" y="1336" type="line"/>
      <point x="714" y="31" type="line" smooth="yes"/>
      <point x="714" y="-4"/>
      <point x="730" y="-14"/>
      <point x="754" y="-14" type="curve" smooth="yes"/>
      <point x="789" y="-14"/>
      <point x="804" y="-7"/>
      <point x="824" y="26" type="curve" smooth="yes"/>
      <point x="1604" y="1329" type="line"/>
      <point x="1423" y="23" type="line" smooth="yes"/>
      <point x="1419" y="-4"/>
      <point x="1429" y="-14"/>
      <point x="1459" y="-14" type="curve" smooth="yes"/>
      <point x="1494" y="-14"/>
      <point x="1505" y="4"/>
      <point x="1509" y="31" type="curve" smooth="yes"/>
      <point x="1706" y="1464" type="line" smooth="yes"/>
      <point x="1713" y="1506"/>
      <point x="1688" y="1515"/>
      <point x="1663" y="1515" type="curve" smooth="yes"/>
      <point x="1630" y="1515"/>
      <point x="1614" y="1505"/>
      <point x="1595" y="1475" type="curve" smooth="yes"/>
      <point x="800" y="148" type="line"/>
      <point x="816" y="1464" type="line" smooth="yes"/>
      <point x="816" y="1506"/>
      <point x="798" y="1515"/>
      <point x="773" y="1515" type="curve" smooth="yes"/>
      <point x="740" y="1515"/>
      <point x="718" y="1505"/>
      <point x="704" y="1475" type="curve" smooth="yes"/>
      <point x="26" y="39" type="line" smooth="yes"/>
      <point x="13" y="10"/>
      <point x="19" y="-14"/>
    </contour>
  </outline>
</glyph>
<glyph name="N.dec" format="2">
  <advance width="1681"/>
  <anchor x="743" y="0" name="bottom"/>
  <anchor x="1279" y="1424" name="top"/>
  <outline>
    <contour>
      <point x="224" y="-17" type="curve" smooth="yes"/>
      <point x="415" y="-17"/>
      <point x="544" y="244"/>
      <point x="791" y="1009" type="curve" smooth="yes"/>
      <point x="889" y="1309" type="line"/>
      <point x="1098" y="23" type="line" smooth="yes"/>
      <point x="1101" y="-1"/>
      <point x="1118" y="-14"/>
      <point x="1145" y="-14" type="curve" smooth="yes"/>
      <point x="1174" y="-14"/>
      <point x="1191" y="-2"/>
      <point x="1199" y="19" type="curve" smooth="yes"/>
      <point x="1464" y="824" type="line" smooth="yes"/>
      <point x="1620" y="1300"/>
      <point x="1710" y="1433"/>
      <point x="1834" y="1433" type="curve" smooth="yes"/>
      <point x="1879" y="1433"/>
      <point x="1934" y="1416"/>
      <point x="2004" y="1384" type="curve" smooth="yes"/>
      <point x="2028" y="1373"/>
      <point x="2043" y="1379"/>
      <point x="2054" y="1404" type="curve" smooth="yes"/>
      <point x="2065" y="1430"/>
      <point x="2063" y="1441"/>
      <point x="2039" y="1455" type="curve" smooth="yes"/>
      <point x="1981" y="1490"/>
      <point x="1900" y="1515"/>
      <point x="1840" y="1515" type="curve" smooth="yes"/>
      <point x="1648" y="1515"/>
      <point x="1544" y="1344"/>
      <point x="1379" y="843" type="curve" smooth="yes"/>
      <point x="1160" y="176" type="line"/>
      <point x="951" y="1463" type="line" smooth="yes"/>
      <point x="946" y="1491"/>
      <point x="929" y="1501"/>
      <point x="904" y="1501" type="curve" smooth="yes"/>
      <point x="876" y="1501"/>
      <point x="858" y="1493"/>
      <point x="850" y="1469" type="curve" smooth="yes"/>
      <point x="708" y="1031" type="line" smooth="yes"/>
      <point x="473" y="311"/>
      <point x="351" y="65"/>
      <point x="231" y="65" type="curve" smooth="yes"/>
      <point x="190" y="65"/>
      <point x="165" y="101"/>
      <point x="165" y="161" type="curve" smooth="yes"/>
      <point x="165" y="235"/>
      <point x="185" y="314"/>
      <point x="234" y="430" type="curve" smooth="yes"/>
      <point x="248" y="461"/>
      <point x="240" y="475"/>
      <point x="214" y="485" type="curve" smooth="yes"/>
      <point x="188" y="495"/>
      <point x="174" y="491"/>
      <point x="159" y="460" type="curve" smooth="yes"/>
      <point x="100" y="336"/>
      <point x="75" y="249"/>
      <point x="75" y="161" type="curve" smooth="yes"/>
      <point x="75" y="50"/>
      <point x="131" y="-17"/>
    </contour>
  </outline>
</glyph>
<glyph name="O.cur" format="2">
  <advance width="1440"/>
  <anchor x="636" y="0" name="bottom"/>
  <anchor x="879" y="744" name="center"/>
  <anchor x="1216" y="21" name="ogonek"/>
  <anchor x="1063" y="1424" name="top"/>
  <anchor x="1233" y="1488" name="topright"/>
  <outline>
    <contour>
      <point x="703" y="-19" type="curve" smooth="yes"/>
      <point x="1156" y="-19"/>
      <point x="1518" y="465"/>
      <point x="1518" y="1040" type="curve" smooth="yes"/>
      <point x="1518" y="1350"/>
      <point x="1404" y="1515"/>
      <point x="1184" y="1515" type="curve" smooth="yes"/>
      <point x="1003" y="1515"/>
      <point x="836" y="1389"/>
      <point x="668" y="1124" type="curve" smooth="yes"/>
      <point x="654" y="1101"/>
      <point x="655" y="1084"/>
      <point x="674" y="1070" type="curve" smooth="yes"/>
      <point x="699" y="1053"/>
      <point x="718" y="1054"/>
      <point x="733" y="1076" type="curve" smooth="yes"/>
      <point x="874" y="1308"/>
      <point x="1025" y="1430"/>
      <point x="1169" y="1430" type="curve" smooth="yes"/>
      <point x="1338" y="1430"/>
      <point x="1424" y="1295"/>
      <point x="1424" y="1040" type="curve" smooth="yes"/>
      <point x="1424" y="515"/>
      <point x="1104" y="66"/>
      <point x="716" y="66" type="curve" smooth="yes"/>
      <point x="478" y="66"/>
      <point x="340" y="225"/>
      <point x="340" y="493" type="curve" smooth="yes"/>
      <point x="340" y="809"/>
      <point x="509" y="1179"/>
      <point x="735" y="1345" type="curve" smooth="yes"/>
      <point x="760" y="1364"/>
      <point x="764" y="1383"/>
      <point x="748" y="1405" type="curve" smooth="yes"/>
      <point x="733" y="1426"/>
      <point x="715" y="1428"/>
      <point x="686" y="1408" type="curve" smooth="yes"/>
      <point x="434" y="1231"/>
      <point x="246" y="835"/>
      <point x="246" y="493" type="curve" smooth="yes"/>
      <point x="246" y="171"/>
      <point x="418" y="-19"/>
    </contour>
  </outline>
</glyph>
<glyph name="O.dec" format="2">
  <advance width="1528"/>
  <anchor x="636" y="0" name="bottom"/>
  <anchor x="879" y="744" name="center"/>
  <anchor x="1216" y="21" name="ogonek"/>
  <anchor x="1063" y="1424" name="top"/>
  <anchor x="1274" y="1478" name="topright"/>
  <outline>
    <contour>
      <point x="1090" y="1515" type="curve" smooth="yes"/>
      <point x="889" y="1515"/>
      <point x="719" y="1358"/>
      <point x="719" y="1171" type="curve" smooth="yes"/>
      <point x="719" y="964"/>
      <point x="875" y="859"/>
      <point x="1150" y="859" type="curve" smooth="yes"/>
      <point x="1303" y="859"/>
      <point x="1508" y="899"/>
      <point x="1759" y="988" type="curve" smooth="yes"/>
      <point x="1783" y="996"/>
      <point x="1793" y="1013"/>
      <point x="1785" y="1036" type="curve" smooth="yes"/>
      <point x="1776" y="1065"/>
      <point x="1760" y="1075"/>
      <point x="1735" y="1066" type="curve" smooth="yes"/>
      <point x="1533" y="990"/>
      <point x="1323" y="944"/>
      <point x="1153" y="944" type="curve" smooth="yes"/>
      <point x="929" y="944"/>
      <point x="813" y="1019"/>
      <point x="813" y="1178" type="curve" smooth="yes"/>
      <point x="813" y="1326"/>
      <point x="921" y="1430"/>
      <point x="1078" y="1430" type="curve" smooth="yes"/>
      <point x="1303" y="1430"/>
      <point x="1421" y="1283"/>
      <point x="1421" y="1031" type="curve" smooth="yes"/>
      <point x="1421" y="620"/>
      <point x="1135" y="66"/>
      <point x="701" y="66" type="curve" smooth="yes"/>
      <point x="481" y="66"/>
      <point x="348" y="211"/>
      <point x="348" y="470" type="curve" smooth="yes"/>
      <point x="348" y="849"/>
      <point x="584" y="1346"/>
      <point x="989" y="1434" type="curve" smooth="yes"/>
      <point x="1023" y="1441"/>
      <point x="1033" y="1456"/>
      <point x="1025" y="1484" type="curve" smooth="yes"/>
      <point x="1018" y="1510"/>
      <point x="1004" y="1516"/>
      <point x="961" y="1508" type="curve" smooth="yes"/>
      <point x="510" y="1413"/>
      <point x="254" y="881"/>
      <point x="254" y="470" type="curve" smooth="yes"/>
      <point x="254" y="158"/>
      <point x="424" y="-19"/>
      <point x="693" y="-19" type="curve" smooth="yes"/>
      <point x="1201" y="-19"/>
      <point x="1515" y="583"/>
      <point x="1515" y="1030" type="curve" smooth="yes"/>
      <point x="1515" y="1328"/>
      <point x="1369" y="1515"/>
    </contour>
  </outline>
</glyph>
<glyph name="OE.cur.ini" format="2">
  <advance width="2007"/>
  <anchor x="1926" y="0" name="cnct"/>
  <anchor x="1448" y="1424" name="top"/>
  <outline>
    <contour>
      <point x="665" y="-19" type="curve" smooth="yes"/>
      <point x="1035" y="-19"/>
      <point x="1441" y="585"/>
      <point x="1441" y="1104" type="curve" smooth="yes"/>
      <point x="1441" y="1373"/>
      <point x="1341" y="1515"/>
      <point x="1146" y="1515" type="curve" smooth="yes"/>
      <point x="978" y="1515"/>
      <point x="833" y="1383"/>
      <point x="668" y="1124" type="curve" smooth="yes"/>
      <point x="654" y="1101"/>
      <point x="655" y="1084"/>
      <point x="674" y="1070" type="curve" smooth="yes"/>
      <point x="699" y="1053"/>
      <point x="718" y="1054"/>
      <point x="733" y="1076" type="curve" smooth="yes"/>
      <point x="870" y="1303"/>
      <point x="1000" y="1430"/>
      <point x="1131" y="1430" type="curve" smooth="yes"/>
      <point x="1275" y="1430"/>
      <point x="1348" y="1316"/>
      <point x="1348" y="1104" type="curve" smooth="yes"/>
      <point x="1348" y="635"/>
      <point x="983" y="66"/>
      <point x="679" y="66" type="curve" smooth="yes"/>
      <point x="464" y="66"/>
      <point x="340" y="225"/>
      <point x="340" y="493" type="curve" smooth="yes"/>
      <point x="340" y="809"/>
      <point x="509" y="1179"/>
      <point x="735" y="1345" type="curve" smooth="yes"/>
      <point x="760" y="1364"/>
      <point x="764" y="1383"/>
      <point x="748" y="1405" type="curve" smooth="yes"/>
      <point x="733" y="1426"/>
      <point x="715" y="1428"/>
      <point x="686" y="1408" type="curve" smooth="yes"/>
      <point x="434" y="1231"/>
      <point x="246" y="835"/>
      <point x="246" y="493" type="curve" smooth="yes"/>
      <point x="246" y="171"/>
      <point x="404" y="-19"/>
    </contour>
    <contour>
      <point x="1544" y="-17" type="curve" smooth="yes"/>
      <point x="1584" y="-17"/>
      <point x="1594" y="60"/>
      <point x="1554" y="60" type="curve" smooth="yes"/>
      <point x="1373" y="60"/>
      <point x="1255" y="160"/>
      <point x="1255" y="314" type="curve" smooth="yes"/>
      <point x="1255" y="565"/>
      <point x="1450" y="746"/>
      <point x="1730" y="746" type="curve" smooth="yes"/>
      <point x="1901" y="746" type="line" smooth="yes"/>
      <point x="1916" y="746"/>
      <point x="1930" y="760"/>
      <point x="1938" y="786" type="curve" smooth="yes"/>
      <point x="1945" y="814"/>
      <point x="1939" y="826"/>
      <point x="1924" y="826" type="curve" smooth="yes"/>
      <point x="1768" y="826" type="line" smooth="yes"/>
      <point x="1631" y="826"/>
      <point x="1559" y="913"/>
      <point x="1559" y="1058" type="curve" smooth="yes"/>
      <point x="1559" y="1249"/>
      <point x="1701" y="1430"/>
      <point x="1896" y="1430" type="curve" smooth="yes"/>
      <point x="2011" y="1430"/>
      <point x="2109" y="1373"/>
      <point x="2173" y="1280" type="curve" smooth="yes"/>
      <point x="2185" y="1261"/>
      <point x="2203" y="1260"/>
      <point x="2225" y="1276" type="curve" smooth="yes"/>
      <point x="2245" y="1291"/>
      <point x="2249" y="1308"/>
      <point x="2236" y="1326" type="curve" smooth="yes"/>
      <point x="2170" y="1445"/>
      <point x="2049" y="1515"/>
      <point x="1913" y="1515" type="curve" smooth="yes"/>
      <point x="1654" y="1515"/>
      <point x="1465" y="1298"/>
      <point x="1465" y="1058" type="curve" smooth="yes"/>
      <point x="1465" y="945"/>
      <point x="1523" y="835"/>
      <point x="1608" y="800" type="curve"/>
      <point x="1350" y="755"/>
      <point x="1161" y="558"/>
      <point x="1161" y="314" type="curve" smooth="yes"/>
      <point x="1161" y="114"/>
      <point x="1313" y="-17"/>
    </contour>
  </outline>
</glyph>
<glyph name="P.dec" format="2">
  <advance width="1194"/>
  <outline>
    <contour>
      <point x="690" y="583" type="curve" smooth="yes"/>
      <point x="1123" y="613"/>
      <point x="1436" y="903"/>
      <point x="1436" y="1264" type="curve" smooth="yes"/>
      <point x="1436" y="1415"/>
      <point x="1353" y="1515"/>
      <point x="1213" y="1515" type="curve" smooth="yes"/>
      <point x="1050" y="1515"/>
      <point x="878" y="1385"/>
      <point x="733" y="1165" type="curve"/>
      <point x="836" y="1485" type="line" smooth="yes"/>
      <point x="844" y="1506"/>
      <point x="828" y="1515"/>
      <point x="798" y="1515" type="curve" smooth="yes"/>
      <point x="769" y="1515"/>
      <point x="755" y="1508"/>
      <point x="736" y="1479" type="curve" smooth="yes"/>
      <point x="635" y="1324"/>
      <point x="498" y="1190"/>
      <point x="329" y="1081" type="curve" smooth="yes"/>
      <point x="306" y="1066"/>
      <point x="303" y="1048"/>
      <point x="318" y="1024" type="curve" smooth="yes"/>
      <point x="333" y="1000"/>
      <point x="348" y="990"/>
      <point x="376" y="1010" type="curve" smooth="yes"/>
      <point x="495" y="1095"/>
      <point x="593" y="1174"/>
      <point x="676" y="1271" type="curve"/>
      <point x="271" y="16" type="line" smooth="yes"/>
      <point x="264" y="-5"/>
      <point x="280" y="-14"/>
      <point x="310" y="-14" type="curve" smooth="yes"/>
      <point x="340" y="-14"/>
      <point x="355" y="-5"/>
      <point x="361" y="14" type="curve" smooth="yes"/>
      <point x="596" y="741" type="line"/>
      <point x="734" y="1133"/>
      <point x="1000" y="1430"/>
      <point x="1200" y="1430" type="curve" smooth="yes"/>
      <point x="1294" y="1430"/>
      <point x="1343" y="1364"/>
      <point x="1343" y="1256" type="curve" smooth="yes"/>
      <point x="1343" y="940"/>
      <point x="1066" y="696"/>
      <point x="691" y="666" type="curve" smooth="yes"/>
      <point x="669" y="665"/>
      <point x="658" y="651"/>
      <point x="654" y="624" type="curve" smooth="yes"/>
      <point x="649" y="594"/>
      <point x="663" y="580"/>
    </contour>
  </outline>
</glyph>
<glyph name="Q.cur.ini" format="2">
  <advance width="1459"/>
  <anchor x="1378" y="0" name="cnct"/>
  <outline>
    <contour>
      <point x="1291" y="-17" type="curve" smooth="yes"/>
      <point x="1341" y="-17"/>
      <point x="1360" y="58"/>
      <point x="1310" y="58" type="curve" smooth="yes"/>
      <point x="1154" y="58"/>
      <point x="970" y="466"/>
      <point x="648" y="466" type="curve" smooth="yes"/>
      <point x="526" y="466"/>
      <point x="436" y="381"/>
      <point x="436" y="246" type="curve" smooth="yes"/>
      <point x="436" y="98"/>
      <point x="558" y="-19"/>
      <point x="725" y="-19" type="curve" smooth="yes"/>
      <point x="1144" y="-19"/>
      <point x="1499" y="479"/>
      <point x="1499" y="1015" type="curve" smooth="yes"/>
      <point x="1499" y="1329"/>
      <point x="1338" y="1515"/>
      <point x="1063" y="1515" type="curve" smooth="yes"/>
      <point x="623" y="1515"/>
      <point x="260" y="1023"/>
      <point x="260" y="493" type="curve" smooth="yes"/>
      <point x="260" y="418"/>
      <point x="271" y="349"/>
      <point x="290" y="308" type="curve" smooth="yes"/>
      <point x="306" y="273"/>
      <point x="371" y="291"/>
      <point x="364" y="336" type="curve" smooth="yes"/>
      <point x="358" y="374"/>
      <point x="354" y="428"/>
      <point x="354" y="493" type="curve" smooth="yes"/>
      <point x="354" y="975"/>
      <point x="669" y="1431"/>
      <point x="1048" y="1431" type="curve" smooth="yes"/>
      <point x="1271" y="1431"/>
      <point x="1405" y="1276"/>
      <point x="1405" y="1015" type="curve" smooth="yes"/>
      <point x="1405" y="529"/>
      <point x="1091" y="66"/>
      <point x="739" y="66" type="curve" smooth="yes"/>
      <point x="618" y="66"/>
      <point x="529" y="149"/>
      <point x="529" y="249" type="curve" smooth="yes"/>
      <point x="529" y="335"/>
      <point x="579" y="379"/>
      <point x="645" y="379" type="curve" smooth="yes"/>
      <point x="936" y="379"/>
      <point x="1098" y="-17"/>
    </contour>
  </outline>
</glyph>
<glyph name="Q.cur_locl" format="2">
  <advance width="1479"/>
  <anchor x="635" y="0" name="bottom"/>
  <anchor x="878" y="744" name="center"/>
  <anchor x="1215" y="21" name="ogonek"/>
  <anchor x="1063" y="1424" name="top"/>
  <anchor x="1336" y="1424" name="topright"/>
  <outline>
    <contour>
      <point x="1160" y="-175" type="curve" smooth="yes"/>
      <point x="1258" y="-175"/>
      <point x="1355" y="-90"/>
      <point x="1430" y="73" type="curve" smooth="yes"/>
      <point x="1440" y="94"/>
      <point x="1441" y="105"/>
      <point x="1421" y="123" type="curve" smooth="yes"/>
      <point x="1401" y="139"/>
      <point x="1374" y="140"/>
      <point x="1364" y="118" type="curve" smooth="yes"/>
      <point x="1303" y="-24"/>
      <point x="1235" y="-90"/>
      <point x="1163" y="-90" type="curve" smooth="yes"/>
      <point x="1016" y="-90"/>
      <point x="919" y="466"/>
      <point x="685" y="466" type="curve" smooth="yes"/>
      <point x="633" y="466"/>
      <point x="630" y="379"/>
      <point x="683" y="379" type="curve" smooth="yes"/>
      <point x="851" y="379"/>
      <point x="943" y="-175"/>
    </contour>
    <component base="O"/>
  </outline>
</glyph>
<glyph name="Q.dec" format="2">
  <advance width="1653"/>
  <outline>
    <contour>
      <point x="628" y="-17" type="curve" smooth="yes"/>
      <point x="771" y="-17"/>
      <point x="920" y="54"/>
      <point x="1054" y="165" type="curve"/>
      <point x="1101" y="68"/>
      <point x="1156" y="-17"/>
      <point x="1259" y="-17" type="curve" smooth="yes"/>
      <point x="1370" y="-17"/>
      <point x="1480" y="64"/>
      <point x="1598" y="231" type="curve" smooth="yes"/>
      <point x="1615" y="254"/>
      <point x="1606" y="273"/>
      <point x="1585" y="286" type="curve" smooth="yes"/>
      <point x="1566" y="300"/>
      <point x="1550" y="301"/>
      <point x="1535" y="280" type="curve" smooth="yes"/>
      <point x="1441" y="143"/>
      <point x="1350" y="68"/>
      <point x="1270" y="68" type="curve" smooth="yes"/>
      <point x="1201" y="68"/>
      <point x="1163" y="140"/>
      <point x="1121" y="228" type="curve"/>
      <point x="1344" y="446"/>
      <point x="1509" y="773"/>
      <point x="1509" y="1039" type="curve" smooth="yes"/>
      <point x="1509" y="1241"/>
      <point x="1411" y="1364"/>
      <point x="1253" y="1364" type="curve" smooth="yes"/>
      <point x="1029" y="1364"/>
      <point x="814" y="1120"/>
      <point x="684" y="721" type="curve" smooth="yes"/>
      <point x="660" y="646"/>
      <point x="636" y="560"/>
      <point x="615" y="468" type="curve"/>
      <point x="580" y="446"/>
      <point x="558" y="416"/>
      <point x="558" y="385" type="curve" smooth="yes"/>
      <point x="558" y="353"/>
      <point x="583" y="330"/>
      <point x="616" y="330" type="curve" smooth="yes"/>
      <point x="661" y="330"/>
      <point x="684" y="365"/>
      <point x="698" y="430" type="curve"/>
      <point x="879" y="491"/>
      <point x="953" y="373"/>
      <point x="1016" y="243" type="curve"/>
      <point x="896" y="136"/>
      <point x="764" y="68"/>
      <point x="638" y="68" type="curve" smooth="yes"/>
      <point x="435" y="68"/>
      <point x="340" y="201"/>
      <point x="340" y="423" type="curve" smooth="yes"/>
      <point x="340" y="819"/>
      <point x="605" y="1314"/>
      <point x="1039" y="1434" type="curve" smooth="yes"/>
      <point x="1056" y="1439"/>
      <point x="1064" y="1454"/>
      <point x="1058" y="1480" type="curve" smooth="yes"/>
      <point x="1050" y="1513"/>
      <point x="1036" y="1519"/>
      <point x="1014" y="1513" type="curve" smooth="yes"/>
      <point x="544" y="1381"/>
      <point x="249" y="866"/>
      <point x="249" y="420" type="curve" smooth="yes"/>
      <point x="249" y="146"/>
      <point x="385" y="-17"/>
    </contour>
    <contour>
      <point x="1244" y="1276" type="curve" smooth="yes"/>
      <point x="1351" y="1276"/>
      <point x="1418" y="1186"/>
      <point x="1418" y="1039" type="curve" smooth="yes"/>
      <point x="1418" y="800"/>
      <point x="1274" y="508"/>
      <point x="1083" y="306" type="curve"/>
      <point x="1018" y="434"/>
      <point x="926" y="555"/>
      <point x="715" y="504" type="curve"/>
      <point x="731" y="569"/>
      <point x="749" y="634"/>
      <point x="770" y="700" type="curve" smooth="yes"/>
      <point x="886" y="1058"/>
      <point x="1066" y="1276"/>
    </contour>
  </outline>
</glyph>
<glyph name="Q.dec.ini" format="2">
  <advance width="1421"/>
  <anchor x="1340" y="0" name="cnct"/>
  <outline>
    <contour>
      <point x="628" y="-17" type="curve" smooth="yes"/>
      <point x="779" y="-17"/>
      <point x="935" y="61"/>
      <point x="1074" y="183" type="curve"/>
      <point x="1124" y="79"/>
      <point x="1170" y="-17"/>
      <point x="1254" y="-17" type="curve" smooth="yes"/>
      <point x="1304" y="-17"/>
      <point x="1323" y="58"/>
      <point x="1273" y="58" type="curve" smooth="yes"/>
      <point x="1216" y="58"/>
      <point x="1181" y="143"/>
      <point x="1134" y="240" type="curve"/>
      <point x="1350" y="459"/>
      <point x="1509" y="778"/>
      <point x="1509" y="1039" type="curve" smooth="yes"/>
      <point x="1509" y="1241"/>
      <point x="1411" y="1364"/>
      <point x="1253" y="1364" type="curve" smooth="yes"/>
      <point x="1029" y="1364"/>
      <point x="814" y="1120"/>
      <point x="684" y="721" type="curve" smooth="yes"/>
      <point x="660" y="646"/>
      <point x="636" y="560"/>
      <point x="615" y="468" type="curve"/>
      <point x="580" y="446"/>
      <point x="558" y="416"/>
      <point x="558" y="385" type="curve" smooth="yes"/>
      <point x="558" y="353"/>
      <point x="583" y="330"/>
      <point x="616" y="330" type="curve" smooth="yes"/>
      <point x="661" y="330"/>
      <point x="684" y="365"/>
      <point x="698" y="430" type="curve"/>
      <point x="881" y="493"/>
      <point x="969" y="385"/>
      <point x="1035" y="260" type="curve"/>
      <point x="911" y="144"/>
      <point x="770" y="68"/>
      <point x="638" y="68" type="curve" smooth="yes"/>
      <point x="435" y="68"/>
      <point x="340" y="201"/>
      <point x="340" y="423" type="curve" smooth="yes"/>
      <point x="340" y="819"/>
      <point x="605" y="1314"/>
      <point x="1039" y="1434" type="curve" smooth="yes"/>
      <point x="1056" y="1439"/>
      <point x="1064" y="1454"/>
      <point x="1058" y="1480" type="curve" smooth="yes"/>
      <point x="1050" y="1513"/>
      <point x="1036" y="1519"/>
      <point x="1014" y="1513" type="curve" smooth="yes"/>
      <point x="544" y="1381"/>
      <point x="249" y="866"/>
      <point x="249" y="420" type="curve" smooth="yes"/>
      <point x="249" y="146"/>
      <point x="385" y="-17"/>
    </contour>
    <contour>
      <point x="1244" y="1276" type="curve" smooth="yes"/>
      <point x="1351" y="1276"/>
      <point x="1418" y="1186"/>
      <point x="1418" y="1039" type="curve" smooth="yes"/>
      <point x="1418" y="805"/>
      <point x="1279" y="519"/>
      <point x="1094" y="319" type="curve"/>
      <point x="1024" y="441"/>
      <point x="920" y="553"/>
      <point x="715" y="504" type="curve"/>
      <point x="731" y="569"/>
      <point x="749" y="634"/>
      <point x="770" y="700" type="curve" smooth="yes"/>
      <point x="886" y="1058"/>
      <point x="1066" y="1276"/>
    </contour>
  </outline>
</glyph>
<glyph name="Q.dec_pt" format="2">
  <advance width="1346"/>
  <outline>
    <contour>
      <point x="1124" y="778" type="curve" smooth="yes"/>
      <point x="1314" y="1313" type="line" smooth="yes"/>
      <point x="1320" y="1330"/>
      <point x="1305" y="1340"/>
      <point x="1276" y="1340" type="curve" smooth="yes"/>
      <point x="1248" y="1340"/>
      <point x="1233" y="1331"/>
      <point x="1226" y="1313" type="curve"/>
      <point x="1043" y="964"/>
      <point x="823" y="751"/>
      <point x="645" y="751" type="curve" smooth="yes"/>
      <point x="571" y="751"/>
      <point x="526" y="801"/>
      <point x="526" y="885" type="curve" smooth="yes"/>
      <point x="526" y="1100"/>
      <point x="733" y="1431"/>
      <point x="898" y="1431" type="curve" smooth="yes"/>
      <point x="936" y="1431"/>
      <point x="959" y="1411"/>
      <point x="959" y="1370" type="curve" smooth="yes"/>
      <point x="959" y="1243"/>
      <point x="790" y="1118"/>
      <point x="646" y="1118" type="curve" smooth="yes"/>
      <point x="545" y="1118"/>
      <point x="460" y="1144"/>
      <point x="395" y="1174" type="curve" smooth="yes"/>
      <point x="376" y="1183"/>
      <point x="359" y="1183"/>
      <point x="345" y="1156" type="curve" smooth="yes"/>
      <point x="333" y="1133"/>
      <point x="341" y="1119"/>
      <point x="363" y="1106" type="curve" smooth="yes"/>
      <point x="434" y="1066"/>
      <point x="518" y="1038"/>
      <point x="638" y="1038" type="curve" smooth="yes"/>
      <point x="839" y="1038"/>
      <point x="1050" y="1199"/>
      <point x="1050" y="1378" type="curve" smooth="yes"/>
      <point x="1050" y="1463"/>
      <point x="1000" y="1515"/>
      <point x="910" y="1515" type="curve" smooth="yes"/>
      <point x="685" y="1515"/>
      <point x="435" y="1145"/>
      <point x="435" y="879" type="curve" smooth="yes"/>
      <point x="435" y="745"/>
      <point x="509" y="664"/>
      <point x="629" y="664" type="curve" smooth="yes"/>
      <point x="787" y="664"/>
      <point x="962" y="792"/>
      <point x="1119" y="1015" type="curve"/>
      <point x="1035" y="778" type="line" smooth="yes"/>
      <point x="878" y="328"/>
      <point x="669" y="54"/>
      <point x="485" y="54" type="curve" smooth="yes"/>
      <point x="433" y="54"/>
      <point x="395" y="88"/>
      <point x="395" y="135" type="curve" smooth="yes"/>
      <point x="395" y="179"/>
      <point x="425" y="211"/>
      <point x="465" y="211" type="curve" smooth="yes"/>
      <point x="585" y="211"/>
      <point x="718" y="-11"/>
      <point x="908" y="-11" type="curve" smooth="yes"/>
      <point x="1021" y="-11"/>
      <point x="1160" y="93"/>
      <point x="1274" y="261" type="curve" smooth="yes"/>
      <point x="1289" y="283"/>
      <point x="1291" y="298"/>
      <point x="1271" y="314" type="curve" smooth="yes"/>
      <point x="1255" y="326"/>
      <point x="1238" y="329"/>
      <point x="1223" y="308" type="curve" smooth="yes"/>
      <point x="1115" y="161"/>
      <point x="1001" y="73"/>
      <point x="923" y="73" type="curve" smooth="yes"/>
      <point x="761" y="73"/>
      <point x="635" y="289"/>
      <point x="474" y="289" type="curve" smooth="yes"/>
      <point x="379" y="289"/>
      <point x="310" y="221"/>
      <point x="310" y="128" type="curve" smooth="yes"/>
      <point x="310" y="41"/>
      <point x="379" y="-21"/>
      <point x="474" y="-21" type="curve" smooth="yes"/>
      <point x="710" y="-21"/>
      <point x="936" y="248"/>
    </contour>
  </outline>
</glyph>
<glyph name="Q.dec_pt.ini" format="2">
  <advance width="1100"/>
  <anchor x="1019" y="0" name="cnct"/>
  <outline>
    <contour>
      <point x="1119" y="1015" type="curve"/>
      <point x="1035" y="778" type="line" smooth="yes"/>
      <point x="875" y="327"/>
      <point x="663" y="54"/>
      <point x="491" y="54" type="curve" smooth="yes"/>
      <point x="439" y="54"/>
      <point x="395" y="88"/>
      <point x="395" y="141" type="curve" smooth="yes"/>
      <point x="395" y="185"/>
      <point x="424" y="211"/>
      <point x="471" y="211" type="curve" smooth="yes"/>
      <point x="644" y="211"/>
      <point x="794" y="-17"/>
      <point x="933" y="-17" type="curve" smooth="yes"/>
      <point x="983" y="-17"/>
      <point x="1001" y="58"/>
      <point x="951" y="58" type="curve" smooth="yes"/>
      <point x="830" y="58"/>
      <point x="675" y="289"/>
      <point x="478" y="289" type="curve" smooth="yes"/>
      <point x="374" y="289"/>
      <point x="310" y="230"/>
      <point x="310" y="134" type="curve" smooth="yes"/>
      <point x="310" y="49"/>
      <point x="383" y="-21"/>
      <point x="480" y="-21" type="curve" smooth="yes"/>
      <point x="704" y="-21"/>
      <point x="936" y="248"/>
      <point x="1124" y="778" type="curve" smooth="yes"/>
      <point x="1314" y="1313" type="line" smooth="yes"/>
      <point x="1320" y="1330"/>
      <point x="1305" y="1340"/>
      <point x="1276" y="1340" type="curve" smooth="yes"/>
      <point x="1248" y="1340"/>
      <point x="1233" y="1331"/>
      <point x="1226" y="1313" type="curve"/>
      <point x="1043" y="964"/>
      <point x="823" y="751"/>
      <point x="645" y="751" type="curve" smooth="yes"/>
      <point x="571" y="751"/>
      <point x="526" y="801"/>
      <point x="526" y="885" type="curve" smooth="yes"/>
      <point x="526" y="1100"/>
      <point x="733" y="1431"/>
      <point x="898" y="1431" type="curve" smooth="yes"/>
      <point x="936" y="1431"/>
      <point x="959" y="1411"/>
      <point x="959" y="1370" type="curve" smooth="yes"/>
      <point x="959" y="1243"/>
      <point x="790" y="1118"/>
      <point x="646" y="1118" type="curve" smooth="yes"/>
      <point x="545" y="1118"/>
      <point x="460" y="1144"/>
      <point x="395" y="1174" type="curve" smooth="yes"/>
      <point x="376" y="1183"/>
      <point x="359" y="1183"/>
      <point x="345" y="1156" type="curve" smooth="yes"/>
      <point x="333" y="1133"/>
      <point x="341" y="1119"/>
      <point x="363" y="1106" type="curve" smooth="yes"/>
      <point x="434" y="1066"/>
      <point x="518" y="1038"/>
      <point x="638" y="1038" type="curve" smooth="yes"/>
      <point x="839" y="1038"/>
      <point x="1050" y="1199"/>
      <point x="1050" y="1378" type="curve" smooth="yes"/>
      <point x="1050" y="1463"/>
      <point x="1000" y="1515"/>
      <point x="910" y="1515" type="curve" smooth="yes"/>
      <point x="685" y="1515"/>
      <point x="435" y="1145"/>
      <point x="435" y="879" type="curve" smooth="yes"/>
      <point x="435" y="745"/>
      <point x="509" y="664"/>
      <point x="629" y="664" type="curve" smooth="yes"/>
      <point x="787" y="664"/>
      <point x="962" y="792"/>
    </contour>
  </outline>
</glyph>
<glyph name="R.cur.ini" format="2">
  <advance width="1378"/>
  <anchor x="699" y="19" name="bottom"/>
  <anchor x="1298" y="0" name="cnct"/>
  <anchor x="1101" y="1443" name="top"/>
  <outline>
    <contour>
      <point x="1210" y="-17" type="curve" smooth="yes"/>
      <point x="1260" y="-17"/>
      <point x="1279" y="58"/>
      <point x="1229" y="58" type="curve" smooth="yes"/>
      <point x="1146" y="58"/>
      <point x="1093" y="124"/>
      <point x="1003" y="383" type="curve" smooth="yes"/>
      <point x="970" y="475"/>
      <point x="939" y="568"/>
      <point x="906" y="660" type="curve"/>
      <point x="1203" y="700"/>
      <point x="1480" y="928"/>
      <point x="1480" y="1209" type="curve" smooth="yes"/>
      <point x="1480" y="1400"/>
      <point x="1338" y="1515"/>
      <point x="1073" y="1515" type="curve" smooth="yes"/>
      <point x="789" y="1515"/>
      <point x="539" y="1418"/>
      <point x="358" y="1225" type="curve" smooth="yes"/>
      <point x="334" y="1200"/>
      <point x="336" y="1181"/>
      <point x="356" y="1163" type="curve" smooth="yes"/>
      <point x="378" y="1144"/>
      <point x="389" y="1141"/>
      <point x="419" y="1173" type="curve" smooth="yes"/>
      <point x="585" y="1344"/>
      <point x="814" y="1430"/>
      <point x="1048" y="1430" type="curve" smooth="yes"/>
      <point x="1291" y="1430"/>
      <point x="1386" y="1344"/>
      <point x="1386" y="1203" type="curve" smooth="yes"/>
      <point x="1386" y="958"/>
      <point x="1140" y="764"/>
      <point x="890" y="738" type="curve"/>
      <point x="871" y="768"/>
      <point x="839" y="790"/>
      <point x="801" y="790" type="curve" smooth="yes"/>
      <point x="750" y="790"/>
      <point x="724" y="756"/>
      <point x="724" y="723" type="curve" smooth="yes"/>
      <point x="724" y="685"/>
      <point x="755" y="646"/>
      <point x="819" y="649" type="curve"/>
      <point x="851" y="555"/>
      <point x="884" y="460"/>
      <point x="916" y="366" type="curve" smooth="yes"/>
      <point x="1013" y="88"/>
      <point x="1094" y="-17"/>
    </contour>
    <contour>
      <point x="251" y="-19" type="curve" smooth="yes"/>
      <point x="363" y="-19"/>
      <point x="440" y="69"/>
      <point x="506" y="273" type="curve" smooth="yes"/>
      <point x="820" y="1245" type="line" smooth="yes"/>
      <point x="828" y="1266"/>
      <point x="811" y="1275"/>
      <point x="781" y="1275" type="curve" smooth="yes"/>
      <point x="751" y="1275"/>
      <point x="736" y="1266"/>
      <point x="730" y="1248" type="curve" smooth="yes"/>
      <point x="421" y="291" type="line" smooth="yes"/>
      <point x="369" y="128"/>
      <point x="324" y="66"/>
      <point x="255" y="66" type="curve" smooth="yes"/>
      <point x="195" y="66"/>
      <point x="148" y="128"/>
      <point x="120" y="243" type="curve" smooth="yes"/>
      <point x="114" y="269"/>
      <point x="104" y="280"/>
      <point x="71" y="273" type="curve" smooth="yes"/>
      <point x="44" y="266"/>
      <point x="36" y="250"/>
      <point x="43" y="220" type="curve" smooth="yes"/>
      <point x="73" y="70"/>
      <point x="150" y="-19"/>
    </contour>
  </outline>
</glyph>
<glyph name="R.dec.ini" format="2">
  <advance width="1396"/>
  <anchor x="699" y="0" name="bottom"/>
  <anchor x="1315" y="0" name="cnct"/>
  <anchor x="1101" y="1443" name="top"/>
  <outline>
    <contour>
      <point x="310" y="-14" type="curve" smooth="yes"/>
      <point x="340" y="-14"/>
      <point x="355" y="-5"/>
      <point x="361" y="14" type="curve" smooth="yes"/>
      <point x="598" y="745" type="line"/>
      <point x="735" y="1135"/>
      <point x="1013" y="1430"/>
      <point x="1244" y="1430" type="curve" smooth="yes"/>
      <point x="1340" y="1430"/>
      <point x="1405" y="1379"/>
      <point x="1405" y="1256" type="curve" smooth="yes"/>
      <point x="1405" y="1025"/>
      <point x="1163" y="819"/>
      <point x="900" y="733" type="curve"/>
      <point x="884" y="760"/>
      <point x="850" y="784"/>
      <point x="809" y="784" type="curve" smooth="yes"/>
      <point x="765" y="784"/>
      <point x="730" y="756"/>
      <point x="730" y="715" type="curve" smooth="yes"/>
      <point x="730" y="669"/>
      <point x="778" y="643"/>
      <point x="836" y="645" type="curve"/>
      <point x="864" y="531"/>
      <point x="879" y="476"/>
      <point x="916" y="350" type="curve" smooth="yes"/>
      <point x="990" y="104"/>
      <point x="1076" y="-17"/>
      <point x="1229" y="-17" type="curve" smooth="yes"/>
      <point x="1279" y="-17"/>
      <point x="1298" y="58"/>
      <point x="1248" y="58" type="curve" smooth="yes"/>
      <point x="1153" y="58"/>
      <point x="1071" y="113"/>
      <point x="994" y="390" type="curve" smooth="yes"/>
      <point x="964" y="499"/>
      <point x="943" y="564"/>
      <point x="919" y="663" type="curve"/>
      <point x="1269" y="771"/>
      <point x="1499" y="1014"/>
      <point x="1499" y="1259" type="curve" smooth="yes"/>
      <point x="1499" y="1429"/>
      <point x="1399" y="1515"/>
      <point x="1253" y="1515" type="curve" smooth="yes"/>
      <point x="1079" y="1515"/>
      <point x="888" y="1381"/>
      <point x="731" y="1160" type="curve"/>
      <point x="836" y="1485" type="line" smooth="yes"/>
      <point x="844" y="1506"/>
      <point x="828" y="1515"/>
      <point x="798" y="1515" type="curve" smooth="yes"/>
      <point x="769" y="1515"/>
      <point x="755" y="1508"/>
      <point x="736" y="1479" type="curve" smooth="yes"/>
      <point x="635" y="1324"/>
      <point x="498" y="1190"/>
      <point x="329" y="1081" type="curve" smooth="yes"/>
      <point x="306" y="1066"/>
      <point x="303" y="1048"/>
      <point x="318" y="1024" type="curve" smooth="yes"/>
      <point x="333" y="1000"/>
      <point x="348" y="990"/>
      <point x="376" y="1010" type="curve" smooth="yes"/>
      <point x="495" y="1095"/>
      <point x="593" y="1174"/>
      <point x="676" y="1271" type="curve"/>
      <point x="271" y="16" type="line" smooth="yes"/>
      <point x="264" y="-5"/>
      <point x="280" y="-14"/>
    </contour>
  </outline>
</glyph>
<glyph name="S.cur" format="2">
  <advance width="1384"/>
  <anchor x="738" y="0" name="bottom"/>
  <anchor x="1063" y="1488" name="top"/>
  <outline>
    <contour>
      <point x="896" y="-19" type="curve" smooth="yes"/>
      <point x="1166" y="-19"/>
      <point x="1363" y="188"/>
      <point x="1363" y="471" type="curve" smooth="yes"/>
      <point x="1363" y="701"/>
      <point x="1197" y="906"/>
      <point x="1060" y="1122" type="curve"/>
      <point x="1165" y="1292"/>
      <point x="1206" y="1379"/>
      <point x="1206" y="1466" type="curve" smooth="yes"/>
      <point x="1206" y="1551"/>
      <point x="1145" y="1609"/>
      <point x="1058" y="1609" type="curve" smooth="yes"/>
      <point x="948" y="1609"/>
      <point x="863" y="1514"/>
      <point x="863" y="1383" type="curve" smooth="yes"/>
      <point x="863" y="1294"/>
      <point x="898" y="1219"/>
      <point x="957" y="1117" type="curve"/>
      <point x="377" y="208"/>
      <point x="253" y="74"/>
      <point x="16" y="74" type="curve" smooth="yes"/>
      <point x="-14" y="74"/>
      <point x="-30" y="61"/>
      <point x="-39" y="35" type="curve" smooth="yes"/>
      <point x="-49" y="5"/>
      <point x="-40" y="-7"/>
      <point x="-9" y="-7" type="curve" smooth="yes"/>
      <point x="306" y="-7"/>
      <point x="458" y="164"/>
      <point x="1006" y="1035" type="curve"/>
      <point x="1102" y="882"/>
      <point x="1269" y="682"/>
      <point x="1269" y="468" type="curve" smooth="yes"/>
      <point x="1269" y="235"/>
      <point x="1113" y="66"/>
      <point x="896" y="66" type="curve" smooth="yes"/>
      <point x="761" y="66"/>
      <point x="674" y="135"/>
      <point x="620" y="206" type="curve" smooth="yes"/>
      <point x="601" y="230"/>
      <point x="585" y="228"/>
      <point x="566" y="208" type="curve" smooth="yes"/>
      <point x="548" y="186"/>
      <point x="550" y="175"/>
      <point x="566" y="148" type="curve" smooth="yes"/>
      <point x="613" y="66"/>
      <point x="738" y="-19"/>
    </contour>
    <contour>
      <point x="1011" y="1204" type="curve"/>
      <point x="981" y="1259"/>
      <point x="954" y="1322"/>
      <point x="954" y="1386" type="curve" smooth="yes"/>
      <point x="954" y="1465"/>
      <point x="986" y="1528"/>
      <point x="1049" y="1528" type="curve" smooth="yes"/>
      <point x="1085" y="1528"/>
      <point x="1114" y="1503"/>
      <point x="1114" y="1460" type="curve" smooth="yes"/>
      <point x="1114" y="1398"/>
      <point x="1086" y="1327"/>
    </contour>
  </outline>
</glyph>
<glyph name="S.dec" format="2">
  <advance width="1308"/>
  <anchor x="424" y="0" name="bottom"/>
  <anchor x="1300" y="1488" name="top"/>
  <outline>
    <contour>
      <point x="421" y="-19" type="curve" smooth="yes"/>
      <point x="566" y="-19"/>
      <point x="656" y="70"/>
      <point x="725" y="283" type="curve" smooth="yes"/>
      <point x="925" y="894" type="line" smooth="yes"/>
      <point x="1041" y="1249"/>
      <point x="1175" y="1430"/>
      <point x="1319" y="1430" type="curve" smooth="yes"/>
      <point x="1394" y="1430"/>
      <point x="1441" y="1383"/>
      <point x="1441" y="1299" type="curve" smooth="yes"/>
      <point x="1441" y="1058"/>
      <point x="1161" y="839"/>
      <point x="893" y="839" type="curve" smooth="yes"/>
      <point x="689" y="839"/>
      <point x="501" y="893"/>
      <point x="348" y="976" type="curve" smooth="yes"/>
      <point x="326" y="988"/>
      <point x="308" y="988"/>
      <point x="293" y="960" type="curve" smooth="yes"/>
      <point x="280" y="939"/>
      <point x="283" y="919"/>
      <point x="309" y="905" type="curve" smooth="yes"/>
      <point x="479" y="819"/>
      <point x="666" y="758"/>
      <point x="878" y="758" type="curve" smooth="yes"/>
      <point x="1208" y="758"/>
      <point x="1533" y="1013"/>
      <point x="1533" y="1304" type="curve" smooth="yes"/>
      <point x="1533" y="1434"/>
      <point x="1444" y="1515"/>
      <point x="1324" y="1515" type="curve" smooth="yes"/>
      <point x="1134" y="1515"/>
      <point x="974" y="1310"/>
      <point x="843" y="910" type="curve" smooth="yes"/>
      <point x="645" y="306" type="line" smooth="yes"/>
      <point x="590" y="138"/>
      <point x="526" y="66"/>
      <point x="428" y="66" type="curve" smooth="yes"/>
      <point x="346" y="66"/>
      <point x="269" y="134"/>
      <point x="199" y="265" type="curve" smooth="yes"/>
      <point x="188" y="286"/>
      <point x="169" y="290"/>
      <point x="144" y="275" type="curve" smooth="yes"/>
      <point x="123" y="264"/>
      <point x="118" y="246"/>
      <point x="126" y="225" type="curve" smooth="yes"/>
      <point x="208" y="64"/>
      <point x="308" y="-19"/>
    </contour>
  </outline>
</glyph>
<glyph name="T.cur" format="2">
  <advance width="1118"/>
  <anchor x="621" y="0" name="bottom"/>
  <anchor x="580" y="744" name="center"/>
  <anchor x="978" y="1424" name="top"/>
  <outline>
    <contour>
      <point x="635" y="-19" type="curve" smooth="yes"/>
      <point x="778" y="-19"/>
      <point x="925" y="76"/>
      <point x="1059" y="254" type="curve" smooth="yes"/>
      <point x="1078" y="279"/>
      <point x="1078" y="299"/>
      <point x="1055" y="316" type="curve" smooth="yes"/>
      <point x="1036" y="331"/>
      <point x="1015" y="329"/>
      <point x="998" y="305" type="curve" smooth="yes"/>
      <point x="881" y="149"/>
      <point x="758" y="66"/>
      <point x="641" y="66" type="curve" smooth="yes"/>
      <point x="536" y="66"/>
      <point x="474" y="144"/>
      <point x="474" y="274" type="curve" smooth="yes"/>
      <point x="474" y="545"/>
      <point x="684" y="966"/>
      <point x="1040" y="1408" type="curve"/>
      <point x="1372" y="1408" type="line" smooth="yes"/>
      <point x="1392" y="1408"/>
      <point x="1402" y="1418"/>
      <point x="1412" y="1448" type="curve" smooth="yes"/>
      <point x="1422" y="1478"/>
      <point x="1418" y="1488"/>
      <point x="1398" y="1488" type="curve" smooth="yes"/>
      <point x="774" y="1488" type="line" smooth="yes"/>
      <point x="568" y="1488"/>
      <point x="396" y="1383"/>
      <point x="326" y="1199" type="curve" smooth="yes"/>
      <point x="316" y="1173"/>
      <point x="324" y="1160"/>
      <point x="348" y="1154" type="curve" smooth="yes"/>
      <point x="371" y="1148"/>
      <point x="390" y="1153"/>
      <point x="401" y="1179" type="curve" smooth="yes"/>
      <point x="468" y="1330"/>
      <point x="598" y="1408"/>
      <point x="760" y="1408" type="curve" smooth="yes"/>
      <point x="930" y="1408" type="line"/>
      <point x="584" y="974"/>
      <point x="380" y="553"/>
      <point x="380" y="273" type="curve" smooth="yes"/>
      <point x="380" y="90"/>
      <point x="475" y="-19"/>
    </contour>
  </outline>
</glyph>
<glyph name="T.cur.ini" format="2">
  <advance width="938"/>
  <anchor x="621" y="0" name="bottom"/>
  <anchor x="580" y="744" name="center"/>
  <anchor x="856" y="0" name="cnct"/>
  <anchor x="978" y="1424" name="top"/>
  <outline>
    <contour>
      <point x="659" y="-17" type="curve" smooth="yes"/>
      <point x="709" y="-17"/>
      <point x="718" y="60"/>
      <point x="668" y="60" type="curve" smooth="yes"/>
      <point x="529" y="60"/>
      <point x="458" y="132"/>
      <point x="458" y="284" type="curve" smooth="yes"/>
      <point x="458" y="553"/>
      <point x="665" y="970"/>
      <point x="1040" y="1408" type="curve"/>
      <point x="1352" y="1408" type="line" smooth="yes"/>
      <point x="1372" y="1408"/>
      <point x="1382" y="1418"/>
      <point x="1392" y="1448" type="curve" smooth="yes"/>
      <point x="1402" y="1478"/>
      <point x="1398" y="1488"/>
      <point x="1378" y="1488" type="curve" smooth="yes"/>
      <point x="774" y="1488" type="line" smooth="yes"/>
      <point x="568" y="1488"/>
      <point x="396" y="1383"/>
      <point x="326" y="1199" type="curve" smooth="yes"/>
      <point x="316" y="1173"/>
      <point x="324" y="1160"/>
      <point x="348" y="1154" type="curve" smooth="yes"/>
      <point x="371" y="1148"/>
      <point x="390" y="1153"/>
      <point x="401" y="1179" type="curve" smooth="yes"/>
      <point x="468" y="1330"/>
      <point x="598" y="1408"/>
      <point x="760" y="1408" type="curve" smooth="yes"/>
      <point x="930" y="1408" type="line"/>
      <point x="565" y="978"/>
      <point x="364" y="561"/>
      <point x="364" y="283" type="curve" smooth="yes"/>
      <point x="364" y="83"/>
      <point x="466" y="-17"/>
    </contour>
  </outline>
</glyph>
<glyph name="T.dec" format="2">
  <advance width="1118"/>
  <anchor x="397" y="0" name="bottom"/>
  <anchor x="781" y="744" name="center"/>
  <anchor x="980" y="1424" name="top"/>
  <outline>
    <contour>
      <point x="420" y="-19" type="curve" smooth="yes"/>
      <point x="530" y="-19"/>
      <point x="608" y="69"/>
      <point x="673" y="273" type="curve" smooth="yes"/>
      <point x="1039" y="1408" type="line"/>
      <point x="1453" y="1408" type="line" smooth="yes"/>
      <point x="1473" y="1408"/>
      <point x="1483" y="1418"/>
      <point x="1493" y="1448" type="curve" smooth="yes"/>
      <point x="1503" y="1478"/>
      <point x="1499" y="1488"/>
      <point x="1479" y="1488" type="curve" smooth="yes"/>
      <point x="774" y="1488" type="line" smooth="yes"/>
      <point x="568" y="1488"/>
      <point x="396" y="1383"/>
      <point x="326" y="1199" type="curve" smooth="yes"/>
      <point x="316" y="1173"/>
      <point x="324" y="1160"/>
      <point x="348" y="1154" type="curve" smooth="yes"/>
      <point x="371" y="1148"/>
      <point x="390" y="1153"/>
      <point x="401" y="1179" type="curve" smooth="yes"/>
      <point x="468" y="1330"/>
      <point x="598" y="1408"/>
      <point x="760" y="1408" type="curve" smooth="yes"/>
      <point x="951" y="1408" type="line"/>
      <point x="590" y="291" type="line" smooth="yes"/>
      <point x="538" y="128"/>
      <point x="493" y="66"/>
      <point x="424" y="66" type="curve" smooth="yes"/>
      <point x="364" y="66"/>
      <point x="316" y="128"/>
      <point x="289" y="243" type="curve" smooth="yes"/>
      <point x="283" y="269"/>
      <point x="273" y="280"/>
      <point x="240" y="273" type="curve" smooth="yes"/>
      <point x="213" y="266"/>
      <point x="205" y="250"/>
      <point x="211" y="220" type="curve" smooth="yes"/>
      <point x="241" y="70"/>
      <point x="319" y="-19"/>
    </contour>
  </outline>
</glyph>
<glyph name="U.cur.ini" format="2">
  <advance width="1409"/>
  <anchor x="676" y="0" name="bottom"/>
  <anchor x="1328" y="0" name="cnct"/>
  <anchor x="1254" y="21" name="ogonek"/>
  <anchor x="1079" y="1424" name="top"/>
  <anchor x="1513" y="1511" name="topright"/>
  <outline>
    <contour>
      <point x="568" y="-19" type="curve" smooth="yes"/>
      <point x="794" y="-19"/>
      <point x="1063" y="261"/>
      <point x="1221" y="644" type="curve"/>
      <point x="1248" y="828" type="line"/>
      <point x="1083" y="400"/>
      <point x="800" y="70"/>
      <point x="590" y="70" type="curve" smooth="yes"/>
      <point x="460" y="70"/>
      <point x="425" y="156"/>
      <point x="484" y="339" type="curve" smooth="yes"/>
      <point x="798" y="1309" type="line" smooth="yes"/>
      <point x="840" y="1441"/>
      <point x="810" y="1513"/>
      <point x="709" y="1513" type="curve" smooth="yes"/>
      <point x="611" y="1513"/>
      <point x="505" y="1423"/>
      <point x="380" y="1235" type="curve" smooth="yes"/>
      <point x="363" y="1209"/>
      <point x="364" y="1193"/>
      <point x="388" y="1178" type="curve" smooth="yes"/>
      <point x="413" y="1161"/>
      <point x="429" y="1166"/>
      <point x="449" y="1195" type="curve" smooth="yes"/>
      <point x="564" y="1360"/>
      <point x="635" y="1430"/>
      <point x="691" y="1430" type="curve" smooth="yes"/>
      <point x="730" y="1430"/>
      <point x="735" y="1395"/>
      <point x="711" y="1321" type="curve" smooth="yes"/>
      <point x="393" y="335" type="line" smooth="yes"/>
      <point x="320" y="111"/>
      <point x="381" y="-19"/>
    </contour>
    <contour>
      <point x="1241" y="-17" type="curve" smooth="yes"/>
      <point x="1291" y="-17"/>
      <point x="1310" y="58"/>
      <point x="1260" y="58" type="curve" smooth="yes"/>
      <point x="1144" y="58"/>
      <point x="1136" y="210"/>
      <point x="1230" y="495" type="curve" smooth="yes"/>
      <point x="1555" y="1485" type="line" smooth="yes"/>
      <point x="1563" y="1506"/>
      <point x="1546" y="1515"/>
      <point x="1516" y="1515" type="curve" smooth="yes"/>
      <point x="1486" y="1515"/>
      <point x="1471" y="1506"/>
      <point x="1465" y="1488" type="curve" smooth="yes"/>
      <point x="1145" y="511" type="line" smooth="yes"/>
      <point x="1031" y="166"/>
      <point x="1069" y="-17"/>
    </contour>
  </outline>
</glyph>
<glyph name="V.dec" format="2">
  <advance width="1470"/>
  <outline>
    <contour>
      <point x="729" y="-17" type="curve" smooth="yes"/>
      <point x="756" y="-17"/>
      <point x="775" y="-12"/>
      <point x="790" y="20" type="curve" smooth="yes"/>
      <point x="1350" y="1190"/>
      <point x="1503" y="1433"/>
      <point x="1695" y="1433" type="curve" smooth="yes"/>
      <point x="1739" y="1433"/>
      <point x="1775" y="1423"/>
      <point x="1804" y="1411" type="curve" smooth="yes"/>
      <point x="1824" y="1404"/>
      <point x="1840" y="1411"/>
      <point x="1851" y="1440" type="curve" smooth="yes"/>
      <point x="1859" y="1460"/>
      <point x="1853" y="1476"/>
      <point x="1830" y="1486" type="curve" smooth="yes"/>
      <point x="1789" y="1505"/>
      <point x="1751" y="1515"/>
      <point x="1701" y="1515" type="curve" smooth="yes"/>
      <point x="1450" y="1515"/>
      <point x="1291" y="1279"/>
      <point x="774" y="165" type="curve"/>
      <point x="870" y="1223"/>
      <point x="831" y="1515"/>
      <point x="614" y="1515" type="curve" smooth="yes"/>
      <point x="486" y="1515"/>
      <point x="406" y="1401"/>
      <point x="403" y="1179" type="curve" smooth="yes"/>
      <point x="403" y="1159"/>
      <point x="405" y="1131"/>
      <point x="408" y="1116" type="curve" smooth="yes"/>
      <point x="411" y="1095"/>
      <point x="423" y="1088"/>
      <point x="449" y="1089" type="curve" smooth="yes"/>
      <point x="475" y="1090"/>
      <point x="485" y="1105"/>
      <point x="484" y="1120" type="curve" smooth="yes"/>
      <point x="483" y="1138"/>
      <point x="481" y="1160"/>
      <point x="481" y="1175" type="curve" smooth="yes"/>
      <point x="481" y="1335"/>
      <point x="530" y="1433"/>
      <point x="609" y="1433" type="curve" smooth="yes"/>
      <point x="760" y="1433"/>
      <point x="776" y="1133"/>
      <point x="684" y="23" type="curve" smooth="yes"/>
      <point x="681" y="-9"/>
      <point x="691" y="-17"/>
    </contour>
  </outline>
</glyph>
<glyph name="W.dec" format="2">
  <advance width="2139"/>
  <anchor x="1106" y="0" name="bottom"/>
  <anchor x="1438" y="1424" name="top"/>
  <outline>
    <contour>
      <point x="711" y="-17" type="curve" smooth="yes"/>
      <point x="739" y="-17"/>
      <point x="756" y="-12"/>
      <point x="773" y="20" type="curve" smooth="yes"/>
      <point x="1444" y="1339" type="line"/>
      <point x="1398" y="924"/>
      <point x="1374" y="480"/>
      <point x="1374" y="23" type="curve" smooth="yes"/>
      <point x="1374" y="-10"/>
      <point x="1381" y="-17"/>
      <point x="1419" y="-17" type="curve" smooth="yes"/>
      <point x="1446" y="-17"/>
      <point x="1465" y="-12"/>
      <point x="1480" y="20" type="curve" smooth="yes"/>
      <point x="2040" y="1190"/>
      <point x="2193" y="1433"/>
      <point x="2385" y="1433" type="curve" smooth="yes"/>
      <point x="2429" y="1433"/>
      <point x="2465" y="1423"/>
      <point x="2494" y="1411" type="curve" smooth="yes"/>
      <point x="2514" y="1404"/>
      <point x="2530" y="1411"/>
      <point x="2541" y="1440" type="curve" smooth="yes"/>
      <point x="2549" y="1460"/>
      <point x="2543" y="1476"/>
      <point x="2520" y="1486" type="curve" smooth="yes"/>
      <point x="2479" y="1505"/>
      <point x="2441" y="1515"/>
      <point x="2391" y="1515" type="curve" smooth="yes"/>
      <point x="2139" y="1515"/>
      <point x="1978" y="1275"/>
      <point x="1456" y="148" type="curve"/>
      <point x="1461" y="706"/>
      <point x="1499" y="1154"/>
      <point x="1543" y="1476" type="curve" smooth="yes"/>
      <point x="1546" y="1503"/>
      <point x="1526" y="1515"/>
      <point x="1490" y="1515" type="curve" smooth="yes"/>
      <point x="1459" y="1515"/>
      <point x="1440" y="1504"/>
      <point x="1428" y="1480" type="curve" smooth="yes"/>
      <point x="755" y="160" type="line"/>
      <point x="856" y="1279"/>
      <point x="829" y="1515"/>
      <point x="618" y="1515" type="curve" smooth="yes"/>
      <point x="490" y="1515"/>
      <point x="406" y="1401"/>
      <point x="406" y="1179" type="curve" smooth="yes"/>
      <point x="406" y="1159"/>
      <point x="409" y="1131"/>
      <point x="411" y="1116" type="curve" smooth="yes"/>
      <point x="415" y="1095"/>
      <point x="426" y="1088"/>
      <point x="453" y="1089" type="curve" smooth="yes"/>
      <point x="479" y="1090"/>
      <point x="489" y="1105"/>
      <point x="488" y="1120" type="curve" smooth="yes"/>
      <point x="486" y="1138"/>
      <point x="485" y="1160"/>
      <point x="485" y="1175" type="curve" smooth="yes"/>
      <point x="485" y="1335"/>
      <point x="534" y="1433"/>
      <point x="613" y="1433" type="curve" smooth="yes"/>
      <point x="755" y="1433"/>
      <point x="764" y="1191"/>
      <point x="666" y="23" type="curve" smooth="yes"/>
      <point x="664" y="-9"/>
      <point x="674" y="-17"/>
    </contour>
  </outline>
</glyph>
<glyph name="X.cur" format="2">
  <advance width="1285"/>
  <outline>
    <contour>
      <point x="1020" y="-19" type="curve" smooth="yes"/>
      <point x="1111" y="-19"/>
      <point x="1189" y="74"/>
      <point x="1264" y="249" type="curve" smooth="yes"/>
      <point x="1276" y="278"/>
      <point x="1275" y="295"/>
      <point x="1249" y="306" type="curve" smooth="yes"/>
      <point x="1223" y="318"/>
      <point x="1206" y="313"/>
      <point x="1196" y="288" type="curve" smooth="yes"/>
      <point x="1138" y="141"/>
      <point x="1081" y="65"/>
      <point x="1025" y="65" type="curve" smooth="yes"/>
      <point x="973" y="65"/>
      <point x="946" y="113"/>
      <point x="915" y="296" type="curve" smooth="yes"/>
      <point x="839" y="745" type="line"/>
      <point x="1435" y="1439" type="line" smooth="yes"/>
      <point x="1458" y="1465"/>
      <point x="1459" y="1480"/>
      <point x="1440" y="1500" type="curve" smooth="yes"/>
      <point x="1419" y="1523"/>
      <point x="1399" y="1524"/>
      <point x="1378" y="1500" type="curve" smooth="yes"/>
      <point x="821" y="851" type="line"/>
      <point x="751" y="1300" type="line" smooth="yes"/>
      <point x="726" y="1460"/>
      <point x="683" y="1513"/>
      <point x="576" y="1513" type="curve" smooth="yes"/>
      <point x="529" y="1513"/>
      <point x="479" y="1499"/>
      <point x="414" y="1459" type="curve" smooth="yes"/>
      <point x="394" y="1446"/>
      <point x="381" y="1434"/>
      <point x="393" y="1408" type="curve" smooth="yes"/>
      <point x="405" y="1379"/>
      <point x="420" y="1370"/>
      <point x="446" y="1385" type="curve" smooth="yes"/>
      <point x="490" y="1410"/>
      <point x="530" y="1428"/>
      <point x="565" y="1428" type="curve" smooth="yes"/>
      <point x="624" y="1428"/>
      <point x="650" y="1391"/>
      <point x="666" y="1284" type="curve" smooth="yes"/>
      <point x="744" y="780" type="line"/>
      <point x="111" y="56" type="line" smooth="yes"/>
      <point x="90" y="33"/>
      <point x="91" y="19"/>
      <point x="111" y="-1" type="curve" smooth="yes"/>
      <point x="133" y="-22"/>
      <point x="154" y="-25"/>
      <point x="173" y="-2" type="curve" smooth="yes"/>
      <point x="763" y="674" type="line"/>
      <point x="830" y="279" type="line" smooth="yes"/>
      <point x="868" y="58"/>
      <point x="914" y="-19"/>
    </contour>
  </outline>
</glyph>
<glyph name="X.dec.ini" format="2">
  <advance width="1175"/>
  <anchor x="1094" y="0" name="cnct"/>
  <outline>
    <contour>
      <point x="343" y="-17" type="curve" smooth="yes"/>
      <point x="485" y="-17"/>
      <point x="628" y="170"/>
      <point x="740" y="404" type="curve"/>
      <point x="713" y="221"/>
      <point x="706" y="-17"/>
      <point x="924" y="-17" type="curve" smooth="yes"/>
      <point x="974" y="-17"/>
      <point x="986" y="60"/>
      <point x="936" y="60" type="curve" smooth="yes"/>
      <point x="690" y="60"/>
      <point x="833" y="577"/>
      <point x="894" y="778" type="curve" smooth="yes"/>
      <point x="994" y="1109"/>
      <point x="1163" y="1430"/>
      <point x="1324" y="1430" type="curve" smooth="yes"/>
      <point x="1379" y="1430"/>
      <point x="1424" y="1383"/>
      <point x="1456" y="1289" type="curve" smooth="yes"/>
      <point x="1465" y="1265"/>
      <point x="1484" y="1260"/>
      <point x="1508" y="1274" type="curve" smooth="yes"/>
      <point x="1531" y="1286"/>
      <point x="1538" y="1304"/>
      <point x="1530" y="1325" type="curve" smooth="yes"/>
      <point x="1484" y="1451"/>
      <point x="1416" y="1515"/>
      <point x="1330" y="1515" type="curve" smooth="yes"/>
      <point x="1185" y="1515"/>
      <point x="1053" y="1340"/>
      <point x="949" y="1114" type="curve"/>
      <point x="961" y="1281"/>
      <point x="934" y="1515"/>
      <point x="748" y="1515" type="curve" smooth="yes"/>
      <point x="660" y="1515"/>
      <point x="556" y="1445"/>
      <point x="473" y="1329" type="curve" smooth="yes"/>
      <point x="459" y="1310"/>
      <point x="459" y="1295"/>
      <point x="484" y="1275" type="curve" smooth="yes"/>
      <point x="509" y="1255"/>
      <point x="525" y="1261"/>
      <point x="538" y="1279" type="curve" smooth="yes"/>
      <point x="604" y="1373"/>
      <point x="680" y="1430"/>
      <point x="739" y="1430" type="curve" smooth="yes"/>
      <point x="948" y="1430"/>
      <point x="868" y="1003"/>
      <point x="810" y="803" type="curve" smooth="yes"/>
      <point x="712" y="463"/>
      <point x="518" y="68"/>
      <point x="348" y="68" type="curve" smooth="yes"/>
      <point x="274" y="68"/>
      <point x="219" y="154"/>
      <point x="194" y="268" type="curve" smooth="yes"/>
      <point x="189" y="288"/>
      <point x="173" y="294"/>
      <point x="144" y="285" type="curve" smooth="yes"/>
      <point x="121" y="276"/>
      <point x="111" y="263"/>
      <point x="115" y="241" type="curve" smooth="yes"/>
      <point x="151" y="80"/>
      <point x="241" y="-17"/>
    </contour>
  </outline>
</glyph>
<glyph name="X.dec_locl.ini" format="2">
  <advance width="1278"/>
  <anchor x="1196" y="0" name="cnct"/>
  <outline>
    <contour>
      <point x="999" y="-17" type="curve" smooth="yes"/>
      <point x="1049" y="-17"/>
      <point x="1059" y="60"/>
      <point x="1009" y="60" type="curve" smooth="yes"/>
      <point x="905" y="60"/>
      <point x="861" y="131"/>
      <point x="861" y="300" type="curve" smooth="yes"/>
      <point x="861" y="625"/>
      <point x="1143" y="1430"/>
      <point x="1446" y="1430" type="curve" smooth="yes"/>
      <point x="1514" y="1430"/>
      <point x="1563" y="1374"/>
      <point x="1563" y="1295" type="curve" smooth="yes"/>
      <point x="1563" y="775"/>
      <point x="135" y="841"/>
      <point x="135" y="206" type="curve" smooth="yes"/>
      <point x="135" y="68"/>
      <point x="213" y="-17"/>
      <point x="339" y="-17" type="curve" smooth="yes"/>
      <point x="685" y="-17"/>
      <point x="1020" y="840"/>
      <point x="1020" y="1165" type="curve" smooth="yes"/>
      <point x="1020" y="1398"/>
      <point x="950" y="1515"/>
      <point x="811" y="1515" type="curve" smooth="yes"/>
      <point x="724" y="1515"/>
      <point x="620" y="1445"/>
      <point x="536" y="1329" type="curve" smooth="yes"/>
      <point x="523" y="1310"/>
      <point x="523" y="1295"/>
      <point x="548" y="1275" type="curve" smooth="yes"/>
      <point x="573" y="1255"/>
      <point x="589" y="1261"/>
      <point x="601" y="1279" type="curve" smooth="yes"/>
      <point x="668" y="1373"/>
      <point x="744" y="1430"/>
      <point x="803" y="1430" type="curve" smooth="yes"/>
      <point x="898" y="1430"/>
      <point x="945" y="1341"/>
      <point x="945" y="1165" type="curve" smooth="yes"/>
      <point x="945" y="879"/>
      <point x="631" y="68"/>
      <point x="345" y="68" type="curve" smooth="yes"/>
      <point x="273" y="68"/>
      <point x="229" y="120"/>
      <point x="229" y="206" type="curve" smooth="yes"/>
      <point x="229" y="776"/>
      <point x="1656" y="708"/>
      <point x="1656" y="1295" type="curve" smooth="yes"/>
      <point x="1656" y="1423"/>
      <point x="1574" y="1515"/>
      <point x="1459" y="1515" type="curve" smooth="yes"/>
      <point x="1086" y="1515"/>
      <point x="786" y="663"/>
      <point x="786" y="301" type="curve" smooth="yes"/>
      <point x="786" y="76"/>
      <point x="849" y="-17"/>
    </contour>
  </outline>
</glyph>
<glyph name="X.dec_ro" format="2">
  <advance width="1375"/>
  <outline>
    <contour>
      <point x="538" y="721" type="curve" smooth="yes"/>
      <point x="1132" y="721" type="line" smooth="yes"/>
      <point x="1147" y="721"/>
      <point x="1160" y="731"/>
      <point x="1168" y="761" type="curve" smooth="yes"/>
      <point x="1175" y="790"/>
      <point x="1167" y="805"/>
      <point x="1148" y="805" type="curve" smooth="yes"/>
      <point x="555" y="805" type="line" smooth="yes"/>
      <point x="538" y="805"/>
      <point x="527" y="794"/>
      <point x="520" y="770" type="curve" smooth="yes"/>
      <point x="512" y="736"/>
      <point x="519" y="721"/>
    </contour>
    <component base="X.dec"/>
  </outline>
</glyph>
<glyph name="Y.cur" format="2">
  <advance width="1384"/>
  <anchor x="1220" y="0" name="bottom"/>
  <anchor x="1039" y="1424" name="top"/>
  <outline>
    <contour>
      <point x="475" y="-1020" type="curve" smooth="yes"/>
      <point x="624" y="-1020"/>
      <point x="741" y="-894"/>
      <point x="824" y="-641" type="curve" smooth="yes"/>
      <point x="1516" y="1485" type="line" smooth="yes"/>
      <point x="1524" y="1506"/>
      <point x="1508" y="1515"/>
      <point x="1478" y="1515" type="curve" smooth="yes"/>
      <point x="1448" y="1515"/>
      <point x="1433" y="1506"/>
      <point x="1426" y="1488" type="curve" smooth="yes"/>
      <point x="1235" y="900" type="line"/>
      <point x="1046" y="385"/>
      <point x="804" y="176"/>
      <point x="603" y="176" type="curve" smooth="yes"/>
      <point x="486" y="176"/>
      <point x="455" y="264"/>
      <point x="514" y="445" type="curve" smooth="yes"/>
      <point x="794" y="1309" type="line" smooth="yes"/>
      <point x="836" y="1441"/>
      <point x="806" y="1513"/>
      <point x="705" y="1513" type="curve" smooth="yes"/>
      <point x="608" y="1513"/>
      <point x="501" y="1423"/>
      <point x="376" y="1235" type="curve" smooth="yes"/>
      <point x="359" y="1209"/>
      <point x="360" y="1193"/>
      <point x="384" y="1178" type="curve" smooth="yes"/>
      <point x="409" y="1161"/>
      <point x="425" y="1166"/>
      <point x="445" y="1195" type="curve" smooth="yes"/>
      <point x="560" y="1360"/>
      <point x="631" y="1430"/>
      <point x="688" y="1430" type="curve" smooth="yes"/>
      <point x="726" y="1430"/>
      <point x="731" y="1395"/>
      <point x="708" y="1321" type="curve" smooth="yes"/>
      <point x="423" y="441" type="line" smooth="yes"/>
      <point x="350" y="219"/>
      <point x="408" y="88"/>
      <point x="580" y="88" type="curve" smooth="yes"/>
      <point x="755" y="88"/>
      <point x="939" y="193"/>
      <point x="1099" y="480" type="curve"/>
      <point x="741" y="-616" type="line" smooth="yes"/>
      <point x="673" y="-827"/>
      <point x="586" y="-935"/>
      <point x="483" y="-935" type="curve" smooth="yes"/>
      <point x="434" y="-935"/>
      <point x="399" y="-892"/>
      <point x="399" y="-835" type="curve" smooth="yes"/>
      <point x="399" y="-661"/>
      <point x="588" y="-432"/>
      <point x="899" y="-234" type="curve" smooth="yes"/>
      <point x="1016" y="-157"/>
      <point x="1145" y="-71"/>
      <point x="1293" y="9" type="curve" smooth="yes"/>
      <point x="1313" y="20"/>
      <point x="1320" y="34"/>
      <point x="1306" y="61" type="curve" smooth="yes"/>
      <point x="1293" y="88"/>
      <point x="1275" y="90"/>
      <point x="1255" y="79" type="curve" smooth="yes"/>
      <point x="1140" y="16"/>
      <point x="1034" y="-47"/>
      <point x="938" y="-110" type="curve" smooth="yes"/>
      <point x="546" y="-349"/>
      <point x="308" y="-625"/>
      <point x="308" y="-840" type="curve" smooth="yes"/>
      <point x="308" y="-945"/>
      <point x="378" y="-1020"/>
    </contour>
  </outline>
</glyph>
<glyph name="Y.cur.ini" format="2">
  <advance width="1241"/>
  <anchor x="1220" y="0" name="bottom"/>
  <anchor x="1160" y="0" name="cnct"/>
  <anchor x="1040" y="1424" name="top"/>
  <outline>
    <contour>
      <point x="580" y="88" type="curve" smooth="yes"/>
      <point x="755" y="88"/>
      <point x="939" y="193"/>
      <point x="1099" y="480" type="curve"/>
      <point x="742" y="-616" type="line" smooth="yes"/>
      <point x="674" y="-827"/>
      <point x="587" y="-935"/>
      <point x="484" y="-935" type="curve" smooth="yes"/>
      <point x="435" y="-935"/>
      <point x="400" y="-892"/>
      <point x="400" y="-835" type="curve" smooth="yes"/>
      <point x="400" y="-785"/>
      <point x="309" y="-790"/>
      <point x="309" y="-840" type="curve" smooth="yes"/>
      <point x="309" y="-945"/>
      <point x="379" y="-1020"/>
      <point x="476" y="-1020" type="curve" smooth="yes"/>
      <point x="625" y="-1020"/>
      <point x="744" y="-892"/>
      <point x="825" y="-641" type="curve" smooth="yes"/>
      <point x="1516" y="1485" type="line" smooth="yes"/>
      <point x="1524" y="1506"/>
      <point x="1507" y="1515"/>
      <point x="1477" y="1515" type="curve" smooth="yes"/>
      <point x="1447" y="1515"/>
      <point x="1432" y="1506"/>
      <point x="1426" y="1488" type="curve" smooth="yes"/>
      <point x="1235" y="900" type="line"/>
      <point x="1046" y="385"/>
      <point x="804" y="176"/>
      <point x="602" y="176" type="curve" smooth="yes"/>
      <point x="486" y="176"/>
      <point x="455" y="264"/>
      <point x="514" y="445" type="curve" smooth="yes"/>
      <point x="794" y="1309" type="line" smooth="yes"/>
      <point x="836" y="1441"/>
      <point x="806" y="1513"/>
      <point x="705" y="1513" type="curve" smooth="yes"/>
      <point x="607" y="1513"/>
      <point x="501" y="1423"/>
      <point x="376" y="1235" type="curve" smooth="yes"/>
      <point x="359" y="1209"/>
      <point x="360" y="1193"/>
      <point x="384" y="1178" type="curve" smooth="yes"/>
      <point x="409" y="1161"/>
      <point x="425" y="1166"/>
      <point x="445" y="1195" type="curve" smooth="yes"/>
      <point x="560" y="1360"/>
      <point x="631" y="1430"/>
      <point x="687" y="1430" type="curve" smooth="yes"/>
      <point x="726" y="1430"/>
      <point x="731" y="1395"/>
      <point x="707" y="1321" type="curve" smooth="yes"/>
      <point x="422" y="441" type="line" smooth="yes"/>
      <point x="350" y="219"/>
      <point x="407" y="88"/>
    </contour>
  </outline>
</glyph>
